<svg width="139" height="132" viewBox="0 0 139 132" fill="none" xmlns="http://www.w3.org/2000/svg">
<path d="M135.9 77.5613H136.836L136.898 76.6278C137.35 69.8459 137.582 66.2257 137.582 65.8784C137.582 52.5458 134.593 40.9944 128.573 31.2657C122.719 21.4101 114.7 13.9304 104.531 8.84482C94.3776 3.61521 83.0828 1.00854 70.6665 1.00854C57.6408 1.00854 45.8853 3.76823 35.4225 9.30736C24.9639 14.8443 16.7218 22.5445 10.7159 32.4003L10.7135 32.4042C4.85323 42.1199 1.93262 53.1358 1.93262 65.4238C1.93262 77.8659 4.93028 89.0346 10.9432 98.902L10.9431 98.902L10.9491 98.9116C17.1144 108.776 25.7436 116.474 36.8069 122.006C47.8789 127.541 60.6896 130.294 75.2124 130.294C98.4426 130.294 116.25 123.562 128.462 109.96L129.082 109.268L128.438 108.599L105.709 84.96L105.052 84.2773L104.335 84.8957C100.009 88.625 95.7134 91.2836 91.4503 92.9007L91.4503 92.9006L91.4393 92.9049C87.3418 94.5147 82.396 95.3359 76.5762 95.3359C68.8439 95.3359 62.4533 93.7024 57.348 90.4978C52.7581 87.3886 49.5423 83.0911 47.7013 77.5613H135.9ZM86.8334 39.1331L86.8397 39.1386L86.8462 39.1439C90.9164 42.5358 93.6078 47.0794 94.898 52.8318H46.8887C48.1713 47.0732 50.7913 42.5284 54.7205 39.1387C59.0628 35.5227 64.4321 33.6934 70.8938 33.6934C77.3594 33.6934 82.6474 35.5245 86.8334 39.1331Z" stroke="white" stroke-width="2"/>
</svg>
