<svg width="145" height="176" viewBox="0 0 145 176" fill="none" xmlns="http://www.w3.org/2000/svg">
<path d="M143.241 4.07201V3.07201H142.241H101.101H100.101V4.07201V16.153C91.6465 6.02804 79.039 1.02637 62.4605 1.02637C51.3929 1.02637 41.1537 3.56392 31.76 8.6445C22.3552 13.5795 14.8737 20.6774 9.32704 29.9205C3.7669 39.0344 1 49.5217 1 61.3503C1 73.3296 3.76639 83.967 9.3251 93.2315L9.32898 93.2379C14.8764 102.33 22.3562 109.423 31.7544 114.508L31.7544 114.508L31.7657 114.514C41.1589 119.441 51.396 121.902 62.4605 121.902C77.6535 121.902 89.5654 117.612 98.0549 108.925V110.446C98.0549 120.12 95.4539 127.241 90.4136 131.993C85.376 136.743 77.3444 139.222 66.0972 139.222C58.7825 139.222 51.3069 138.028 43.667 135.631L43.655 135.627C36.1773 133.384 30.0138 130.256 25.1354 126.265L24.1819 125.484L23.6145 126.578L7.9312 156.808L7.53171 157.578L8.23761 158.083C15.7807 163.47 24.9148 167.532 35.6179 170.284C46.3145 173.034 57.7636 174.407 69.9612 174.407C93.4515 174.407 111.61 168.61 124.28 156.868C136.978 145.253 143.241 127.819 143.241 104.764V4.07201ZM91.1077 78.795L91.1022 78.8L91.0968 78.8051C86.3056 83.3059 80.1971 85.5801 72.6887 85.5801C65.1808 85.5801 58.9897 83.3058 54.0424 78.795C49.1129 74.3005 46.6406 68.5146 46.6406 61.3503C46.6406 54.1761 49.0439 48.4704 53.814 44.134L53.8151 44.133C58.7587 39.6256 65.0236 37.3479 72.6887 37.3479C80.3545 37.3479 86.5367 39.6256 91.3241 44.1229L91.3301 44.1285L91.3361 44.134C96.1062 48.4704 98.5095 54.1761 98.5095 61.3503C98.5095 68.5146 96.0372 74.3005 91.1077 78.795Z" stroke="white" stroke-width="2"/>
</svg>
