<svg width="121" height="132" viewBox="0 0 121 132" fill="none" xmlns="http://www.w3.org/2000/svg">
<path d="M27.2756 127.455L27.2826 127.456L27.2896 127.458C37.3636 129.748 47.5905 130.892 57.9688 130.892C70.9324 130.892 82.0455 129.139 91.2813 125.6C100.648 122.068 107.789 117.201 112.628 110.958L112.628 110.958L112.635 110.948C117.463 104.563 119.884 97.3814 119.884 89.4338C119.884 79.8683 117.336 72.3178 112.111 66.9278C107.146 61.5005 101.235 57.7663 94.392 55.7443C87.665 53.7568 79.2063 52.0059 69.0279 50.4867C61.0162 49.2774 55.3268 48.1515 51.9147 47.1153C50.2899 46.5476 49.1629 45.8172 48.4449 44.9743C47.7392 44.1458 47.3767 43.1494 47.3767 41.9292C47.3767 39.881 48.5961 38.1159 51.5798 36.6951L51.597 36.6869L51.6139 36.6781C54.5747 35.1272 59.3736 34.292 66.1514 34.292C78.7135 34.292 90.3652 37.281 101.124 43.2579L102.081 43.7899L102.524 42.7879L115.48 13.4669L115.846 12.6374L115.057 12.1918C109.033 8.79393 101.58 6.18842 92.7202 4.35545C83.8651 2.52336 74.9327 1.60718 65.9241 1.60718C53.2563 1.60718 42.291 3.43794 33.0536 7.13215C23.985 10.668 17.0018 15.6134 12.1703 22.0013C7.33545 28.2418 4.91821 35.4276 4.91821 43.5203C4.91821 53.2403 7.46709 60.9403 12.6914 66.4812C17.8111 71.9112 23.8749 75.6451 30.8704 77.6661L30.876 77.6676C37.9079 79.6549 46.3684 81.2539 56.2481 82.4701C63.9629 83.5292 69.4842 84.6551 72.869 85.8324L72.8931 85.8408L72.9175 85.8479C74.6377 86.3497 75.8215 87.0196 76.5674 87.7966C77.2903 88.5496 77.6526 89.4536 77.6526 90.5703C77.6526 92.8177 76.4525 94.6408 73.6692 96.0353C71.0062 97.2931 66.282 97.9802 59.3325 97.9802C51.8464 97.9802 44.28 97.0075 36.6315 95.0586C28.981 92.9577 22.4091 90.1897 16.9017 86.7662L15.9214 86.1568L15.4579 87.2139L2.50214 116.762L2.15509 117.554L2.88797 118.012C9.07041 121.876 17.2122 125.015 27.2756 127.455Z" stroke="white" stroke-width="2"/>
</svg>
