<svg width="103" height="158" viewBox="0 0 103 158" fill="none" xmlns="http://www.w3.org/2000/svg">
<path d="M100.561 149.033L101.241 148.608L100.973 147.852L90.2905 117.622L89.8582 116.398L88.7854 117.128C85.1781 119.581 80.9837 120.819 76.1646 120.819C72.4595 120.819 69.5534 119.691 67.3474 117.497C65.29 115.152 64.2087 111.933 64.2087 107.727V67.8135H91.3933H92.3933V66.8135V34.5376V33.5376H91.3933H64.2087V2.48901V1.48901H63.2087H20.0227H19.0227V2.48901V33.5376H2.06641H1.06641V34.5376V66.8135V67.8135H2.06641H19.0227V108.181C19.0227 123.971 23.3965 136.024 32.3046 144.151C41.1853 152.252 53.81 156.231 70.0276 156.231C76.0048 156.231 81.6126 155.618 86.8472 154.387C92.2298 153.156 96.8087 151.378 100.561 149.033Z" stroke="white" stroke-width="2"/>
</svg>
