<svg width="154" height="167" viewBox="0 0 154 167" fill="none" xmlns="http://www.w3.org/2000/svg">
<path d="M21.2838 146.219L21.288 146.223C34.7066 159.333 53.3966 165.828 77.2195 165.828C101.04 165.828 119.656 159.334 132.925 146.222C146.35 133.104 153 114.557 153 90.7295V2.53906V1.53906H152H107.677H106.677V2.53906V89.3657C106.677 101.991 104.193 111.275 99.39 117.387C94.6234 123.454 87.448 126.551 77.6741 126.551C67.8217 126.551 60.5889 123.452 55.7855 117.384C50.9468 111.272 48.4439 101.989 48.4439 89.3657V2.53906V1.53906H47.4439H2.43945H1.43945V2.53906V90.7295C1.43945 114.554 8.01135 133.101 21.2838 146.219Z" stroke="white" stroke-width="2"/>
</svg>
