<svg width="364" height="64" viewBox="0 0 364 64" fill="none" xmlns="http://www.w3.org/2000/svg">
<path d="M6.5304 21.1128L0.422364 14.7167L0.0974687 14.5137H27.6486L39.6373 26.0113L51.9508 14.5137H61.3728L44.9656 30.9607L61.5677 47.027H51.6259L39.7997 35.5039L27.5187 47.027H0L6.5304 40.504H24.8545L34.3415 30.9607L24.2047 21.1128H6.5304Z" fill="white"/>
<path d="M6.92028 34.1079V27.3566H24.2047L27.6486 30.9607L24.2047 34.1079H6.92028Z" fill="white"/>
<path d="M82.3924 48.5363C91.3653 48.5363 98.2638 42.5061 99.5663 33.6297H90.0628C89.098 37.3926 86.1553 39.8529 82.3924 39.8529C77.6165 39.8529 74.0949 36.0418 74.0949 30.8317C74.0949 25.6217 77.6165 21.7624 82.3924 21.7624C85.9623 21.7624 88.8568 24.0297 90.0146 27.4549H99.4699C98.0709 18.9161 91.2206 13.0789 82.3924 13.0789C72.117 13.0789 64.4467 20.7011 64.4467 30.8317C64.4467 40.9142 72.117 48.5363 82.3924 48.5363ZM113.276 39.6117V34.5463H124.371V26.9242H113.276V21.9553H125.625V13.899H104.013V47.668H126.059V39.6117H113.276ZM140.84 39.1775V13.899H131.385V47.668H152.852V39.1775H140.84ZM168.553 48.5363C176.416 48.5363 182.06 44.677 182.06 37.2961C182.06 29.6257 175.596 27.9373 170.579 26.683C167.443 25.8629 164.886 25.2358 164.886 23.3061C164.886 21.7141 166.478 20.9905 168.118 20.9905C170.048 20.9905 171.64 22.0036 171.64 24.1744H180.999C180.999 17.2759 176.319 13.1272 168.215 13.1272C160.255 13.1272 155.383 16.9382 155.383 23.5955C155.383 31.2659 161.606 32.7614 166.478 33.9674C169.71 34.7393 172.364 35.3664 172.364 37.489C172.364 39.3222 170.482 40.3835 168.553 40.3835C166.43 40.3835 164.549 39.1775 164.549 36.7654H154.949C154.949 44.1464 160.303 48.5363 168.553 48.5363ZM186.928 47.668H196.383V13.899H186.928V47.668ZM219.735 48.5363C230.589 48.5363 238.308 41.1554 238.308 30.8317C238.308 20.4599 230.589 13.0789 219.735 13.0789C208.88 13.0789 201.162 20.5081 201.162 30.8317C201.162 41.1071 208.88 48.5363 219.735 48.5363ZM219.735 39.9011C214.621 39.9011 210.81 36.0418 210.81 30.8317C210.81 25.5734 214.621 21.7141 219.735 21.7141C224.897 21.7141 228.611 25.5252 228.611 30.8317C228.611 36.0901 224.897 39.9011 219.735 39.9011ZM261.224 47.668H271.596L264.89 35.4147C268.219 33.4368 270.245 30.0116 270.245 25.8629C270.245 18.8197 264.938 13.899 257.702 13.899H243.037V47.668H252.347V37.3443H255.724L261.224 47.668ZM252.347 22.1965H256.593C259.198 22.1965 260.693 23.7403 260.693 25.8629C260.693 27.9373 259.198 29.5292 256.593 29.5292H252.347V22.1965Z" fill="white"/>
<path d="M285.798 27.197H284.448V28.6697L285.915 28.5415L285.798 27.197ZM294.192 10.4573H295.542V9.1076H294.192V10.4573ZM285.412 10.4573V9.1076H284.062V10.4573H285.412ZM285.412 18.7548H284.062V20.1044H285.412V18.7548ZM289.609 18.7548H290.959V17.4051H289.609V18.7548ZM285.798 22.7588L285.674 21.4149L284.448 21.5283V22.7588H285.798ZM285.915 28.5415C288.683 28.2997 291.106 27.2141 292.841 25.3728C294.58 23.5267 295.542 21.0123 295.542 18.0794H292.842C292.842 20.4048 292.091 22.2321 290.876 23.5216C289.656 24.8161 287.882 25.6601 285.681 25.8525L285.915 28.5415ZM295.542 18.0794V10.4573H292.842V18.0794H295.542ZM294.192 9.1076H285.412V11.8069H294.192V9.1076ZM284.062 10.4573V18.7548H286.762V10.4573H284.062ZM285.412 20.1044H289.609V17.4051H285.412V20.1044ZM288.259 18.7548C288.259 19.5327 288.036 20.1343 287.668 20.5518C287.308 20.9603 286.698 21.32 285.674 21.4149L285.922 24.1027C287.503 23.9563 288.799 23.3513 289.693 22.3366C290.579 21.3311 290.959 20.0512 290.959 18.7548H288.259ZM284.448 22.7588V27.197H287.148V22.7588H284.448ZM322.67 37.4242L321.647 36.5438L319.728 38.7738H322.67V37.4242ZM308.246 23.4824H306.896V24.8321H308.246V23.4824ZM316.737 23.4824V24.8321H318.086V23.4824H316.737ZM307.715 43.0684L306.686 42.1954L306.366 42.5731V43.0684H307.715ZM307.715 44.998H306.366V46.3477H307.715V44.998ZM331.595 44.998V46.3477H332.944V44.998H331.595ZM331.595 37.4242H332.944V36.0745H331.595V37.4242ZM323.693 38.3045C330.545 30.3426 332.366 26.918 332.366 22.3246H329.666C329.666 25.8358 328.496 28.5861 321.647 36.5438L323.693 38.3045ZM332.366 22.3246C332.366 18.9388 331.042 16.0211 328.721 13.9639C326.414 11.9181 323.207 10.796 319.535 10.796V13.4954C322.664 13.4954 325.198 14.4476 326.931 15.9838C328.651 17.5085 329.666 19.6803 329.666 22.3246H332.366ZM319.535 10.796C315.741 10.796 312.556 11.9437 310.311 14.1116C308.063 16.2836 306.896 19.3469 306.896 22.9035H309.596C309.596 19.9476 310.552 17.6319 312.187 16.0532C313.826 14.4703 316.284 13.4954 319.535 13.4954V10.796ZM306.896 22.9035V23.4824H309.596V22.9035H306.896ZM308.246 24.8321H316.737V22.1328H308.246V24.8321ZM318.086 23.4824V22.8553H315.387V23.4824H318.086ZM318.086 22.8553C318.086 22.1442 318.288 21.7159 318.507 21.4788C318.714 21.2543 319.056 21.0692 319.631 21.0692V18.3699C318.422 18.3699 317.316 18.7879 316.522 19.6488C315.74 20.4971 315.387 21.6367 315.387 22.8553H318.086ZM319.631 21.0692C320.124 21.0692 320.463 21.2369 320.679 21.4584C320.897 21.6814 321.079 22.0516 321.079 22.6141H323.779C323.779 21.4398 323.382 20.3628 322.611 19.5728C321.838 18.7812 320.778 18.3699 319.631 18.3699V21.0692ZM321.079 22.6141C321.079 23.5523 320.843 24.5645 318.825 27.3672C316.801 30.1781 313.164 34.5578 306.686 42.1954L308.745 43.9414C315.196 36.3347 318.915 31.8621 321.016 28.9444C323.122 26.0184 323.779 24.4256 323.779 22.6141H321.079ZM306.366 43.0684V44.998H309.065V43.0684H306.366ZM307.715 46.3477H331.595V43.6484H307.715V46.3477ZM332.944 44.998V37.4242H330.245V44.998H332.944ZM331.595 36.0745H322.67V38.7738H331.595V36.0745ZM349.947 37.4242L348.924 36.5438L347.005 38.7738H349.947V37.4242ZM335.523 23.4824H334.173V24.8321H335.523V23.4824ZM344.014 23.4824V24.8321H345.363V23.4824H344.014ZM334.992 43.0684L333.963 42.1954L333.643 42.5731V43.0684H334.992ZM334.992 44.998H333.643V46.3477H334.992V44.998ZM358.872 44.998V46.3477H360.222V44.998H358.872ZM358.872 37.4242H360.222V36.0745H358.872V37.4242ZM350.97 38.3045C357.822 30.3426 359.643 26.918 359.643 22.3246H356.943C356.943 25.8358 355.773 28.5861 348.924 36.5438L350.97 38.3045ZM359.643 22.3246C359.643 18.9388 358.319 16.0211 355.998 13.9639C353.691 11.9181 350.484 10.796 346.812 10.796V13.4954C349.941 13.4954 352.475 14.4476 354.208 15.9838C355.928 17.5085 356.943 19.6803 356.943 22.3246H359.643ZM346.812 10.796C343.018 10.796 339.833 11.9437 337.589 14.1116C335.34 16.2836 334.173 19.3469 334.173 22.9035H336.873C336.873 19.9476 337.829 17.6319 339.464 16.0532C341.103 14.4703 343.562 13.4954 346.812 13.4954V10.796ZM334.173 22.9035V23.4824H336.873V22.9035H334.173ZM335.523 24.8321H344.014V22.1328H335.523V24.8321ZM345.363 23.4824V22.8553H342.664V23.4824H345.363ZM345.363 22.8553C345.363 22.1442 345.565 21.7159 345.784 21.4788C345.991 21.2543 346.333 21.0692 346.908 21.0692V18.3699C345.699 18.3699 344.593 18.7879 343.799 19.6488C343.017 20.4971 342.664 21.6367 342.664 22.8553H345.363ZM346.908 21.0692C347.401 21.0692 347.74 21.2369 347.956 21.4584C348.174 21.6814 348.356 22.0516 348.356 22.6141H351.056C351.056 21.4398 350.659 20.3628 349.888 19.5728C349.115 18.7812 348.055 18.3699 346.908 18.3699V21.0692ZM348.356 22.6141C348.356 23.5523 348.12 24.5645 346.102 27.3672C344.078 30.1781 340.441 34.5578 333.963 42.1954L336.022 43.9414C342.473 36.3347 346.192 31.8621 348.293 28.9444C350.399 26.0184 351.056 24.4256 351.056 22.6141H348.356ZM333.643 43.0684V44.998H336.342V43.0684H333.643ZM334.992 46.3477H358.872V43.6484H334.992V46.3477ZM360.222 44.998V37.4242H357.522V44.998H360.222ZM358.872 36.0745H349.947V38.7738H358.872V36.0745Z" fill="white"/>
</svg>
