<svg width="368" height="528" viewBox="0 0 368 528" fill="none" xmlns="http://www.w3.org/2000/svg">
<g filter="url(#filter0_d_315_249)">
<path fill-rule="evenodd" clip-rule="evenodd" d="M12 17C12 8.71573 18.7157 2 27 2H340.127C348.412 2 355.127 8.71573 355.127 17L355.127 233.127C343.881 233.127 334.764 242.244 334.764 253.491C334.764 264.737 343.881 273.855 355.127 273.855L355.127 491C355.127 499.284 348.412 506 340.127 506H27C18.7157 506 12 499.284 12 491V273.855C23.2465 273.855 32.3636 264.737 32.3636 253.491C32.3636 242.244 23.2465 233.127 12 233.127V17ZM71.2982 46.6H85.0982C88.2182 46.6 90.9649 47.1733 93.3382 48.32C95.7382 49.44 97.5915 51.0533 98.8982 53.16C100.232 55.2667 100.898 57.7467 100.898 60.6C100.898 63.4533 100.232 65.9333 98.8982 68.04C97.5915 70.1467 95.7382 71.7733 93.3382 72.92C90.9649 74.04 88.2182 74.6 85.0982 74.6H71.2982V46.6ZM84.6982 67.24C86.7248 67.24 88.3382 66.6667 89.5382 65.52C90.7648 64.3467 91.3782 62.7067 91.3782 60.6C91.3782 58.4933 90.7648 56.8667 89.5382 55.72C88.3382 54.5467 86.7248 53.96 84.6982 53.96H80.7382V67.24H84.6982ZM113.865 52.32C117.705 52.32 120.638 53.1867 122.665 54.92C124.692 56.6267 125.705 59.2667 125.705 62.84V74.6H117.305V71.72C116.265 73.9067 114.198 75 111.105 75C109.372 75 107.892 74.7067 106.665 74.12C105.465 73.5067 104.545 72.6933 103.905 71.68C103.292 70.64 102.985 69.48 102.985 68.2C102.985 66.04 103.812 64.4 105.465 63.28C107.118 62.16 109.625 61.6 112.985 61.6H116.625C116.332 59.8933 114.958 59.04 112.505 59.04C111.518 59.04 110.518 59.2 109.505 59.52C108.492 59.8133 107.625 60.2267 106.905 60.76L104.025 54.8C105.278 54.0267 106.785 53.4267 108.545 53C110.332 52.5467 112.105 52.32 113.865 52.32ZM113.825 69.56C114.465 69.56 115.038 69.3867 115.545 69.04C116.052 68.6933 116.425 68.1733 116.665 67.48V65.96H114.425C112.585 65.96 111.665 66.5733 111.665 67.8C111.665 68.3067 111.852 68.7333 112.225 69.08C112.625 69.4 113.158 69.56 113.825 69.56ZM153.581 52.72L144.581 75.04C143.435 77.8933 142.008 79.8933 140.301 81.04C138.595 82.1867 136.501 82.76 134.021 82.76C132.795 82.76 131.555 82.5733 130.301 82.2C129.075 81.8533 128.101 81.3867 127.381 80.8L130.381 74.6C130.835 74.9467 131.341 75.2267 131.901 75.44C132.488 75.6533 133.048 75.76 133.581 75.76C134.568 75.76 135.315 75.4667 135.821 74.88L126.621 52.72H135.901L140.421 64.44L145.021 52.72H153.581ZM179.396 74.6H169.956V53.72H165.156V46.6H179.396V74.6ZM53.7455 342.073C57.1194 342.073 59.8545 339.338 59.8545 335.964C59.8545 332.937 57.6529 330.424 54.7636 329.939V251.37C57.6529 250.885 59.8545 248.372 59.8545 245.345C59.8545 242.318 57.6529 239.806 54.7636 239.321V145.479C57.6529 144.994 59.8545 142.482 59.8545 139.455C59.8545 136.081 57.1194 133.345 53.7455 133.345C50.3715 133.345 47.6364 136.081 47.6364 139.455C47.6364 142.482 49.838 144.994 52.7273 145.479V239.321C49.838 239.806 47.6364 242.318 47.6364 245.345C47.6364 248.372 49.838 250.885 52.7273 251.37V329.939C49.838 330.424 47.6364 332.937 47.6364 335.964C47.6364 339.338 50.3715 342.073 53.7455 342.073Z" fill="#F8CB15"/>
<path d="M74.8696 130.547V150.091H70.9496V130.547H74.8696ZM87.3385 134.355C89.1865 134.355 90.6799 134.943 91.8185 136.119C92.9572 137.276 93.5265 138.9 93.5265 140.991V150.091H89.6065V141.523C89.6065 140.291 89.2985 139.348 88.6825 138.695C88.0665 138.023 87.2265 137.687 86.1625 137.687C85.0799 137.687 84.2212 138.023 83.5865 138.695C82.9705 139.348 82.6625 140.291 82.6625 141.523V150.091H78.7425V134.579H82.6625V136.511C83.1852 135.839 83.8479 135.316 84.6505 134.943C85.4719 134.551 86.3679 134.355 87.3385 134.355ZM96.2463 142.279C96.2463 140.711 96.5543 139.32 97.1703 138.107C97.8049 136.894 98.6543 135.96 99.7183 135.307C100.801 134.654 102.005 134.327 103.33 134.327C104.488 134.327 105.496 134.56 106.354 135.027C107.232 135.494 107.932 136.082 108.454 136.791V134.579H112.402V150.091H108.454V147.823C107.95 148.551 107.25 149.158 106.354 149.643C105.477 150.11 104.46 150.343 103.302 150.343C101.996 150.343 100.801 150.007 99.7183 149.335C98.6543 148.663 97.8049 147.72 97.1703 146.507C96.5543 145.275 96.2463 143.866 96.2463 142.279ZM108.454 142.335C108.454 141.383 108.268 140.571 107.894 139.899C107.521 139.208 107.017 138.686 106.382 138.331C105.748 137.958 105.066 137.771 104.338 137.771C103.61 137.771 102.938 137.948 102.322 138.303C101.706 138.658 101.202 139.18 100.81 139.871C100.437 140.543 100.25 141.346 100.25 142.279C100.25 143.212 100.437 144.034 100.81 144.743C101.202 145.434 101.706 145.966 102.322 146.339C102.957 146.712 103.629 146.899 104.338 146.899C105.066 146.899 105.748 146.722 106.382 146.367C107.017 145.994 107.521 145.471 107.894 144.799C108.268 144.108 108.454 143.287 108.454 142.335ZM130.875 134.579V150.091H126.927V148.131C126.423 148.803 125.76 149.335 124.939 149.727C124.136 150.1 123.259 150.287 122.307 150.287C121.093 150.287 120.02 150.035 119.087 149.531C118.153 149.008 117.416 148.252 116.875 147.263C116.352 146.255 116.091 145.06 116.091 143.679V134.579H120.011V143.119C120.011 144.351 120.319 145.303 120.935 145.975C121.551 146.628 122.391 146.955 123.455 146.955C124.537 146.955 125.387 146.628 126.003 145.975C126.619 145.303 126.927 144.351 126.927 143.119V134.579H130.875ZM140.819 134.327C141.976 134.327 142.993 134.56 143.871 135.027C144.748 135.475 145.439 136.063 145.943 136.791V134.579H149.891V150.203C149.891 151.64 149.601 152.919 149.023 154.039C148.444 155.178 147.576 156.074 146.419 156.727C145.261 157.399 143.861 157.735 142.219 157.735C140.016 157.735 138.205 157.222 136.787 156.195C135.387 155.168 134.593 153.768 134.407 151.995H138.299C138.504 152.704 138.943 153.264 139.615 153.675C140.305 154.104 141.136 154.319 142.107 154.319C143.245 154.319 144.169 153.974 144.879 153.283C145.588 152.611 145.943 151.584 145.943 150.203V147.795C145.439 148.523 144.739 149.13 143.843 149.615C142.965 150.1 141.957 150.343 140.819 150.343C139.512 150.343 138.317 150.007 137.235 149.335C136.152 148.663 135.293 147.72 134.659 146.507C134.043 145.275 133.735 143.866 133.735 142.279C133.735 140.711 134.043 139.32 134.659 138.107C135.293 136.894 136.143 135.96 137.207 135.307C138.289 134.654 139.493 134.327 140.819 134.327ZM145.943 142.335C145.943 141.383 145.756 140.571 145.383 139.899C145.009 139.208 144.505 138.686 143.871 138.331C143.236 137.958 142.555 137.771 141.827 137.771C141.099 137.771 140.427 137.948 139.811 138.303C139.195 138.658 138.691 139.18 138.299 139.871C137.925 140.543 137.739 141.346 137.739 142.279C137.739 143.212 137.925 144.034 138.299 144.743C138.691 145.434 139.195 145.966 139.811 146.339C140.445 146.712 141.117 146.899 141.827 146.899C142.555 146.899 143.236 146.722 143.871 146.367C144.505 145.994 145.009 145.471 145.383 144.799C145.756 144.108 145.943 143.287 145.943 142.335ZM168.363 134.579V150.091H164.415V148.131C163.911 148.803 163.248 149.335 162.427 149.727C161.624 150.1 160.747 150.287 159.795 150.287C158.582 150.287 157.508 150.035 156.575 149.531C155.642 149.008 154.904 148.252 154.363 147.263C153.84 146.255 153.579 145.06 153.579 143.679V134.579H157.499V143.119C157.499 144.351 157.807 145.303 158.423 145.975C159.039 146.628 159.879 146.955 160.943 146.955C162.026 146.955 162.875 146.628 163.491 145.975C164.107 145.303 164.415 144.351 164.415 143.119V134.579H168.363ZM176.151 136.987C176.655 136.166 177.308 135.522 178.111 135.055C178.932 134.588 179.865 134.355 180.911 134.355V138.471H179.875C178.643 138.471 177.709 138.76 177.075 139.339C176.459 139.918 176.151 140.926 176.151 142.363V150.091H172.231V134.579H176.151V136.987ZM182.543 142.279C182.543 140.711 182.851 139.32 183.467 138.107C184.102 136.894 184.951 135.96 186.015 135.307C187.098 134.654 188.302 134.327 189.627 134.327C190.784 134.327 191.792 134.56 192.651 135.027C193.528 135.494 194.228 136.082 194.751 136.791V134.579H198.699V150.091H194.751V147.823C194.247 148.551 193.547 149.158 192.651 149.643C191.774 150.11 190.756 150.343 189.599 150.343C188.292 150.343 187.098 150.007 186.015 149.335C184.951 148.663 184.102 147.72 183.467 146.507C182.851 145.275 182.543 143.866 182.543 142.279ZM194.751 142.335C194.751 141.383 194.564 140.571 194.191 139.899C193.818 139.208 193.314 138.686 192.679 138.331C192.044 137.958 191.363 137.771 190.635 137.771C189.907 137.771 189.235 137.948 188.619 138.303C188.003 138.658 187.499 139.18 187.107 139.871C186.734 140.543 186.547 141.346 186.547 142.279C186.547 143.212 186.734 144.034 187.107 144.743C187.499 145.434 188.003 145.966 188.619 146.339C189.254 146.712 189.926 146.899 190.635 146.899C191.363 146.899 192.044 146.722 192.679 146.367C193.314 145.994 193.818 145.471 194.191 144.799C194.564 144.108 194.751 143.287 194.751 142.335ZM207.092 137.799V145.303C207.092 145.826 207.213 146.208 207.456 146.451C207.717 146.675 208.146 146.787 208.744 146.787H210.564V150.091H208.1C204.796 150.091 203.144 148.486 203.144 145.275V137.799H201.296V134.579H203.144V130.743H207.092V134.579H210.564V137.799H207.092ZM215.371 132.731C214.681 132.731 214.102 132.516 213.635 132.087C213.187 131.639 212.963 131.088 212.963 130.435C212.963 129.782 213.187 129.24 213.635 128.811C214.102 128.363 214.681 128.139 215.371 128.139C216.062 128.139 216.631 128.363 217.079 128.811C217.546 129.24 217.779 129.782 217.779 130.435C217.779 131.088 217.546 131.639 217.079 132.087C216.631 132.516 216.062 132.731 215.371 132.731ZM217.303 134.579V150.091H213.383V134.579H217.303ZM228.064 150.343C226.571 150.343 225.227 150.016 224.032 149.363C222.837 148.691 221.895 147.748 221.204 146.535C220.532 145.322 220.196 143.922 220.196 142.335C220.196 140.748 220.541 139.348 221.232 138.135C221.941 136.922 222.903 135.988 224.116 135.335C225.329 134.663 226.683 134.327 228.176 134.327C229.669 134.327 231.023 134.663 232.236 135.335C233.449 135.988 234.401 136.922 235.092 138.135C235.801 139.348 236.156 140.748 236.156 142.335C236.156 143.922 235.792 145.322 235.064 146.535C234.355 147.748 233.384 148.691 232.152 149.363C230.939 150.016 229.576 150.343 228.064 150.343ZM228.064 146.927C228.773 146.927 229.436 146.759 230.052 146.423C230.687 146.068 231.191 145.546 231.564 144.855C231.937 144.164 232.124 143.324 232.124 142.335C232.124 140.86 231.732 139.731 230.948 138.947C230.183 138.144 229.24 137.743 228.12 137.743C227 137.743 226.057 138.144 225.292 138.947C224.545 139.731 224.172 140.86 224.172 142.335C224.172 143.81 224.536 144.948 225.264 145.751C226.011 146.535 226.944 146.927 228.064 146.927ZM247.628 134.355C249.476 134.355 250.969 134.943 252.108 136.119C253.246 137.276 253.816 138.9 253.816 140.991V150.091H249.896V141.523C249.896 140.291 249.588 139.348 248.972 138.695C248.356 138.023 247.516 137.687 246.452 137.687C245.369 137.687 244.51 138.023 243.876 138.695C243.26 139.348 242.952 140.291 242.952 141.523V150.091H239.032V134.579H242.952V136.511C243.474 135.839 244.137 135.316 244.94 134.943C245.761 134.551 246.657 134.355 247.628 134.355Z" fill="white"/>
<path d="M77.1626 163.625H72.3026V166.19C72.5126 165.93 72.8126 165.72 73.2026 165.56C73.5926 165.39 74.0076 165.305 74.4476 165.305C75.2476 165.305 75.9026 165.48 76.4126 165.83C76.9226 166.18 77.2926 166.63 77.5226 167.18C77.7526 167.72 77.8676 168.3 77.8676 168.92C77.8676 170.07 77.5376 170.995 76.8776 171.695C76.2276 172.395 75.2976 172.745 74.0876 172.745C72.9476 172.745 72.0376 172.46 71.3576 171.89C70.6776 171.32 70.2926 170.575 70.2026 169.655H72.2426C72.3326 170.055 72.5326 170.375 72.8426 170.615C73.1626 170.855 73.5676 170.975 74.0576 170.975C74.6476 170.975 75.0926 170.79 75.3926 170.42C75.6926 170.05 75.8426 169.56 75.8426 168.95C75.8426 168.33 75.6876 167.86 75.3776 167.54C75.0776 167.21 74.6326 167.045 74.0426 167.045C73.6226 167.045 73.2726 167.15 72.9926 167.36C72.7126 167.57 72.5126 167.85 72.3926 168.2H70.3826V161.78H77.1626V163.625ZM80.6359 172.85C80.2559 172.85 79.9409 172.735 79.6909 172.505C79.4509 172.265 79.3309 171.97 79.3309 171.62C79.3309 171.27 79.4509 170.98 79.6909 170.75C79.9409 170.51 80.2559 170.39 80.6359 170.39C81.0059 170.39 81.3109 170.51 81.5509 170.75C81.7909 170.98 81.9109 171.27 81.9109 171.62C81.9109 171.97 81.7909 172.265 81.5509 172.505C81.3109 172.735 81.0059 172.85 80.6359 172.85ZM80.6359 166.64C80.2559 166.64 79.9409 166.525 79.6909 166.295C79.4509 166.055 79.3309 165.76 79.3309 165.41C79.3309 165.06 79.4509 164.77 79.6909 164.54C79.9409 164.3 80.2559 164.18 80.6359 164.18C81.0059 164.18 81.3109 164.3 81.5509 164.54C81.7909 164.77 81.9109 165.06 81.9109 165.41C81.9109 165.76 81.7909 166.055 81.5509 166.295C81.3109 166.525 81.0059 166.64 80.6359 166.64ZM83.4063 167.135C83.4063 165.405 83.7163 164.05 84.3363 163.07C84.9663 162.09 86.0063 161.6 87.4563 161.6C88.9063 161.6 89.9413 162.09 90.5613 163.07C91.1913 164.05 91.5063 165.405 91.5063 167.135C91.5063 168.875 91.1913 170.24 90.5613 171.23C89.9413 172.22 88.9063 172.715 87.4563 172.715C86.0063 172.715 84.9663 172.22 84.3363 171.23C83.7163 170.24 83.4063 168.875 83.4063 167.135ZM89.4363 167.135C89.4363 166.395 89.3863 165.775 89.2863 165.275C89.1963 164.765 89.0063 164.35 88.7163 164.03C88.4363 163.71 88.0163 163.55 87.4563 163.55C86.8963 163.55 86.4713 163.71 86.1813 164.03C85.9013 164.35 85.7113 164.765 85.6113 165.275C85.5213 165.775 85.4763 166.395 85.4763 167.135C85.4763 167.895 85.5213 168.535 85.6113 169.055C85.7013 169.565 85.8913 169.98 86.1813 170.3C86.4713 170.61 86.8963 170.765 87.4563 170.765C88.0163 170.765 88.4413 170.61 88.7313 170.3C89.0213 169.98 89.2113 169.565 89.3013 169.055C89.3913 168.535 89.4363 167.895 89.4363 167.135ZM93.1036 167.135C93.1036 165.405 93.4136 164.05 94.0336 163.07C94.6636 162.09 95.7036 161.6 97.1536 161.6C98.6036 161.6 99.6386 162.09 100.259 163.07C100.889 164.05 101.204 165.405 101.204 167.135C101.204 168.875 100.889 170.24 100.259 171.23C99.6386 172.22 98.6036 172.715 97.1536 172.715C95.7036 172.715 94.6636 172.22 94.0336 171.23C93.4136 170.24 93.1036 168.875 93.1036 167.135ZM99.1336 167.135C99.1336 166.395 99.0836 165.775 98.9836 165.275C98.8936 164.765 98.7036 164.35 98.4136 164.03C98.1336 163.71 97.7136 163.55 97.1536 163.55C96.5936 163.55 96.1686 163.71 95.8786 164.03C95.5986 164.35 95.4086 164.765 95.3086 165.275C95.2186 165.775 95.1736 166.395 95.1736 167.135C95.1736 167.895 95.2186 168.535 95.3086 169.055C95.3986 169.565 95.5886 169.98 95.8786 170.3C96.1686 170.61 96.5936 170.765 97.1536 170.765C97.7136 170.765 98.1386 170.61 98.4286 170.3C98.7186 169.98 98.9086 169.565 98.9986 169.055C99.0886 168.535 99.1336 167.895 99.1336 167.135ZM108.715 165.635C108.985 165.255 109.355 164.94 109.825 164.69C110.305 164.43 110.85 164.3 111.46 164.3C112.17 164.3 112.81 164.475 113.38 164.825C113.96 165.175 114.415 165.675 114.745 166.325C115.085 166.965 115.255 167.71 115.255 168.56C115.255 169.41 115.085 170.165 114.745 170.825C114.415 171.475 113.96 171.98 113.38 172.34C112.81 172.7 112.17 172.88 111.46 172.88C110.85 172.88 110.31 172.755 109.84 172.505C109.38 172.255 109.005 171.94 108.715 171.56V176.705H106.615V164.435H108.715V165.635ZM113.11 168.56C113.11 168.06 113.005 167.63 112.795 167.27C112.595 166.9 112.325 166.62 111.985 166.43C111.655 166.24 111.295 166.145 110.905 166.145C110.525 166.145 110.165 166.245 109.825 166.445C109.495 166.635 109.225 166.915 109.015 167.285C108.815 167.655 108.715 168.09 108.715 168.59C108.715 169.09 108.815 169.525 109.015 169.895C109.225 170.265 109.495 170.55 109.825 170.75C110.165 170.94 110.525 171.035 110.905 171.035C111.295 171.035 111.655 170.935 111.985 170.735C112.325 170.535 112.595 170.25 112.795 169.88C113.005 169.51 113.11 169.07 113.11 168.56ZM127.101 164.315C128.121 164.315 128.941 164.63 129.561 165.26C130.191 165.88 130.506 166.75 130.506 167.87V172.745H128.406V168.155C128.406 167.505 128.241 167.01 127.911 166.67C127.581 166.32 127.131 166.145 126.561 166.145C125.991 166.145 125.536 166.32 125.196 166.67C124.866 167.01 124.701 167.505 124.701 168.155V172.745H122.601V168.155C122.601 167.505 122.436 167.01 122.106 166.67C121.776 166.32 121.326 166.145 120.756 166.145C120.176 166.145 119.716 166.32 119.376 166.67C119.046 167.01 118.881 167.505 118.881 168.155V172.745H116.781V164.435H118.881V165.44C119.151 165.09 119.496 164.815 119.916 164.615C120.346 164.415 120.816 164.315 121.326 164.315C121.976 164.315 122.556 164.455 123.066 164.735C123.576 165.005 123.971 165.395 124.251 165.905C124.521 165.425 124.911 165.04 125.421 164.75C125.941 164.46 126.501 164.315 127.101 164.315ZM142.463 166.505V168.275H136.103V166.505H142.463ZM153.822 164.54C153.722 164.12 153.547 163.805 153.297 163.595C153.057 163.385 152.707 163.28 152.247 163.28C151.557 163.28 151.047 163.56 150.717 164.12C150.397 164.67 150.232 165.57 150.222 166.82C150.462 166.42 150.812 166.11 151.272 165.89C151.732 165.66 152.232 165.545 152.772 165.545C153.422 165.545 153.997 165.685 154.497 165.965C154.997 166.245 155.387 166.655 155.667 167.195C155.947 167.725 156.087 168.365 156.087 169.115C156.087 169.825 155.942 170.46 155.652 171.02C155.372 171.57 154.957 172 154.407 172.31C153.857 172.62 153.202 172.775 152.442 172.775C151.402 172.775 150.582 172.545 149.982 172.085C149.392 171.625 148.977 170.985 148.737 170.165C148.507 169.335 148.392 168.315 148.392 167.105C148.392 165.275 148.707 163.895 149.337 162.965C149.967 162.025 150.962 161.555 152.322 161.555C153.372 161.555 154.187 161.84 154.767 162.41C155.347 162.98 155.682 163.69 155.772 164.54H153.822ZM152.292 167.27C151.762 167.27 151.317 167.425 150.957 167.735C150.597 168.045 150.417 168.495 150.417 169.085C150.417 169.675 150.582 170.14 150.912 170.48C151.252 170.82 151.727 170.99 152.337 170.99C152.877 170.99 153.302 170.825 153.612 170.495C153.932 170.165 154.092 169.72 154.092 169.16C154.092 168.58 153.937 168.12 153.627 167.78C153.327 167.44 152.882 167.27 152.292 167.27ZM158.917 172.85C158.537 172.85 158.222 172.735 157.972 172.505C157.732 172.265 157.612 171.97 157.612 171.62C157.612 171.27 157.732 170.98 157.972 170.75C158.222 170.51 158.537 170.39 158.917 170.39C159.287 170.39 159.592 170.51 159.832 170.75C160.072 170.98 160.192 171.27 160.192 171.62C160.192 171.97 160.072 172.265 159.832 172.505C159.592 172.735 159.287 172.85 158.917 172.85ZM158.917 166.64C158.537 166.64 158.222 166.525 157.972 166.295C157.732 166.055 157.612 165.76 157.612 165.41C157.612 165.06 157.732 164.77 157.972 164.54C158.222 164.3 158.537 164.18 158.917 164.18C159.287 164.18 159.592 164.3 159.832 164.54C160.072 164.77 160.192 165.06 160.192 165.41C160.192 165.76 160.072 166.055 159.832 166.295C159.592 166.525 159.287 166.64 158.917 166.64ZM161.718 164.69C161.768 163.69 162.118 162.92 162.768 162.38C163.428 161.83 164.293 161.555 165.363 161.555C166.093 161.555 166.718 161.685 167.238 161.945C167.758 162.195 168.148 162.54 168.408 162.98C168.678 163.41 168.813 163.9 168.813 164.45C168.813 165.08 168.648 165.615 168.318 166.055C167.998 166.485 167.613 166.775 167.163 166.925V166.985C167.743 167.165 168.193 167.485 168.513 167.945C168.843 168.405 169.008 168.995 169.008 169.715C169.008 170.315 168.868 170.85 168.588 171.32C168.318 171.79 167.913 172.16 167.373 172.43C166.843 172.69 166.203 172.82 165.453 172.82C164.323 172.82 163.403 172.535 162.693 171.965C161.983 171.395 161.608 170.555 161.568 169.445H163.608C163.628 169.935 163.793 170.33 164.103 170.63C164.423 170.92 164.858 171.065 165.408 171.065C165.918 171.065 166.308 170.925 166.578 170.645C166.858 170.355 166.998 169.985 166.998 169.535C166.998 168.935 166.808 168.505 166.428 168.245C166.048 167.985 165.458 167.855 164.658 167.855H164.223V166.13H164.658C166.078 166.13 166.788 165.655 166.788 164.705C166.788 164.275 166.658 163.94 166.398 163.7C166.148 163.46 165.783 163.34 165.303 163.34C164.833 163.34 164.468 163.47 164.208 163.73C163.958 163.98 163.813 164.3 163.773 164.69H161.718ZM170.667 167.135C170.667 165.405 170.977 164.05 171.597 163.07C172.227 162.09 173.267 161.6 174.717 161.6C176.167 161.6 177.202 162.09 177.822 163.07C178.452 164.05 178.767 165.405 178.767 167.135C178.767 168.875 178.452 170.24 177.822 171.23C177.202 172.22 176.167 172.715 174.717 172.715C173.267 172.715 172.227 172.22 171.597 171.23C170.977 170.24 170.667 168.875 170.667 167.135ZM176.697 167.135C176.697 166.395 176.647 165.775 176.547 165.275C176.457 164.765 176.267 164.35 175.977 164.03C175.697 163.71 175.277 163.55 174.717 163.55C174.157 163.55 173.732 163.71 173.442 164.03C173.162 164.35 172.972 164.765 172.872 165.275C172.782 165.775 172.737 166.395 172.737 167.135C172.737 167.895 172.782 168.535 172.872 169.055C172.962 169.565 173.152 169.98 173.442 170.3C173.732 170.61 174.157 170.765 174.717 170.765C175.277 170.765 175.702 170.61 175.992 170.3C176.282 169.98 176.472 169.565 176.562 169.055C176.652 168.535 176.697 167.895 176.697 167.135ZM186.279 165.635C186.549 165.255 186.919 164.94 187.389 164.69C187.869 164.43 188.414 164.3 189.024 164.3C189.734 164.3 190.374 164.475 190.944 164.825C191.524 165.175 191.979 165.675 192.309 166.325C192.649 166.965 192.819 167.71 192.819 168.56C192.819 169.41 192.649 170.165 192.309 170.825C191.979 171.475 191.524 171.98 190.944 172.34C190.374 172.7 189.734 172.88 189.024 172.88C188.414 172.88 187.874 172.755 187.404 172.505C186.944 172.255 186.569 171.94 186.279 171.56V176.705H184.179V164.435H186.279V165.635ZM190.674 168.56C190.674 168.06 190.569 167.63 190.359 167.27C190.159 166.9 189.889 166.62 189.549 166.43C189.219 166.24 188.859 166.145 188.469 166.145C188.089 166.145 187.729 166.245 187.389 166.445C187.059 166.635 186.789 166.915 186.579 167.285C186.379 167.655 186.279 168.09 186.279 168.59C186.279 169.09 186.379 169.525 186.579 169.895C186.789 170.265 187.059 170.55 187.389 170.75C187.729 170.94 188.089 171.035 188.469 171.035C188.859 171.035 189.219 170.935 189.549 170.735C189.889 170.535 190.159 170.25 190.359 169.88C190.569 169.51 190.674 169.07 190.674 168.56ZM204.665 164.315C205.685 164.315 206.505 164.63 207.125 165.26C207.755 165.88 208.07 166.75 208.07 167.87V172.745H205.97V168.155C205.97 167.505 205.805 167.01 205.475 166.67C205.145 166.32 204.695 166.145 204.125 166.145C203.555 166.145 203.1 166.32 202.76 166.67C202.43 167.01 202.265 167.505 202.265 168.155V172.745H200.165V168.155C200.165 167.505 200 167.01 199.67 166.67C199.34 166.32 198.89 166.145 198.32 166.145C197.74 166.145 197.28 166.32 196.94 166.67C196.61 167.01 196.445 167.505 196.445 168.155V172.745H194.345V164.435H196.445V165.44C196.715 165.09 197.06 164.815 197.48 164.615C197.91 164.415 198.38 164.315 198.89 164.315C199.54 164.315 200.12 164.455 200.63 164.735C201.14 165.005 201.535 165.395 201.815 165.905C202.085 165.425 202.475 165.04 202.985 164.75C203.505 164.46 204.065 164.315 204.665 164.315Z" fill="white"/>
<path d="M84.2496 235.42V238.584H79.0416V254.964H75.1216V238.584H69.9136V235.42H84.2496ZM91.0297 241.86C91.5337 241.038 92.1871 240.394 92.9897 239.928C93.8111 239.461 94.7444 239.228 95.7897 239.228V243.344H94.7537C93.5217 243.344 92.5884 243.633 91.9537 244.212C91.3377 244.79 91.0297 245.798 91.0297 247.236V254.964H87.1097V239.452H91.0297V241.86ZM112.85 246.872C112.85 247.432 112.813 247.936 112.738 248.384H101.398C101.491 249.504 101.883 250.381 102.574 251.016C103.265 251.65 104.114 251.968 105.122 251.968C106.578 251.968 107.614 251.342 108.23 250.092H112.458C112.01 251.585 111.151 252.817 109.882 253.788C108.613 254.74 107.054 255.216 105.206 255.216C103.713 255.216 102.369 254.889 101.174 254.236C99.998 253.564 99.074 252.621 98.402 251.408C97.7487 250.194 97.422 248.794 97.422 247.208C97.422 245.602 97.7487 244.193 98.402 242.98C99.0554 241.766 99.97 240.833 101.146 240.18C102.322 239.526 103.675 239.2 105.206 239.2C106.681 239.2 107.997 239.517 109.154 240.152C110.33 240.786 111.235 241.692 111.87 242.868C112.523 244.025 112.85 245.36 112.85 246.872ZM108.79 245.752C108.771 244.744 108.407 243.941 107.698 243.344C106.989 242.728 106.121 242.42 105.094 242.42C104.123 242.42 103.302 242.718 102.63 243.316C101.977 243.894 101.575 244.706 101.426 245.752H108.79ZM114.703 247.152C114.703 245.584 115.011 244.193 115.627 242.98C116.262 241.766 117.111 240.833 118.175 240.18C119.258 239.526 120.462 239.2 121.787 239.2C122.945 239.2 123.953 239.433 124.811 239.9C125.689 240.366 126.389 240.954 126.911 241.664V239.452H130.859V254.964H126.911V252.696C126.407 253.424 125.707 254.03 124.811 254.516C123.934 254.982 122.917 255.216 121.759 255.216C120.453 255.216 119.258 254.88 118.175 254.208C117.111 253.536 116.262 252.593 115.627 251.38C115.011 250.148 114.703 248.738 114.703 247.152ZM126.911 247.208C126.911 246.256 126.725 245.444 126.351 244.772C125.978 244.081 125.474 243.558 124.839 243.204C124.205 242.83 123.523 242.644 122.795 242.644C122.067 242.644 121.395 242.821 120.779 243.176C120.163 243.53 119.659 244.053 119.267 244.744C118.894 245.416 118.707 246.218 118.707 247.152C118.707 248.085 118.894 248.906 119.267 249.616C119.659 250.306 120.163 250.838 120.779 251.212C121.414 251.585 122.086 251.772 122.795 251.772C123.523 251.772 124.205 251.594 124.839 251.24C125.474 250.866 125.978 250.344 126.351 249.672C126.725 248.981 126.911 248.16 126.911 247.208ZM140.624 255.216C139.355 255.216 138.216 254.992 137.208 254.544C136.2 254.077 135.397 253.452 134.8 252.668C134.221 251.884 133.904 251.016 133.848 250.064H137.796C137.871 250.661 138.16 251.156 138.664 251.548C139.187 251.94 139.831 252.136 140.596 252.136C141.343 252.136 141.921 251.986 142.332 251.688C142.761 251.389 142.976 251.006 142.976 250.54C142.976 250.036 142.715 249.662 142.192 249.42C141.688 249.158 140.876 248.878 139.756 248.58C138.599 248.3 137.647 248.01 136.9 247.712C136.172 247.413 135.537 246.956 134.996 246.34C134.473 245.724 134.212 244.893 134.212 243.848C134.212 242.989 134.455 242.205 134.94 241.496C135.444 240.786 136.153 240.226 137.068 239.816C138.001 239.405 139.093 239.2 140.344 239.2C142.192 239.2 143.667 239.666 144.768 240.6C145.869 241.514 146.476 242.756 146.588 244.324H142.836C142.78 243.708 142.519 243.222 142.052 242.868C141.604 242.494 140.997 242.308 140.232 242.308C139.523 242.308 138.972 242.438 138.58 242.7C138.207 242.961 138.02 243.325 138.02 243.792C138.02 244.314 138.281 244.716 138.804 244.996C139.327 245.257 140.139 245.528 141.24 245.808C142.36 246.088 143.284 246.377 144.012 246.676C144.74 246.974 145.365 247.441 145.888 248.076C146.429 248.692 146.709 249.513 146.728 250.54C146.728 251.436 146.476 252.238 145.972 252.948C145.487 253.657 144.777 254.217 143.844 254.628C142.929 255.02 141.856 255.216 140.624 255.216ZM164.59 239.452V254.964H160.642V253.004C160.138 253.676 159.475 254.208 158.654 254.6C157.851 254.973 156.974 255.16 156.022 255.16C154.808 255.16 153.735 254.908 152.802 254.404C151.868 253.881 151.131 253.125 150.59 252.136C150.067 251.128 149.806 249.933 149.806 248.552V239.452H153.726V247.992C153.726 249.224 154.034 250.176 154.65 250.848C155.266 251.501 156.106 251.828 157.17 251.828C158.252 251.828 159.102 251.501 159.718 250.848C160.334 250.176 160.642 249.224 160.642 247.992V239.452H164.59ZM172.377 241.86C172.881 241.038 173.535 240.394 174.337 239.928C175.159 239.461 176.092 239.228 177.137 239.228V243.344H176.101C174.869 243.344 173.936 243.633 173.301 244.212C172.685 244.79 172.377 245.798 172.377 247.236V254.964H168.457V239.452H172.377V241.86ZM194.198 246.872C194.198 247.432 194.16 247.936 194.086 248.384H182.746C182.839 249.504 183.231 250.381 183.922 251.016C184.612 251.65 185.462 251.968 186.47 251.968C187.926 251.968 188.962 251.342 189.578 250.092H193.806C193.358 251.585 192.499 252.817 191.23 253.788C189.96 254.74 188.402 255.216 186.554 255.216C185.06 255.216 183.716 254.889 182.522 254.236C181.346 253.564 180.422 252.621 179.75 251.408C179.096 250.194 178.77 248.794 178.77 247.208C178.77 245.602 179.096 244.193 179.75 242.98C180.403 241.766 181.318 240.833 182.494 240.18C183.67 239.526 185.023 239.2 186.554 239.2C188.028 239.2 189.344 239.517 190.502 240.152C191.678 240.786 192.583 241.692 193.218 242.868C193.871 244.025 194.198 245.36 194.198 246.872ZM190.138 245.752C190.119 244.744 189.755 243.941 189.046 243.344C188.336 242.728 187.468 242.42 186.442 242.42C185.471 242.42 184.65 242.718 183.978 243.316C183.324 243.894 182.923 244.706 182.774 245.752H190.138ZM212.467 239.228C213.643 239.228 214.688 239.489 215.603 240.012C216.517 240.516 217.227 241.272 217.731 242.28C218.253 243.269 218.515 244.464 218.515 245.864V254.964H214.595V246.396C214.595 245.164 214.287 244.221 213.671 243.568C213.055 242.896 212.215 242.56 211.151 242.56C210.068 242.56 209.209 242.896 208.575 243.568C207.959 244.221 207.651 245.164 207.651 246.396V254.964H203.731V234.244H207.651V241.384C208.155 240.712 208.827 240.189 209.667 239.816C210.507 239.424 211.44 239.228 212.467 239.228ZM236.887 239.452V254.964H232.939V253.004C232.435 253.676 231.772 254.208 230.951 254.6C230.148 254.973 229.271 255.16 228.319 255.16C227.105 255.16 226.032 254.908 225.099 254.404C224.165 253.881 223.428 253.125 222.887 252.136C222.364 251.128 222.103 249.933 222.103 248.552V239.452H226.023V247.992C226.023 249.224 226.331 250.176 226.947 250.848C227.563 251.501 228.403 251.828 229.467 251.828C230.549 251.828 231.399 251.501 232.015 250.848C232.631 250.176 232.939 249.224 232.939 247.992V239.452H236.887ZM249.35 239.228C251.198 239.228 252.692 239.816 253.83 240.992C254.969 242.149 255.538 243.773 255.538 245.864V254.964H251.618V246.396C251.618 245.164 251.31 244.221 250.694 243.568C250.078 242.896 249.238 242.56 248.174 242.56C247.092 242.56 246.233 242.896 245.598 243.568C244.982 244.221 244.674 245.164 244.674 246.396V254.964H240.754V239.452H244.674V241.384C245.197 240.712 245.86 240.189 246.662 239.816C247.484 239.424 248.38 239.228 249.35 239.228ZM263.83 242.672V250.176C263.83 250.698 263.951 251.081 264.194 251.324C264.455 251.548 264.885 251.66 265.482 251.66H267.302V254.964H264.838C261.534 254.964 259.882 253.358 259.882 250.148V242.672H258.034V239.452H259.882V235.616H263.83V239.452H267.302V242.672H263.83Z" fill="white"/>
<path d="M72.7531 217.671V226.745H70.9331V217.671H72.7531ZM74.0833 223.144C74.0833 222.399 74.235 221.749 74.5383 221.194C74.8416 220.631 75.262 220.198 75.7993 219.894C76.3366 219.582 76.952 219.426 77.6453 219.426C78.538 219.426 79.2746 219.652 79.8553 220.102C80.4446 220.544 80.839 221.168 81.0383 221.974H79.0753C78.9713 221.662 78.7936 221.42 78.5423 221.246C78.2996 221.064 77.9963 220.973 77.6323 220.973C77.1123 220.973 76.7006 221.164 76.3973 221.545C76.094 221.918 75.9423 222.451 75.9423 223.144C75.9423 223.829 76.094 224.362 76.3973 224.743C76.7006 225.116 77.1123 225.302 77.6323 225.302C78.369 225.302 78.85 224.973 79.0753 224.314H81.0383C80.839 225.094 80.4446 225.714 79.8553 226.173C79.266 226.633 78.5293 226.862 77.6453 226.862C76.952 226.862 76.3366 226.711 75.7993 226.407C75.262 226.095 74.8416 225.662 74.5383 225.107C74.235 224.544 74.0833 223.89 74.0833 223.144ZM89.0666 222.988C89.0666 223.248 89.0493 223.482 89.0146 223.69H83.7496C83.7929 224.21 83.9749 224.618 84.2956 224.912C84.6163 225.207 85.0106 225.354 85.4786 225.354C86.1546 225.354 86.6356 225.064 86.9216 224.483H88.8846C88.6766 225.177 88.2779 225.749 87.6886 226.199C87.0993 226.641 86.3756 226.862 85.5176 226.862C84.8243 226.862 84.2003 226.711 83.6456 226.407C83.0996 226.095 82.6706 225.658 82.3586 225.094C82.0553 224.531 81.9036 223.881 81.9036 223.144C81.9036 222.399 82.0553 221.745 82.3586 221.181C82.6619 220.618 83.0866 220.185 83.6326 219.881C84.1786 219.578 84.8069 219.426 85.5176 219.426C86.2023 219.426 86.8133 219.574 87.3506 219.868C87.8966 220.163 88.3169 220.583 88.6116 221.129C88.9149 221.667 89.0666 222.286 89.0666 222.988ZM87.1816 222.468C87.1729 222 87.0039 221.628 86.6746 221.35C86.3453 221.064 85.9423 220.921 85.4656 220.921C85.0149 220.921 84.6336 221.06 84.3216 221.337C84.0183 221.606 83.8319 221.983 83.7626 222.468H87.1816ZM95.3127 220.596C95.5467 220.25 95.8674 219.968 96.2747 219.751C96.6907 219.535 97.163 219.426 97.6917 219.426C98.307 219.426 98.8617 219.578 99.3557 219.881C99.8584 220.185 100.253 220.618 100.539 221.181C100.833 221.736 100.981 222.382 100.981 223.118C100.981 223.855 100.833 224.509 100.539 225.081C100.253 225.645 99.8584 226.082 99.3557 226.394C98.8617 226.706 98.307 226.862 97.6917 226.862C97.1544 226.862 96.682 226.758 96.2747 226.55C95.876 226.334 95.5554 226.056 95.3127 225.718V226.745H93.4927V217.125H95.3127V220.596ZM99.1217 223.118C99.1217 222.685 99.0307 222.312 98.8487 222C98.6754 221.68 98.4414 221.437 98.1467 221.272C97.8607 221.108 97.5487 221.025 97.2107 221.025C96.8814 221.025 96.5694 221.112 96.2747 221.285C95.9887 221.45 95.7547 221.693 95.5727 222.013C95.3994 222.334 95.3127 222.711 95.3127 223.144C95.3127 223.578 95.3994 223.955 95.5727 224.275C95.7547 224.596 95.9887 224.843 96.2747 225.016C96.5694 225.181 96.8814 225.263 97.2107 225.263C97.5487 225.263 97.8607 225.177 98.1467 225.003C98.4414 224.83 98.6754 224.583 98.8487 224.262C99.0307 223.942 99.1217 223.56 99.1217 223.118ZM104.123 220.661C104.357 220.28 104.661 219.981 105.033 219.764C105.415 219.548 105.848 219.439 106.333 219.439V221.35H105.852C105.28 221.35 104.847 221.485 104.552 221.753C104.266 222.022 104.123 222.49 104.123 223.157V226.745H102.303V219.543H104.123V220.661ZM114.254 222.988C114.254 223.248 114.237 223.482 114.202 223.69H108.937C108.98 224.21 109.162 224.618 109.483 224.912C109.804 225.207 110.198 225.354 110.666 225.354C111.342 225.354 111.823 225.064 112.109 224.483H114.072C113.864 225.177 113.465 225.749 112.876 226.199C112.287 226.641 111.563 226.862 110.705 226.862C110.012 226.862 109.388 226.711 108.833 226.407C108.287 226.095 107.858 225.658 107.546 225.094C107.243 224.531 107.091 223.881 107.091 223.144C107.091 222.399 107.243 221.745 107.546 221.181C107.849 220.618 108.274 220.185 108.82 219.881C109.366 219.578 109.994 219.426 110.705 219.426C111.39 219.426 112.001 219.574 112.538 219.868C113.084 220.163 113.504 220.583 113.799 221.129C114.102 221.667 114.254 222.286 114.254 222.988ZM112.369 222.468C112.36 222 112.191 221.628 111.862 221.35C111.533 221.064 111.13 220.921 110.653 220.921C110.202 220.921 109.821 221.06 109.509 221.337C109.206 221.606 109.019 221.983 108.95 222.468H112.369ZM115.115 223.118C115.115 222.39 115.258 221.745 115.544 221.181C115.838 220.618 116.233 220.185 116.727 219.881C117.229 219.578 117.788 219.426 118.404 219.426C118.941 219.426 119.409 219.535 119.808 219.751C120.215 219.968 120.54 220.241 120.783 220.57V219.543H122.616V226.745H120.783V225.692C120.549 226.03 120.224 226.312 119.808 226.537C119.4 226.754 118.928 226.862 118.391 226.862C117.784 226.862 117.229 226.706 116.727 226.394C116.233 226.082 115.838 225.645 115.544 225.081C115.258 224.509 115.115 223.855 115.115 223.118ZM120.783 223.144C120.783 222.702 120.696 222.325 120.523 222.013C120.349 221.693 120.115 221.45 119.821 221.285C119.526 221.112 119.21 221.025 118.872 221.025C118.534 221.025 118.222 221.108 117.936 221.272C117.65 221.437 117.416 221.68 117.234 222C117.06 222.312 116.974 222.685 116.974 223.118C116.974 223.552 117.06 223.933 117.234 224.262C117.416 224.583 117.65 224.83 117.936 225.003C118.23 225.177 118.542 225.263 118.872 225.263C119.21 225.263 119.526 225.181 119.821 225.016C120.115 224.843 120.349 224.6 120.523 224.288C120.696 223.968 120.783 223.586 120.783 223.144ZM128.657 226.745L126.213 223.677V226.745H124.393V217.125H126.213V222.598L128.631 219.543H130.997L127.825 223.157L131.023 226.745H128.657ZM132.908 218.685C132.587 218.685 132.319 218.586 132.102 218.386C131.894 218.178 131.79 217.923 131.79 217.619C131.79 217.316 131.894 217.065 132.102 216.865C132.319 216.657 132.587 216.553 132.908 216.553C133.229 216.553 133.493 216.657 133.701 216.865C133.918 217.065 134.026 217.316 134.026 217.619C134.026 217.923 133.918 218.178 133.701 218.386C133.493 218.586 133.229 218.685 132.908 218.685ZM133.805 219.543V226.745H131.985V219.543H133.805ZM139.594 219.439C140.452 219.439 141.145 219.712 141.674 220.258C142.203 220.796 142.467 221.55 142.467 222.52V226.745H140.647V222.767C140.647 222.195 140.504 221.758 140.218 221.454C139.932 221.142 139.542 220.986 139.048 220.986C138.545 220.986 138.147 221.142 137.852 221.454C137.566 221.758 137.423 222.195 137.423 222.767V226.745H135.603V219.543H137.423V220.44C137.666 220.128 137.973 219.886 138.346 219.712C138.727 219.53 139.143 219.439 139.594 219.439ZM147.019 219.426C147.556 219.426 148.028 219.535 148.436 219.751C148.843 219.959 149.164 220.232 149.398 220.57V219.543H151.231V226.797C151.231 227.465 151.096 228.058 150.828 228.578C150.559 229.107 150.156 229.523 149.619 229.826C149.081 230.138 148.431 230.294 147.669 230.294C146.646 230.294 145.805 230.056 145.147 229.579C144.497 229.103 144.128 228.453 144.042 227.629H145.849C145.944 227.959 146.148 228.219 146.46 228.409C146.78 228.609 147.166 228.708 147.617 228.708C148.145 228.708 148.574 228.548 148.904 228.227C149.233 227.915 149.398 227.439 149.398 226.797V225.679C149.164 226.017 148.839 226.299 148.423 226.524C148.015 226.75 147.547 226.862 147.019 226.862C146.412 226.862 145.857 226.706 145.355 226.394C144.852 226.082 144.453 225.645 144.159 225.081C143.873 224.509 143.73 223.855 143.73 223.118C143.73 222.39 143.873 221.745 144.159 221.181C144.453 220.618 144.848 220.185 145.342 219.881C145.844 219.578 146.403 219.426 147.019 219.426ZM149.398 223.144C149.398 222.702 149.311 222.325 149.138 222.013C148.964 221.693 148.73 221.45 148.436 221.285C148.141 221.112 147.825 221.025 147.487 221.025C147.149 221.025 146.837 221.108 146.551 221.272C146.265 221.437 146.031 221.68 145.849 222C145.675 222.312 145.589 222.685 145.589 223.118C145.589 223.552 145.675 223.933 145.849 224.262C146.031 224.583 146.265 224.83 146.551 225.003C146.845 225.177 147.157 225.263 147.487 225.263C147.825 225.263 148.141 225.181 148.436 225.016C148.73 224.843 148.964 224.6 149.138 224.288C149.311 223.968 149.398 223.586 149.398 223.144Z" fill="white"/>
<path d="M76.7726 268.273L72.7826 277.618H70.6526L74.6726 268.513H69.5426V266.713H76.7726V268.273ZM79.2004 277.723C78.8204 277.723 78.5054 277.608 78.2554 277.378C78.0154 277.138 77.8954 276.843 77.8954 276.493C77.8954 276.143 78.0154 275.853 78.2554 275.623C78.5054 275.383 78.8204 275.263 79.2004 275.263C79.5704 275.263 79.8754 275.383 80.1154 275.623C80.3554 275.853 80.4754 276.143 80.4754 276.493C80.4754 276.843 80.3554 277.138 80.1154 277.378C79.8754 277.608 79.5704 277.723 79.2004 277.723ZM79.2004 271.513C78.8204 271.513 78.5054 271.398 78.2554 271.168C78.0154 270.928 77.8954 270.633 77.8954 270.283C77.8954 269.933 78.0154 269.643 78.2554 269.413C78.5054 269.173 78.8204 269.053 79.2004 269.053C79.5704 269.053 79.8754 269.173 80.1154 269.413C80.3554 269.643 80.4754 269.933 80.4754 270.283C80.4754 270.633 80.3554 270.928 80.1154 271.168C79.8754 271.398 79.5704 271.513 79.2004 271.513ZM81.9708 272.008C81.9708 270.278 82.2808 268.923 82.9008 267.943C83.5308 266.963 84.5708 266.473 86.0208 266.473C87.4708 266.473 88.5058 266.963 89.1258 267.943C89.7558 268.923 90.0708 270.278 90.0708 272.008C90.0708 273.748 89.7558 275.113 89.1258 276.103C88.5058 277.093 87.4708 277.588 86.0208 277.588C84.5708 277.588 83.5308 277.093 82.9008 276.103C82.2808 275.113 81.9708 273.748 81.9708 272.008ZM88.0008 272.008C88.0008 271.268 87.9508 270.648 87.8508 270.148C87.7608 269.638 87.5708 269.223 87.2808 268.903C87.0008 268.583 86.5808 268.423 86.0208 268.423C85.4608 268.423 85.0358 268.583 84.7458 268.903C84.4658 269.223 84.2758 269.638 84.1758 270.148C84.0858 270.648 84.0408 271.268 84.0408 272.008C84.0408 272.768 84.0858 273.408 84.1758 273.928C84.2658 274.438 84.4558 274.853 84.7458 275.173C85.0358 275.483 85.4608 275.638 86.0208 275.638C86.5808 275.638 87.0058 275.483 87.2958 275.173C87.5858 274.853 87.7758 274.438 87.8658 273.928C87.9558 273.408 88.0008 272.768 88.0008 272.008ZM91.668 272.008C91.668 270.278 91.978 268.923 92.598 267.943C93.228 266.963 94.268 266.473 95.718 266.473C97.168 266.473 98.203 266.963 98.823 267.943C99.453 268.923 99.768 270.278 99.768 272.008C99.768 273.748 99.453 275.113 98.823 276.103C98.203 277.093 97.168 277.588 95.718 277.588C94.268 277.588 93.228 277.093 92.598 276.103C91.978 275.113 91.668 273.748 91.668 272.008ZM97.698 272.008C97.698 271.268 97.648 270.648 97.548 270.148C97.458 269.638 97.268 269.223 96.978 268.903C96.698 268.583 96.278 268.423 95.718 268.423C95.158 268.423 94.733 268.583 94.443 268.903C94.163 269.223 93.973 269.638 93.873 270.148C93.783 270.648 93.738 271.268 93.738 272.008C93.738 272.768 93.783 273.408 93.873 273.928C93.963 274.438 94.153 274.853 94.443 275.173C94.733 275.483 95.158 275.638 95.718 275.638C96.278 275.638 96.703 275.483 96.993 275.173C97.283 274.853 97.473 274.438 97.563 273.928C97.653 273.408 97.698 272.768 97.698 272.008ZM107.28 270.508C107.55 270.128 107.92 269.813 108.39 269.563C108.87 269.303 109.415 269.173 110.025 269.173C110.735 269.173 111.375 269.348 111.945 269.698C112.525 270.048 112.98 270.548 113.31 271.198C113.65 271.838 113.82 272.583 113.82 273.433C113.82 274.283 113.65 275.038 113.31 275.698C112.98 276.348 112.525 276.853 111.945 277.213C111.375 277.573 110.735 277.753 110.025 277.753C109.415 277.753 108.875 277.628 108.405 277.378C107.945 277.128 107.57 276.813 107.28 276.433V281.578H105.18V269.308H107.28V270.508ZM111.675 273.433C111.675 272.933 111.57 272.503 111.36 272.143C111.16 271.773 110.89 271.493 110.55 271.303C110.22 271.113 109.86 271.018 109.47 271.018C109.09 271.018 108.73 271.118 108.39 271.318C108.06 271.508 107.79 271.788 107.58 272.158C107.38 272.528 107.28 272.963 107.28 273.463C107.28 273.963 107.38 274.398 107.58 274.768C107.79 275.138 108.06 275.423 108.39 275.623C108.73 275.813 109.09 275.908 109.47 275.908C109.86 275.908 110.22 275.808 110.55 275.608C110.89 275.408 111.16 275.123 111.36 274.753C111.57 274.383 111.675 273.943 111.675 273.433ZM125.666 269.188C126.686 269.188 127.506 269.503 128.126 270.133C128.756 270.753 129.071 271.623 129.071 272.743V277.618H126.971V273.028C126.971 272.378 126.806 271.883 126.476 271.543C126.146 271.193 125.696 271.018 125.126 271.018C124.556 271.018 124.101 271.193 123.761 271.543C123.431 271.883 123.266 272.378 123.266 273.028V277.618H121.166V273.028C121.166 272.378 121.001 271.883 120.671 271.543C120.341 271.193 119.891 271.018 119.321 271.018C118.741 271.018 118.281 271.193 117.941 271.543C117.611 271.883 117.446 272.378 117.446 273.028V277.618H115.346V269.308H117.446V270.313C117.716 269.963 118.061 269.688 118.481 269.488C118.911 269.288 119.381 269.188 119.891 269.188C120.541 269.188 121.121 269.328 121.631 269.608C122.141 269.878 122.536 270.268 122.816 270.778C123.086 270.298 123.476 269.913 123.986 269.623C124.506 269.333 125.066 269.188 125.666 269.188ZM141.028 271.378V273.148H134.668V271.378H141.028ZM148.547 271.828C147.547 271.308 147.047 270.503 147.047 269.413C147.047 268.873 147.182 268.383 147.452 267.943C147.732 267.493 148.147 267.138 148.697 266.878C149.257 266.608 149.937 266.473 150.737 266.473C151.537 266.473 152.212 266.608 152.762 266.878C153.322 267.138 153.737 267.493 154.007 267.943C154.287 268.383 154.427 268.873 154.427 269.413C154.427 269.963 154.292 270.448 154.022 270.868C153.752 271.278 153.392 271.598 152.942 271.828C153.492 272.068 153.922 272.418 154.232 272.878C154.542 273.338 154.697 273.883 154.697 274.513C154.697 275.193 154.522 275.788 154.172 276.298C153.832 276.798 153.362 277.183 152.762 277.453C152.162 277.723 151.487 277.858 150.737 277.858C149.987 277.858 149.312 277.723 148.712 277.453C148.122 277.183 147.652 276.798 147.302 276.298C146.962 275.788 146.792 275.193 146.792 274.513C146.792 273.883 146.947 273.338 147.257 272.878C147.567 272.408 147.997 272.058 148.547 271.828ZM152.387 269.713C152.387 269.223 152.237 268.843 151.937 268.573C151.647 268.303 151.247 268.168 150.737 268.168C150.237 268.168 149.837 268.303 149.537 268.573C149.247 268.843 149.102 269.228 149.102 269.728C149.102 270.178 149.252 270.538 149.552 270.808C149.862 271.078 150.257 271.213 150.737 271.213C151.217 271.213 151.612 271.078 151.922 270.808C152.232 270.528 152.387 270.163 152.387 269.713ZM150.737 272.743C150.167 272.743 149.702 272.888 149.342 273.178C148.992 273.468 148.817 273.883 148.817 274.423C148.817 274.923 148.987 275.333 149.327 275.653C149.677 275.963 150.147 276.118 150.737 276.118C151.327 276.118 151.792 275.958 152.132 275.638C152.472 275.318 152.642 274.913 152.642 274.423C152.642 273.893 152.467 273.483 152.117 273.193C151.767 272.893 151.307 272.743 150.737 272.743ZM157.526 277.723C157.146 277.723 156.831 277.608 156.581 277.378C156.341 277.138 156.221 276.843 156.221 276.493C156.221 276.143 156.341 275.853 156.581 275.623C156.831 275.383 157.146 275.263 157.526 275.263C157.896 275.263 158.201 275.383 158.441 275.623C158.681 275.853 158.801 276.143 158.801 276.493C158.801 276.843 158.681 277.138 158.441 277.378C158.201 277.608 157.896 277.723 157.526 277.723ZM157.526 271.513C157.146 271.513 156.831 271.398 156.581 271.168C156.341 270.928 156.221 270.633 156.221 270.283C156.221 269.933 156.341 269.643 156.581 269.413C156.831 269.173 157.146 269.053 157.526 269.053C157.896 269.053 158.201 269.173 158.441 269.413C158.681 269.643 158.801 269.933 158.801 270.283C158.801 270.633 158.681 270.928 158.441 271.168C158.201 271.398 157.896 271.513 157.526 271.513ZM160.326 269.563C160.376 268.563 160.726 267.793 161.376 267.253C162.036 266.703 162.901 266.428 163.971 266.428C164.701 266.428 165.326 266.558 165.846 266.818C166.366 267.068 166.756 267.413 167.016 267.853C167.286 268.283 167.421 268.773 167.421 269.323C167.421 269.953 167.256 270.488 166.926 270.928C166.606 271.358 166.221 271.648 165.771 271.798V271.858C166.351 272.038 166.801 272.358 167.121 272.818C167.451 273.278 167.616 273.868 167.616 274.588C167.616 275.188 167.476 275.723 167.196 276.193C166.926 276.663 166.521 277.033 165.981 277.303C165.451 277.563 164.811 277.693 164.061 277.693C162.931 277.693 162.011 277.408 161.301 276.838C160.591 276.268 160.216 275.428 160.176 274.318H162.216C162.236 274.808 162.401 275.203 162.711 275.503C163.031 275.793 163.466 275.938 164.016 275.938C164.526 275.938 164.916 275.798 165.186 275.518C165.466 275.228 165.606 274.858 165.606 274.408C165.606 273.808 165.416 273.378 165.036 273.118C164.656 272.858 164.066 272.728 163.266 272.728H162.831V271.003H163.266C164.686 271.003 165.396 270.528 165.396 269.578C165.396 269.148 165.266 268.813 165.006 268.573C164.756 268.333 164.391 268.213 163.911 268.213C163.441 268.213 163.076 268.343 162.816 268.603C162.566 268.853 162.421 269.173 162.381 269.563H160.326ZM169.275 272.008C169.275 270.278 169.585 268.923 170.205 267.943C170.835 266.963 171.875 266.473 173.325 266.473C174.775 266.473 175.81 266.963 176.43 267.943C177.06 268.923 177.375 270.278 177.375 272.008C177.375 273.748 177.06 275.113 176.43 276.103C175.81 277.093 174.775 277.588 173.325 277.588C171.875 277.588 170.835 277.093 170.205 276.103C169.585 275.113 169.275 273.748 169.275 272.008ZM175.305 272.008C175.305 271.268 175.255 270.648 175.155 270.148C175.065 269.638 174.875 269.223 174.585 268.903C174.305 268.583 173.885 268.423 173.325 268.423C172.765 268.423 172.34 268.583 172.05 268.903C171.77 269.223 171.58 269.638 171.48 270.148C171.39 270.648 171.345 271.268 171.345 272.008C171.345 272.768 171.39 273.408 171.48 273.928C171.57 274.438 171.76 274.853 172.05 275.173C172.34 275.483 172.765 275.638 173.325 275.638C173.885 275.638 174.31 275.483 174.6 275.173C174.89 274.853 175.08 274.438 175.17 273.928C175.26 273.408 175.305 272.768 175.305 272.008ZM184.887 270.508C185.157 270.128 185.527 269.813 185.997 269.563C186.477 269.303 187.022 269.173 187.632 269.173C188.342 269.173 188.982 269.348 189.552 269.698C190.132 270.048 190.587 270.548 190.917 271.198C191.257 271.838 191.427 272.583 191.427 273.433C191.427 274.283 191.257 275.038 190.917 275.698C190.587 276.348 190.132 276.853 189.552 277.213C188.982 277.573 188.342 277.753 187.632 277.753C187.022 277.753 186.482 277.628 186.012 277.378C185.552 277.128 185.177 276.813 184.887 276.433V281.578H182.787V269.308H184.887V270.508ZM189.282 273.433C189.282 272.933 189.177 272.503 188.967 272.143C188.767 271.773 188.497 271.493 188.157 271.303C187.827 271.113 187.467 271.018 187.077 271.018C186.697 271.018 186.337 271.118 185.997 271.318C185.667 271.508 185.397 271.788 185.187 272.158C184.987 272.528 184.887 272.963 184.887 273.463C184.887 273.963 184.987 274.398 185.187 274.768C185.397 275.138 185.667 275.423 185.997 275.623C186.337 275.813 186.697 275.908 187.077 275.908C187.467 275.908 187.827 275.808 188.157 275.608C188.497 275.408 188.767 275.123 188.967 274.753C189.177 274.383 189.282 273.943 189.282 273.433ZM203.273 269.188C204.293 269.188 205.113 269.503 205.733 270.133C206.363 270.753 206.678 271.623 206.678 272.743V277.618H204.578V273.028C204.578 272.378 204.413 271.883 204.083 271.543C203.753 271.193 203.303 271.018 202.733 271.018C202.163 271.018 201.708 271.193 201.368 271.543C201.038 271.883 200.873 272.378 200.873 273.028V277.618H198.773V273.028C198.773 272.378 198.608 271.883 198.278 271.543C197.948 271.193 197.498 271.018 196.928 271.018C196.348 271.018 195.888 271.193 195.548 271.543C195.218 271.883 195.053 272.378 195.053 273.028V277.618H192.953V269.308H195.053V270.313C195.323 269.963 195.668 269.688 196.088 269.488C196.518 269.288 196.988 269.188 197.498 269.188C198.148 269.188 198.728 269.328 199.238 269.608C199.748 269.878 200.143 270.268 200.423 270.778C200.693 270.298 201.083 269.913 201.593 269.623C202.113 269.333 202.673 269.188 203.273 269.188Z" fill="white"/>
<path d="M91.24 327.056V346.6H87.32V333.888L82.084 346.6H79.116L73.852 333.888V346.6H69.932V327.056H74.384L80.6 341.588L86.816 327.056H91.24ZM94.1076 338.788C94.1076 337.22 94.4156 335.829 95.0316 334.616C95.6663 333.403 96.5156 332.469 97.5796 331.816C98.6623 331.163 99.8663 330.836 101.192 330.836C102.349 330.836 103.357 331.069 104.216 331.536C105.093 332.003 105.793 332.591 106.316 333.3V331.088H110.264V346.6H106.316V344.332C105.812 345.06 105.112 345.667 104.216 346.152C103.338 346.619 102.321 346.852 101.164 346.852C99.8569 346.852 98.6623 346.516 97.5796 345.844C96.5156 345.172 95.6663 344.229 95.0316 343.016C94.4156 341.784 94.1076 340.375 94.1076 338.788ZM106.316 338.844C106.316 337.892 106.129 337.08 105.756 336.408C105.382 335.717 104.878 335.195 104.244 334.84C103.609 334.467 102.928 334.28 102.2 334.28C101.472 334.28 100.8 334.457 100.184 334.812C99.5676 335.167 99.0636 335.689 98.6716 336.38C98.2983 337.052 98.1116 337.855 98.1116 338.788C98.1116 339.721 98.2983 340.543 98.6716 341.252C99.0636 341.943 99.5676 342.475 100.184 342.848C100.818 343.221 101.49 343.408 102.2 343.408C102.928 343.408 103.609 343.231 104.244 342.876C104.878 342.503 105.382 341.98 105.756 341.308C106.129 340.617 106.316 339.796 106.316 338.844ZM120.168 330.836C121.325 330.836 122.343 331.069 123.22 331.536C124.097 331.984 124.788 332.572 125.292 333.3V331.088H129.24V346.712C129.24 348.149 128.951 349.428 128.372 350.548C127.793 351.687 126.925 352.583 125.768 353.236C124.611 353.908 123.211 354.244 121.568 354.244C119.365 354.244 117.555 353.731 116.136 352.704C114.736 351.677 113.943 350.277 113.756 348.504H117.648C117.853 349.213 118.292 349.773 118.964 350.184C119.655 350.613 120.485 350.828 121.456 350.828C122.595 350.828 123.519 350.483 124.228 349.792C124.937 349.12 125.292 348.093 125.292 346.712V344.304C124.788 345.032 124.088 345.639 123.192 346.124C122.315 346.609 121.307 346.852 120.168 346.852C118.861 346.852 117.667 346.516 116.584 345.844C115.501 345.172 114.643 344.229 114.008 343.016C113.392 341.784 113.084 340.375 113.084 338.788C113.084 337.22 113.392 335.829 114.008 334.616C114.643 333.403 115.492 332.469 116.556 331.816C117.639 331.163 118.843 330.836 120.168 330.836ZM125.292 338.844C125.292 337.892 125.105 337.08 124.732 336.408C124.359 335.717 123.855 335.195 123.22 334.84C122.585 334.467 121.904 334.28 121.176 334.28C120.448 334.28 119.776 334.457 119.16 334.812C118.544 335.167 118.04 335.689 117.648 336.38C117.275 337.052 117.088 337.855 117.088 338.788C117.088 339.721 117.275 340.543 117.648 341.252C118.04 341.943 118.544 342.475 119.16 342.848C119.795 343.221 120.467 343.408 121.176 343.408C121.904 343.408 122.585 343.231 123.22 342.876C123.855 342.503 124.359 341.98 124.732 341.308C125.105 340.617 125.292 339.796 125.292 338.844ZM135.057 329.24C134.366 329.24 133.787 329.025 133.321 328.596C132.873 328.148 132.649 327.597 132.649 326.944C132.649 326.291 132.873 325.749 133.321 325.32C133.787 324.872 134.366 324.648 135.057 324.648C135.747 324.648 136.317 324.872 136.765 325.32C137.231 325.749 137.465 326.291 137.465 326.944C137.465 327.597 137.231 328.148 136.765 328.596C136.317 329.025 135.747 329.24 135.057 329.24ZM136.989 331.088V346.6H133.069V331.088H136.989ZM139.854 338.844C139.854 337.239 140.18 335.839 140.834 334.644C141.487 333.431 142.392 332.497 143.55 331.844C144.707 331.172 146.032 330.836 147.526 330.836C149.448 330.836 151.035 331.321 152.286 332.292C153.555 333.244 154.404 334.588 154.834 336.324H150.606C150.382 335.652 149.999 335.129 149.458 334.756C148.935 334.364 148.282 334.168 147.498 334.168C146.378 334.168 145.491 334.579 144.838 335.4C144.184 336.203 143.858 337.351 143.858 338.844C143.858 340.319 144.184 341.467 144.838 342.288C145.491 343.091 146.378 343.492 147.498 343.492C149.084 343.492 150.12 342.783 150.606 341.364H154.834C154.404 343.044 153.555 344.379 152.286 345.368C151.016 346.357 149.43 346.852 147.526 346.852C146.032 346.852 144.707 346.525 143.55 345.872C142.392 345.2 141.487 344.267 140.834 343.072C140.18 341.859 139.854 340.449 139.854 338.844ZM170.313 346.852C169.044 346.852 167.905 346.628 166.897 346.18C165.889 345.713 165.087 345.088 164.489 344.304C163.911 343.52 163.593 342.652 163.537 341.7H167.485C167.56 342.297 167.849 342.792 168.353 343.184C168.876 343.576 169.52 343.772 170.285 343.772C171.032 343.772 171.611 343.623 172.021 343.324C172.451 343.025 172.665 342.643 172.665 342.176C172.665 341.672 172.404 341.299 171.881 341.056C171.377 340.795 170.565 340.515 169.445 340.216C168.288 339.936 167.336 339.647 166.589 339.348C165.861 339.049 165.227 338.592 164.685 337.976C164.163 337.36 163.901 336.529 163.901 335.484C163.901 334.625 164.144 333.841 164.629 333.132C165.133 332.423 165.843 331.863 166.757 331.452C167.691 331.041 168.783 330.836 170.033 330.836C171.881 330.836 173.356 331.303 174.457 332.236C175.559 333.151 176.165 334.392 176.277 335.96H172.525C172.469 335.344 172.208 334.859 171.741 334.504C171.293 334.131 170.687 333.944 169.921 333.944C169.212 333.944 168.661 334.075 168.269 334.336C167.896 334.597 167.709 334.961 167.709 335.428C167.709 335.951 167.971 336.352 168.493 336.632C169.016 336.893 169.828 337.164 170.929 337.444C172.049 337.724 172.973 338.013 173.701 338.312C174.429 338.611 175.055 339.077 175.577 339.712C176.119 340.328 176.399 341.149 176.417 342.176C176.417 343.072 176.165 343.875 175.661 344.584C175.176 345.293 174.467 345.853 173.533 346.264C172.619 346.656 171.545 346.852 170.313 346.852ZM188.371 330.864C189.547 330.864 190.592 331.125 191.507 331.648C192.422 332.152 193.131 332.908 193.635 333.916C194.158 334.905 194.419 336.1 194.419 337.5V346.6H190.499V338.032C190.499 336.8 190.191 335.857 189.575 335.204C188.959 334.532 188.119 334.196 187.055 334.196C185.972 334.196 185.114 334.532 184.479 335.204C183.863 335.857 183.555 336.8 183.555 338.032V346.6H179.635V325.88H183.555V333.02C184.059 332.348 184.731 331.825 185.571 331.452C186.411 331.06 187.344 330.864 188.371 330.864ZM205.035 346.852C203.542 346.852 202.198 346.525 201.003 345.872C199.808 345.2 198.866 344.257 198.175 343.044C197.503 341.831 197.167 340.431 197.167 338.844C197.167 337.257 197.512 335.857 198.203 334.644C198.912 333.431 199.874 332.497 201.087 331.844C202.3 331.172 203.654 330.836 205.147 330.836C206.64 330.836 207.994 331.172 209.207 331.844C210.42 332.497 211.372 333.431 212.063 334.644C212.772 335.857 213.127 337.257 213.127 338.844C213.127 340.431 212.763 341.831 212.035 343.044C211.326 344.257 210.355 345.2 209.123 345.872C207.91 346.525 206.547 346.852 205.035 346.852ZM205.035 343.436C205.744 343.436 206.407 343.268 207.023 342.932C207.658 342.577 208.162 342.055 208.535 341.364C208.908 340.673 209.095 339.833 209.095 338.844C209.095 337.369 208.703 336.24 207.919 335.456C207.154 334.653 206.211 334.252 205.091 334.252C203.971 334.252 203.028 334.653 202.263 335.456C201.516 336.24 201.143 337.369 201.143 338.844C201.143 340.319 201.507 341.457 202.235 342.26C202.982 343.044 203.915 343.436 205.035 343.436ZM237.506 331.088L232.97 346.6H228.742L225.914 335.764L223.086 346.6H218.83L214.266 331.088H218.242L220.986 342.904L223.954 331.088H228.098L231.01 342.876L233.754 331.088H237.506Z" fill="white"/>
<path d="M70.625 363.465C69.625 362.945 69.125 362.14 69.125 361.05C69.125 360.51 69.26 360.02 69.53 359.58C69.81 359.13 70.225 358.775 70.775 358.515C71.335 358.245 72.015 358.11 72.815 358.11C73.615 358.11 74.29 358.245 74.84 358.515C75.4 358.775 75.815 359.13 76.085 359.58C76.365 360.02 76.505 360.51 76.505 361.05C76.505 361.6 76.37 362.085 76.1 362.505C75.83 362.915 75.47 363.235 75.02 363.465C75.57 363.705 76 364.055 76.31 364.515C76.62 364.975 76.775 365.52 76.775 366.15C76.775 366.83 76.6 367.425 76.25 367.935C75.91 368.435 75.44 368.82 74.84 369.09C74.24 369.36 73.565 369.495 72.815 369.495C72.065 369.495 71.39 369.36 70.79 369.09C70.2 368.82 69.73 368.435 69.38 367.935C69.04 367.425 68.87 366.83 68.87 366.15C68.87 365.52 69.025 364.975 69.335 364.515C69.645 364.045 70.075 363.695 70.625 363.465ZM74.465 361.35C74.465 360.86 74.315 360.48 74.015 360.21C73.725 359.94 73.325 359.805 72.815 359.805C72.315 359.805 71.915 359.94 71.615 360.21C71.325 360.48 71.18 360.865 71.18 361.365C71.18 361.815 71.33 362.175 71.63 362.445C71.94 362.715 72.335 362.85 72.815 362.85C73.295 362.85 73.69 362.715 74 362.445C74.31 362.165 74.465 361.8 74.465 361.35ZM72.815 364.38C72.245 364.38 71.78 364.525 71.42 364.815C71.07 365.105 70.895 365.52 70.895 366.06C70.895 366.56 71.065 366.97 71.405 367.29C71.755 367.6 72.225 367.755 72.815 367.755C73.405 367.755 73.87 367.595 74.21 367.275C74.55 366.955 74.72 366.55 74.72 366.06C74.72 365.53 74.545 365.12 74.195 364.83C73.845 364.53 73.385 364.38 72.815 364.38ZM79.6037 369.36C79.2237 369.36 78.9087 369.245 78.6587 369.015C78.4187 368.775 78.2987 368.48 78.2987 368.13C78.2987 367.78 78.4187 367.49 78.6587 367.26C78.9087 367.02 79.2237 366.9 79.6037 366.9C79.9737 366.9 80.2787 367.02 80.5187 367.26C80.7587 367.49 80.8787 367.78 80.8787 368.13C80.8787 368.48 80.7587 368.775 80.5187 369.015C80.2787 369.245 79.9737 369.36 79.6037 369.36ZM79.6037 363.15C79.2237 363.15 78.9087 363.035 78.6587 362.805C78.4187 362.565 78.2987 362.27 78.2987 361.92C78.2987 361.57 78.4187 361.28 78.6587 361.05C78.9087 360.81 79.2237 360.69 79.6037 360.69C79.9737 360.69 80.2787 360.81 80.5187 361.05C80.7587 361.28 80.8787 361.57 80.8787 361.92C80.8787 362.27 80.7587 362.565 80.5187 362.805C80.2787 363.035 79.9737 363.15 79.6037 363.15ZM82.4041 361.2C82.4541 360.2 82.8041 359.43 83.4541 358.89C84.1141 358.34 84.9791 358.065 86.0491 358.065C86.7791 358.065 87.4041 358.195 87.9241 358.455C88.4441 358.705 88.8341 359.05 89.0941 359.49C89.3641 359.92 89.4991 360.41 89.4991 360.96C89.4991 361.59 89.3341 362.125 89.0041 362.565C88.6841 362.995 88.2991 363.285 87.8491 363.435V363.495C88.4291 363.675 88.8791 363.995 89.1991 364.455C89.5291 364.915 89.6941 365.505 89.6941 366.225C89.6941 366.825 89.5541 367.36 89.2741 367.83C89.0041 368.3 88.5991 368.67 88.0591 368.94C87.5291 369.2 86.8891 369.33 86.1391 369.33C85.0091 369.33 84.0891 369.045 83.3791 368.475C82.6691 367.905 82.2941 367.065 82.2541 365.955H84.2941C84.3141 366.445 84.4791 366.84 84.7891 367.14C85.1091 367.43 85.5441 367.575 86.0941 367.575C86.6041 367.575 86.9941 367.435 87.2641 367.155C87.5441 366.865 87.6841 366.495 87.6841 366.045C87.6841 365.445 87.4941 365.015 87.1141 364.755C86.7341 364.495 86.1441 364.365 85.3441 364.365H84.9091V362.64H85.3441C86.7641 362.64 87.4741 362.165 87.4741 361.215C87.4741 360.785 87.3441 360.45 87.0841 360.21C86.8341 359.97 86.4691 359.85 85.9891 359.85C85.5191 359.85 85.1541 359.98 84.8941 360.24C84.6441 360.49 84.4991 360.81 84.4591 361.2H82.4041ZM91.3536 363.645C91.3536 361.915 91.6636 360.56 92.2836 359.58C92.9136 358.6 93.9536 358.11 95.4036 358.11C96.8536 358.11 97.8886 358.6 98.5086 359.58C99.1386 360.56 99.4536 361.915 99.4536 363.645C99.4536 365.385 99.1386 366.75 98.5086 367.74C97.8886 368.73 96.8536 369.225 95.4036 369.225C93.9536 369.225 92.9136 368.73 92.2836 367.74C91.6636 366.75 91.3536 365.385 91.3536 363.645ZM97.3836 363.645C97.3836 362.905 97.3336 362.285 97.2336 361.785C97.1436 361.275 96.9536 360.86 96.6636 360.54C96.3836 360.22 95.9636 360.06 95.4036 360.06C94.8436 360.06 94.4186 360.22 94.1286 360.54C93.8486 360.86 93.6586 361.275 93.5586 361.785C93.4686 362.285 93.4236 362.905 93.4236 363.645C93.4236 364.405 93.4686 365.045 93.5586 365.565C93.6486 366.075 93.8386 366.49 94.1286 366.81C94.4186 367.12 94.8436 367.275 95.4036 367.275C95.9636 367.275 96.3886 367.12 96.6786 366.81C96.9686 366.49 97.1586 366.075 97.2486 365.565C97.3386 365.045 97.3836 364.405 97.3836 363.645ZM106.965 362.145C107.235 361.765 107.605 361.45 108.075 361.2C108.555 360.94 109.1 360.81 109.71 360.81C110.42 360.81 111.06 360.985 111.63 361.335C112.21 361.685 112.665 362.185 112.995 362.835C113.335 363.475 113.505 364.22 113.505 365.07C113.505 365.92 113.335 366.675 112.995 367.335C112.665 367.985 112.21 368.49 111.63 368.85C111.06 369.21 110.42 369.39 109.71 369.39C109.1 369.39 108.56 369.265 108.09 369.015C107.63 368.765 107.255 368.45 106.965 368.07V373.215H104.865V360.945H106.965V362.145ZM111.36 365.07C111.36 364.57 111.255 364.14 111.045 363.78C110.845 363.41 110.575 363.13 110.235 362.94C109.905 362.75 109.545 362.655 109.155 362.655C108.775 362.655 108.415 362.755 108.075 362.955C107.745 363.145 107.475 363.425 107.265 363.795C107.065 364.165 106.965 364.6 106.965 365.1C106.965 365.6 107.065 366.035 107.265 366.405C107.475 366.775 107.745 367.06 108.075 367.26C108.415 367.45 108.775 367.545 109.155 367.545C109.545 367.545 109.905 367.445 110.235 367.245C110.575 367.045 110.845 366.76 111.045 366.39C111.255 366.02 111.36 365.58 111.36 365.07ZM125.351 360.825C126.371 360.825 127.191 361.14 127.811 361.77C128.441 362.39 128.756 363.26 128.756 364.38V369.255H126.656V364.665C126.656 364.015 126.491 363.52 126.161 363.18C125.831 362.83 125.381 362.655 124.811 362.655C124.241 362.655 123.786 362.83 123.446 363.18C123.116 363.52 122.951 364.015 122.951 364.665V369.255H120.851V364.665C120.851 364.015 120.686 363.52 120.356 363.18C120.026 362.83 119.576 362.655 119.006 362.655C118.426 362.655 117.966 362.83 117.626 363.18C117.296 363.52 117.131 364.015 117.131 364.665V369.255H115.031V360.945H117.131V361.95C117.401 361.6 117.746 361.325 118.166 361.125C118.596 360.925 119.066 360.825 119.576 360.825C120.226 360.825 120.806 360.965 121.316 361.245C121.826 361.515 122.221 361.905 122.501 362.415C122.771 361.935 123.161 361.55 123.671 361.26C124.191 360.97 124.751 360.825 125.351 360.825ZM140.713 363.015V364.785H134.353V363.015H140.713ZM148.832 366.18C148.912 366.62 149.092 366.96 149.372 367.2C149.662 367.43 150.047 367.545 150.527 367.545C151.147 367.545 151.597 367.29 151.877 366.78C152.157 366.26 152.297 365.39 152.297 364.17C152.067 364.49 151.742 364.74 151.322 364.92C150.912 365.1 150.467 365.19 149.987 365.19C149.347 365.19 148.767 365.06 148.247 364.8C147.737 364.53 147.332 364.135 147.032 363.615C146.732 363.085 146.582 362.445 146.582 361.695C146.582 360.585 146.912 359.705 147.572 359.055C148.232 358.395 149.132 358.065 150.272 358.065C151.692 358.065 152.692 358.52 153.272 359.43C153.862 360.34 154.157 361.71 154.157 363.54C154.157 364.84 154.042 365.905 153.812 366.735C153.592 367.565 153.207 368.195 152.657 368.625C152.117 369.055 151.377 369.27 150.437 369.27C149.697 369.27 149.067 369.13 148.547 368.85C148.027 368.56 147.627 368.185 147.347 367.725C147.077 367.255 146.922 366.74 146.882 366.18H148.832ZM150.422 363.48C150.942 363.48 151.352 363.32 151.652 363C151.952 362.68 152.102 362.25 152.102 361.71C152.102 361.12 151.942 360.665 151.622 360.345C151.312 360.015 150.887 359.85 150.347 359.85C149.807 359.85 149.377 360.02 149.057 360.36C148.747 360.69 148.592 361.13 148.592 361.68C148.592 362.21 148.742 362.645 149.042 362.985C149.352 363.315 149.812 363.48 150.422 363.48ZM156.962 369.36C156.582 369.36 156.267 369.245 156.017 369.015C155.777 368.775 155.657 368.48 155.657 368.13C155.657 367.78 155.777 367.49 156.017 367.26C156.267 367.02 156.582 366.9 156.962 366.9C157.332 366.9 157.637 367.02 157.877 367.26C158.117 367.49 158.237 367.78 158.237 368.13C158.237 368.48 158.117 368.775 157.877 369.015C157.637 369.245 157.332 369.36 156.962 369.36ZM156.962 363.15C156.582 363.15 156.267 363.035 156.017 362.805C155.777 362.565 155.657 362.27 155.657 361.92C155.657 361.57 155.777 361.28 156.017 361.05C156.267 360.81 156.582 360.69 156.962 360.69C157.332 360.69 157.637 360.81 157.877 361.05C158.117 361.28 158.237 361.57 158.237 361.92C158.237 362.27 158.117 362.565 157.877 362.805C157.637 363.035 157.332 363.15 156.962 363.15ZM159.763 361.2C159.813 360.2 160.163 359.43 160.812 358.89C161.473 358.34 162.338 358.065 163.408 358.065C164.138 358.065 164.763 358.195 165.283 358.455C165.803 358.705 166.193 359.05 166.453 359.49C166.723 359.92 166.857 360.41 166.857 360.96C166.857 361.59 166.693 362.125 166.363 362.565C166.043 362.995 165.658 363.285 165.208 363.435V363.495C165.788 363.675 166.238 363.995 166.558 364.455C166.888 364.915 167.053 365.505 167.053 366.225C167.053 366.825 166.913 367.36 166.633 367.83C166.363 368.3 165.958 368.67 165.418 368.94C164.888 369.2 164.248 369.33 163.498 369.33C162.368 369.33 161.448 369.045 160.738 368.475C160.028 367.905 159.653 367.065 159.613 365.955H161.653C161.673 366.445 161.838 366.84 162.148 367.14C162.468 367.43 162.903 367.575 163.453 367.575C163.963 367.575 164.353 367.435 164.623 367.155C164.903 366.865 165.043 366.495 165.043 366.045C165.043 365.445 164.853 365.015 164.473 364.755C164.093 364.495 163.503 364.365 162.703 364.365H162.268V362.64H162.703C164.123 362.64 164.833 362.165 164.833 361.215C164.833 360.785 164.703 360.45 164.443 360.21C164.193 359.97 163.828 359.85 163.347 359.85C162.878 359.85 162.513 359.98 162.253 360.24C162.003 360.49 161.858 360.81 161.818 361.2H159.763ZM168.712 363.645C168.712 361.915 169.022 360.56 169.642 359.58C170.272 358.6 171.312 358.11 172.762 358.11C174.212 358.11 175.247 358.6 175.867 359.58C176.497 360.56 176.812 361.915 176.812 363.645C176.812 365.385 176.497 366.75 175.867 367.74C175.247 368.73 174.212 369.225 172.762 369.225C171.312 369.225 170.272 368.73 169.642 367.74C169.022 366.75 168.712 365.385 168.712 363.645ZM174.742 363.645C174.742 362.905 174.692 362.285 174.592 361.785C174.502 361.275 174.312 360.86 174.022 360.54C173.742 360.22 173.322 360.06 172.762 360.06C172.202 360.06 171.777 360.22 171.487 360.54C171.207 360.86 171.017 361.275 170.917 361.785C170.827 362.285 170.782 362.905 170.782 363.645C170.782 364.405 170.827 365.045 170.917 365.565C171.007 366.075 171.197 366.49 171.487 366.81C171.777 367.12 172.202 367.275 172.762 367.275C173.322 367.275 173.747 367.12 174.037 366.81C174.327 366.49 174.517 366.075 174.607 365.565C174.697 365.045 174.742 364.405 174.742 363.645ZM184.323 362.145C184.593 361.765 184.963 361.45 185.433 361.2C185.913 360.94 186.458 360.81 187.068 360.81C187.778 360.81 188.418 360.985 188.988 361.335C189.568 361.685 190.023 362.185 190.353 362.835C190.693 363.475 190.863 364.22 190.863 365.07C190.863 365.92 190.693 366.675 190.353 367.335C190.023 367.985 189.568 368.49 188.988 368.85C188.418 369.21 187.778 369.39 187.068 369.39C186.458 369.39 185.918 369.265 185.448 369.015C184.988 368.765 184.613 368.45 184.323 368.07V373.215H182.223V360.945H184.323V362.145ZM188.718 365.07C188.718 364.57 188.613 364.14 188.403 363.78C188.203 363.41 187.933 363.13 187.593 362.94C187.263 362.75 186.903 362.655 186.513 362.655C186.133 362.655 185.773 362.755 185.433 362.955C185.103 363.145 184.833 363.425 184.623 363.795C184.423 364.165 184.323 364.6 184.323 365.1C184.323 365.6 184.423 366.035 184.623 366.405C184.833 366.775 185.103 367.06 185.433 367.26C185.773 367.45 186.133 367.545 186.513 367.545C186.903 367.545 187.263 367.445 187.593 367.245C187.933 367.045 188.203 366.76 188.403 366.39C188.613 366.02 188.718 365.58 188.718 365.07ZM202.709 360.825C203.729 360.825 204.549 361.14 205.169 361.77C205.799 362.39 206.114 363.26 206.114 364.38V369.255H204.014V364.665C204.014 364.015 203.849 363.52 203.519 363.18C203.189 362.83 202.739 362.655 202.169 362.655C201.599 362.655 201.144 362.83 200.804 363.18C200.474 363.52 200.309 364.015 200.309 364.665V369.255H198.209V364.665C198.209 364.015 198.044 363.52 197.714 363.18C197.384 362.83 196.934 362.655 196.364 362.655C195.784 362.655 195.324 362.83 194.984 363.18C194.654 363.52 194.489 364.015 194.489 364.665V369.255H192.389V360.945H194.489V361.95C194.759 361.6 195.104 361.325 195.524 361.125C195.954 360.925 196.424 360.825 196.934 360.825C197.584 360.825 198.164 360.965 198.674 361.245C199.184 361.515 199.579 361.905 199.859 362.415C200.129 361.935 200.519 361.55 201.029 361.26C201.549 360.97 202.109 360.825 202.709 360.825Z" fill="white"/>
</g>
<defs>
<filter id="filter0_d_315_249" x="0" y="0" width="367.127" height="528" filterUnits="userSpaceOnUse" color-interpolation-filters="sRGB">
<feFlood flood-opacity="0" result="BackgroundImageFix"/>
<feColorMatrix in="SourceAlpha" type="matrix" values="0 0 0 0 0 0 0 0 0 0 0 0 0 0 0 0 0 0 127 0" result="hardAlpha"/>
<feOffset dy="10"/>
<feGaussianBlur stdDeviation="6"/>
<feComposite in2="hardAlpha" operator="out"/>
<feColorMatrix type="matrix" values="0 0 0 0 0 0 0 0 0 0 0 0 0 0 0 0 0 0 0.25 0"/>
<feBlend mode="normal" in2="BackgroundImageFix" result="effect1_dropShadow_315_249"/>
<feBlend mode="normal" in="SourceGraphic" in2="effect1_dropShadow_315_249" result="shape"/>
</filter>
</defs>
</svg>
