<svg width="368" height="528" viewBox="0 0 368 528" fill="none" xmlns="http://www.w3.org/2000/svg">
<g filter="url(#filter0_d_315_250)">
<path fill-rule="evenodd" clip-rule="evenodd" d="M12 17C12 8.71573 18.7157 2 27 2H340.127C348.412 2 355.127 8.71573 355.127 17L355.127 233.127C343.881 233.127 334.764 242.244 334.764 253.491C334.764 264.737 343.881 273.855 355.127 273.855L355.127 491C355.127 499.284 348.412 506 340.127 506H27C18.7157 506 12 499.284 12 491V273.855C23.2465 273.855 32.3636 264.737 32.3636 253.491C32.3636 242.244 23.2465 233.127 12 233.127V17ZM76.3891 46.6H90.1891C93.3091 46.6 96.0558 47.1733 98.4291 48.32C100.829 49.44 102.682 51.0533 103.989 53.16C105.322 55.2667 105.989 57.7467 105.989 60.6C105.989 63.4533 105.322 65.9333 103.989 68.04C102.682 70.1467 100.829 71.7733 98.4291 72.92C96.0558 74.04 93.3091 74.6 90.1891 74.6H76.3891V46.6ZM89.7891 67.24C91.8158 67.24 93.4291 66.6667 94.6291 65.52C95.8558 64.3467 96.4691 62.7067 96.4691 60.6C96.4691 58.4933 95.8558 56.8667 94.6291 55.72C93.4291 54.5467 91.8158 53.96 89.7891 53.96H85.8291V67.24H89.7891ZM118.956 52.32C122.796 52.32 125.729 53.1867 127.756 54.92C129.783 56.6267 130.796 59.2667 130.796 62.84V74.6H122.396V71.72C121.356 73.9067 119.289 75 116.196 75C114.463 75 112.983 74.7067 111.756 74.12C110.556 73.5067 109.636 72.6933 108.996 71.68C108.383 70.64 108.076 69.48 108.076 68.2C108.076 66.04 108.903 64.4 110.556 63.28C112.209 62.16 114.716 61.6 118.076 61.6H121.716C121.423 59.8933 120.049 59.04 117.596 59.04C116.609 59.04 115.609 59.2 114.596 59.52C113.583 59.8133 112.716 60.2267 111.996 60.76L109.116 54.8C110.369 54.0267 111.876 53.4267 113.636 53C115.423 52.5467 117.196 52.32 118.956 52.32ZM118.916 69.56C119.556 69.56 120.129 69.3867 120.636 69.04C121.143 68.6933 121.516 68.1733 121.756 67.48V65.96H119.516C117.676 65.96 116.756 66.5733 116.756 67.8C116.756 68.3067 116.943 68.7333 117.316 69.08C117.716 69.4 118.249 69.56 118.916 69.56ZM158.672 52.72L149.672 75.04C148.526 77.8933 147.099 79.8933 145.392 81.04C143.686 82.1867 141.592 82.76 139.112 82.76C137.886 82.76 136.646 82.5733 135.392 82.2C134.166 81.8533 133.192 81.3867 132.472 80.8L135.472 74.6C135.926 74.9467 136.432 75.2267 136.992 75.44C137.579 75.6533 138.139 75.76 138.672 75.76C139.659 75.76 140.406 75.4667 140.912 74.88L131.712 52.72H140.992L145.512 64.44L150.112 52.72H158.672ZM193.607 67.28V74.6H171.167V68.8L181.287 59.44C182.167 58.6133 182.753 57.9067 183.047 57.32C183.34 56.7333 183.487 56.16 183.487 55.6C183.487 54.9067 183.247 54.3733 182.767 54C182.313 53.6 181.647 53.4 180.767 53.4C179.913 53.4 179.113 53.6267 178.367 54.08C177.62 54.5333 177.047 55.1733 176.647 56L169.527 52.44C170.593 50.44 172.153 48.8667 174.207 47.72C176.26 46.5467 178.74 45.96 181.647 45.96C183.86 45.96 185.82 46.32 187.527 47.04C189.233 47.76 190.567 48.7867 191.527 50.12C192.487 51.4533 192.967 52.9867 192.967 54.72C192.967 56.2667 192.633 57.72 191.967 59.08C191.327 60.4133 190.06 61.9333 188.167 63.64L184.167 67.28H193.607ZM57.8182 146.497C60.7075 146.013 62.9091 143.5 62.9091 140.473C62.9091 137.099 60.174 134.364 56.8 134.364C53.426 134.364 50.6909 137.099 50.6909 140.473C50.6909 143.5 52.8925 146.013 55.7818 146.497V230.157C52.8925 230.642 50.6909 233.155 50.6909 236.182C50.6909 239.209 52.8925 241.722 55.7818 242.206V242.291V316.618V321.794C52.8925 322.278 50.6909 324.791 50.6909 327.818C50.6909 330.845 52.8925 333.358 55.7818 333.843V340.036V410.375C52.8925 410.86 50.6909 413.373 50.6909 416.4C50.6909 419.774 53.426 422.509 56.8 422.509C60.174 422.509 62.9091 419.774 62.9091 416.4C62.9091 413.373 60.7075 410.86 57.8182 410.375V340.036V333.843C60.7075 333.358 62.9091 330.845 62.9091 327.818C62.9091 324.791 60.7075 322.278 57.8182 321.794V316.618V242.291V242.206C60.7075 241.722 62.9091 239.209 62.9091 236.182C62.9091 233.155 60.7075 230.642 57.8182 230.157V146.497Z" fill="#F72B22"/>
<path d="M103.248 130.375L98.5682 147.127H94.6082L91.4642 135.199L88.1762 147.127L84.2402 147.151L79.7282 130.375H83.3282L86.2802 143.383L89.6882 130.375H93.4322L96.6482 143.311L99.6242 130.375H103.248ZM111.346 147.343C110.066 147.343 108.914 147.063 107.89 146.503C106.866 145.927 106.058 145.119 105.466 144.079C104.89 143.039 104.602 141.839 104.602 140.479C104.602 139.119 104.898 137.919 105.49 136.879C106.098 135.839 106.922 135.039 107.962 134.479C109.002 133.903 110.162 133.615 111.442 133.615C112.722 133.615 113.882 133.903 114.922 134.479C115.962 135.039 116.778 135.839 117.37 136.879C117.978 137.919 118.282 139.119 118.282 140.479C118.282 141.839 117.97 143.039 117.346 144.079C116.738 145.119 115.906 145.927 114.85 146.503C113.81 147.063 112.642 147.343 111.346 147.343ZM111.346 144.415C111.954 144.415 112.522 144.271 113.05 143.983C113.594 143.679 114.026 143.231 114.346 142.639C114.666 142.047 114.826 141.327 114.826 140.479C114.826 139.215 114.49 138.247 113.818 137.575C113.162 136.887 112.354 136.543 111.394 136.543C110.434 136.543 109.626 136.887 108.97 137.575C108.33 138.247 108.01 139.215 108.01 140.479C108.01 141.743 108.322 142.719 108.946 143.407C109.586 144.079 110.386 144.415 111.346 144.415ZM124.107 135.895C124.539 135.191 125.099 134.639 125.787 134.239C126.491 133.839 127.291 133.639 128.187 133.639V137.167H127.299C126.243 137.167 125.443 137.415 124.899 137.911C124.371 138.407 124.107 139.271 124.107 140.503V147.127H120.747V133.831H124.107V135.895ZM138.322 147.127L133.81 141.463V147.127H130.45V129.367H133.81V139.471L138.274 133.831H142.642L136.786 140.503L142.69 147.127H138.322ZM149.554 147.343C148.466 147.343 147.49 147.151 146.626 146.767C145.762 146.367 145.074 145.831 144.562 145.159C144.066 144.487 143.794 143.743 143.746 142.927H147.13C147.194 143.439 147.442 143.863 147.874 144.199C148.322 144.535 148.874 144.703 149.53 144.703C150.17 144.703 150.666 144.575 151.018 144.319C151.386 144.063 151.57 143.735 151.57 143.335C151.57 142.903 151.346 142.583 150.898 142.375C150.466 142.151 149.77 141.911 148.81 141.655C147.818 141.415 147.002 141.167 146.362 140.911C145.738 140.655 145.194 140.263 144.73 139.735C144.282 139.207 144.058 138.495 144.058 137.599C144.058 136.863 144.266 136.191 144.682 135.583C145.114 134.975 145.722 134.495 146.506 134.143C147.306 133.791 148.242 133.615 149.314 133.615C150.898 133.615 152.162 134.015 153.106 134.815C154.05 135.599 154.57 136.663 154.666 138.007H151.45C151.402 137.479 151.178 137.063 150.778 136.759C150.394 136.439 149.874 136.279 149.218 136.279C148.61 136.279 148.138 136.391 147.802 136.615C147.482 136.839 147.322 137.151 147.322 137.551C147.322 137.999 147.546 138.343 147.994 138.583C148.442 138.807 149.138 139.039 150.082 139.279C151.042 139.519 151.834 139.767 152.458 140.023C153.082 140.279 153.618 140.679 154.066 141.223C154.53 141.751 154.77 142.455 154.786 143.335C154.786 144.103 154.57 144.791 154.138 145.399C153.722 146.007 153.114 146.487 152.314 146.839C151.53 147.175 150.61 147.343 149.554 147.343ZM165.032 133.639C166.04 133.639 166.936 133.863 167.72 134.311C168.504 134.743 169.112 135.391 169.544 136.255C169.992 137.103 170.216 138.127 170.216 139.327V147.127H166.856V139.783C166.856 138.727 166.592 137.919 166.064 137.359C165.536 136.783 164.816 136.495 163.904 136.495C162.976 136.495 162.24 136.783 161.696 137.359C161.168 137.919 160.904 138.727 160.904 139.783V147.127H157.544V129.367H160.904V135.487C161.336 134.911 161.912 134.463 162.632 134.143C163.352 133.807 164.152 133.639 165.032 133.639ZM179.315 147.343C178.035 147.343 176.883 147.063 175.859 146.503C174.835 145.927 174.027 145.119 173.435 144.079C172.859 143.039 172.571 141.839 172.571 140.479C172.571 139.119 172.867 137.919 173.459 136.879C174.067 135.839 174.891 135.039 175.931 134.479C176.971 133.903 178.131 133.615 179.411 133.615C180.691 133.615 181.851 133.903 182.891 134.479C183.931 135.039 184.747 135.839 185.339 136.879C185.947 137.919 186.251 139.119 186.251 140.479C186.251 141.839 185.939 143.039 185.315 144.079C184.707 145.119 183.875 145.927 182.819 146.503C181.779 147.063 180.611 147.343 179.315 147.343ZM179.315 144.415C179.923 144.415 180.491 144.271 181.019 143.983C181.563 143.679 181.995 143.231 182.315 142.639C182.635 142.047 182.795 141.327 182.795 140.479C182.795 139.215 182.459 138.247 181.787 137.575C181.131 136.887 180.323 136.543 179.363 136.543C178.403 136.543 177.595 136.887 176.939 137.575C176.299 138.247 175.979 139.215 175.979 140.479C175.979 141.743 176.291 142.719 176.915 143.407C177.555 144.079 178.355 144.415 179.315 144.415ZM192.076 135.751C192.508 135.143 193.1 134.639 193.852 134.239C194.62 133.823 195.492 133.615 196.468 133.615C197.604 133.615 198.628 133.895 199.54 134.455C200.468 135.015 201.196 135.815 201.724 136.855C202.268 137.879 202.54 139.071 202.54 140.431C202.54 141.791 202.268 142.999 201.724 144.055C201.196 145.095 200.468 145.903 199.54 146.479C198.628 147.055 197.604 147.343 196.468 147.343C195.492 147.343 194.628 147.143 193.876 146.743C193.14 146.343 192.54 145.839 192.076 145.231V153.463H188.716V133.831H192.076V135.751ZM199.108 140.431C199.108 139.631 198.94 138.943 198.604 138.367C198.284 137.775 197.852 137.327 197.308 137.023C196.78 136.719 196.204 136.567 195.58 136.567C194.972 136.567 194.396 136.727 193.852 137.047C193.324 137.351 192.892 137.799 192.556 138.391C192.236 138.983 192.076 139.679 192.076 140.479C192.076 141.279 192.236 141.975 192.556 142.567C192.892 143.159 193.324 143.615 193.852 143.935C194.396 144.239 194.972 144.391 195.58 144.391C196.204 144.391 196.78 144.231 197.308 143.911C197.852 143.591 198.284 143.135 198.604 142.543C198.94 141.951 199.108 141.247 199.108 140.431ZM210.069 147.343C208.981 147.343 208.005 147.151 207.141 146.767C206.277 146.367 205.589 145.831 205.077 145.159C204.581 144.487 204.309 143.743 204.261 142.927H207.645C207.709 143.439 207.957 143.863 208.389 144.199C208.837 144.535 209.389 144.703 210.045 144.703C210.685 144.703 211.181 144.575 211.533 144.319C211.901 144.063 212.085 143.735 212.085 143.335C212.085 142.903 211.861 142.583 211.413 142.375C210.981 142.151 210.285 141.911 209.325 141.655C208.333 141.415 207.517 141.167 206.877 140.911C206.253 140.655 205.709 140.263 205.245 139.735C204.797 139.207 204.573 138.495 204.573 137.599C204.573 136.863 204.781 136.191 205.197 135.583C205.629 134.975 206.237 134.495 207.021 134.143C207.821 133.791 208.757 133.615 209.829 133.615C211.413 133.615 212.677 134.015 213.621 134.815C214.565 135.599 215.085 136.663 215.181 138.007H211.965C211.917 137.479 211.693 137.063 211.293 136.759C210.909 136.439 210.389 136.279 209.733 136.279C209.125 136.279 208.653 136.391 208.317 136.615C207.997 136.839 207.837 137.151 207.837 137.551C207.837 137.999 208.061 138.343 208.509 138.583C208.957 138.807 209.653 139.039 210.597 139.279C211.557 139.519 212.349 139.767 212.973 140.023C213.597 140.279 214.133 140.679 214.581 141.223C215.045 141.751 215.285 142.455 215.301 143.335C215.301 144.103 215.085 144.791 214.653 145.399C214.237 146.007 213.629 146.487 212.829 146.839C212.045 147.175 211.125 147.343 210.069 147.343ZM229.634 130.375C231.394 130.375 232.938 130.719 234.266 131.407C235.61 132.095 236.642 133.079 237.362 134.359C238.098 135.623 238.466 137.095 238.466 138.775C238.466 140.455 238.098 141.927 237.362 143.191C236.642 144.439 235.61 145.407 234.266 146.095C232.938 146.783 231.394 147.127 229.634 147.127H223.778V130.375H229.634ZM229.514 144.271C231.274 144.271 232.634 143.791 233.594 142.831C234.554 141.871 235.034 140.519 235.034 138.775C235.034 137.031 234.554 135.671 233.594 134.695C232.634 133.703 231.274 133.207 229.514 133.207H227.138V144.271H229.514ZM240.117 140.431C240.117 139.087 240.381 137.895 240.909 136.855C241.453 135.815 242.181 135.015 243.093 134.455C244.021 133.895 245.053 133.615 246.189 133.615C247.181 133.615 248.045 133.815 248.781 134.215C249.533 134.615 250.133 135.119 250.581 135.727V133.831H253.965V147.127H250.581V145.183C250.149 145.807 249.549 146.327 248.781 146.743C248.029 147.143 247.157 147.343 246.165 147.343C245.045 147.343 244.021 147.055 243.093 146.479C242.181 145.903 241.453 145.095 240.909 144.055C240.381 142.999 240.117 141.791 240.117 140.431ZM250.581 140.479C250.581 139.663 250.421 138.967 250.101 138.391C249.781 137.799 249.349 137.351 248.805 137.047C248.261 136.727 247.677 136.567 247.053 136.567C246.429 136.567 245.853 136.719 245.325 137.023C244.797 137.327 244.365 137.775 244.029 138.367C243.709 138.943 243.549 139.631 243.549 140.431C243.549 141.231 243.709 141.935 244.029 142.543C244.365 143.135 244.797 143.591 245.325 143.911C245.869 144.231 246.445 144.391 247.053 144.391C247.677 144.391 248.261 144.239 248.805 143.935C249.349 143.615 249.781 143.167 250.101 142.591C250.421 141.999 250.581 141.295 250.581 140.479ZM269.967 133.831L261.735 153.415H258.159L261.039 146.791L255.711 133.831H259.479L262.911 143.119L266.391 133.831H269.967ZM276.705 132.727V129.631H282.489V147.127H279.033V132.727H276.705Z" fill="white"/>
<path d="M82.4252 163.561C82.5052 164.001 82.6852 164.341 82.9652 164.581C83.2552 164.811 83.6402 164.926 84.1202 164.926C84.7402 164.926 85.1902 164.671 85.4702 164.161C85.7502 163.641 85.8902 162.771 85.8902 161.551C85.6602 161.871 85.3352 162.121 84.9152 162.301C84.5052 162.481 84.0602 162.571 83.5802 162.571C82.9402 162.571 82.3602 162.441 81.8402 162.181C81.3302 161.911 80.9252 161.516 80.6252 160.996C80.3252 160.466 80.1752 159.826 80.1752 159.076C80.1752 157.966 80.5052 157.086 81.1652 156.436C81.8252 155.776 82.7252 155.446 83.8652 155.446C85.2852 155.446 86.2852 155.901 86.8652 156.811C87.4552 157.721 87.7502 159.091 87.7502 160.921C87.7502 162.221 87.6352 163.286 87.4052 164.116C87.1852 164.946 86.8002 165.576 86.2502 166.006C85.7102 166.436 84.9702 166.651 84.0302 166.651C83.2902 166.651 82.6602 166.511 82.1402 166.231C81.6202 165.941 81.2202 165.566 80.9402 165.106C80.6702 164.636 80.5152 164.121 80.4752 163.561H82.4252ZM84.0152 160.861C84.5352 160.861 84.9452 160.701 85.2452 160.381C85.5452 160.061 85.6952 159.631 85.6952 159.091C85.6952 158.501 85.5352 158.046 85.2152 157.726C84.9052 157.396 84.4802 157.231 83.9402 157.231C83.4002 157.231 82.9702 157.401 82.6502 157.741C82.3402 158.071 82.1852 158.511 82.1852 159.061C82.1852 159.591 82.3352 160.026 82.6352 160.366C82.9452 160.696 83.4052 160.861 84.0152 160.861ZM90.5548 166.741C90.1748 166.741 89.8598 166.626 89.6098 166.396C89.3698 166.156 89.2498 165.861 89.2498 165.511C89.2498 165.161 89.3698 164.871 89.6098 164.641C89.8598 164.401 90.1748 164.281 90.5548 164.281C90.9248 164.281 91.2298 164.401 91.4698 164.641C91.7098 164.871 91.8298 165.161 91.8298 165.511C91.8298 165.861 91.7098 166.156 91.4698 166.396C91.2298 166.626 90.9248 166.741 90.5548 166.741ZM90.5548 160.531C90.1748 160.531 89.8598 160.416 89.6098 160.186C89.3698 159.946 89.2498 159.651 89.2498 159.301C89.2498 158.951 89.3698 158.661 89.6098 158.431C89.8598 158.191 90.1748 158.071 90.5548 158.071C90.9248 158.071 91.2298 158.191 91.4698 158.431C91.7098 158.661 91.8298 158.951 91.8298 159.301C91.8298 159.651 91.7098 159.946 91.4698 160.186C91.2298 160.416 90.9248 160.531 90.5548 160.531ZM93.3253 161.026C93.3253 159.296 93.6353 157.941 94.2553 156.961C94.8853 155.981 95.9253 155.491 97.3753 155.491C98.8253 155.491 99.8603 155.981 100.48 156.961C101.11 157.941 101.425 159.296 101.425 161.026C101.425 162.766 101.11 164.131 100.48 165.121C99.8603 166.111 98.8253 166.606 97.3753 166.606C95.9253 166.606 94.8853 166.111 94.2553 165.121C93.6353 164.131 93.3253 162.766 93.3253 161.026ZM99.3553 161.026C99.3553 160.286 99.3053 159.666 99.2053 159.166C99.1153 158.656 98.9253 158.241 98.6353 157.921C98.3553 157.601 97.9353 157.441 97.3753 157.441C96.8153 157.441 96.3903 157.601 96.1003 157.921C95.8203 158.241 95.6303 158.656 95.5303 159.166C95.4403 159.666 95.3953 160.286 95.3953 161.026C95.3953 161.786 95.4403 162.426 95.5303 162.946C95.6203 163.456 95.8103 163.871 96.1003 164.191C96.3903 164.501 96.8153 164.656 97.3753 164.656C97.9353 164.656 98.3603 164.501 98.6503 164.191C98.9403 163.871 99.1303 163.456 99.2203 162.946C99.3103 162.426 99.3553 161.786 99.3553 161.026ZM103.023 161.026C103.023 159.296 103.333 157.941 103.953 156.961C104.583 155.981 105.623 155.491 107.073 155.491C108.523 155.491 109.558 155.981 110.178 156.961C110.808 157.941 111.123 159.296 111.123 161.026C111.123 162.766 110.808 164.131 110.178 165.121C109.558 166.111 108.523 166.606 107.073 166.606C105.623 166.606 104.583 166.111 103.953 165.121C103.333 164.131 103.023 162.766 103.023 161.026ZM109.053 161.026C109.053 160.286 109.003 159.666 108.903 159.166C108.813 158.656 108.623 158.241 108.333 157.921C108.053 157.601 107.633 157.441 107.073 157.441C106.513 157.441 106.088 157.601 105.798 157.921C105.518 158.241 105.328 158.656 105.228 159.166C105.138 159.666 105.093 160.286 105.093 161.026C105.093 161.786 105.138 162.426 105.228 162.946C105.318 163.456 105.508 163.871 105.798 164.191C106.088 164.501 106.513 164.656 107.073 164.656C107.633 164.656 108.058 164.501 108.348 164.191C108.638 163.871 108.828 163.456 108.918 162.946C109.008 162.426 109.053 161.786 109.053 161.026ZM115.994 162.451C115.994 161.611 116.159 160.866 116.489 160.216C116.829 159.566 117.284 159.066 117.854 158.716C118.434 158.366 119.079 158.191 119.789 158.191C120.409 158.191 120.949 158.316 121.409 158.566C121.879 158.816 122.254 159.131 122.534 159.511V158.326H124.649V166.636H122.534V165.421C122.264 165.811 121.889 166.136 121.409 166.396C120.939 166.646 120.394 166.771 119.774 166.771C119.074 166.771 118.434 166.591 117.854 166.231C117.284 165.871 116.829 165.366 116.489 164.716C116.159 164.056 115.994 163.301 115.994 162.451ZM122.534 162.481C122.534 161.971 122.434 161.536 122.234 161.176C122.034 160.806 121.764 160.526 121.424 160.336C121.084 160.136 120.719 160.036 120.329 160.036C119.939 160.036 119.579 160.131 119.249 160.321C118.919 160.511 118.649 160.791 118.439 161.161C118.239 161.521 118.139 161.951 118.139 162.451C118.139 162.951 118.239 163.391 118.439 163.771C118.649 164.141 118.919 164.426 119.249 164.626C119.589 164.826 119.949 164.926 120.329 164.926C120.719 164.926 121.084 164.831 121.424 164.641C121.764 164.441 122.034 164.161 122.234 163.801C122.434 163.431 122.534 162.991 122.534 162.481ZM137.02 158.206C138.04 158.206 138.86 158.521 139.48 159.151C140.11 159.771 140.425 160.641 140.425 161.761V166.636H138.325V162.046C138.325 161.396 138.16 160.901 137.83 160.561C137.5 160.211 137.05 160.036 136.48 160.036C135.91 160.036 135.455 160.211 135.115 160.561C134.785 160.901 134.62 161.396 134.62 162.046V166.636H132.52V162.046C132.52 161.396 132.355 160.901 132.025 160.561C131.695 160.211 131.245 160.036 130.675 160.036C130.095 160.036 129.635 160.211 129.295 160.561C128.965 160.901 128.8 161.396 128.8 162.046V166.636H126.7V158.326H128.8V159.331C129.07 158.981 129.415 158.706 129.835 158.506C130.265 158.306 130.735 158.206 131.245 158.206C131.895 158.206 132.475 158.346 132.985 158.626C133.495 158.896 133.89 159.286 134.17 159.796C134.44 159.316 134.83 158.931 135.34 158.641C135.86 158.351 136.42 158.206 137.02 158.206ZM152.382 160.396V162.166H146.022V160.396H152.382ZM157.981 164.506V162.856L162.886 155.836H165.331V162.676H166.651V164.506H165.331V166.636H163.231V164.506H157.981ZM163.366 158.086L160.291 162.676H163.366V158.086ZM169.158 166.741C168.778 166.741 168.463 166.626 168.213 166.396C167.973 166.156 167.853 165.861 167.853 165.511C167.853 165.161 167.973 164.871 168.213 164.641C168.463 164.401 168.778 164.281 169.158 164.281C169.528 164.281 169.833 164.401 170.073 164.641C170.313 164.871 170.433 165.161 170.433 165.511C170.433 165.861 170.313 166.156 170.073 166.396C169.833 166.626 169.528 166.741 169.158 166.741ZM169.158 160.531C168.778 160.531 168.463 160.416 168.213 160.186C167.973 159.946 167.853 159.651 167.853 159.301C167.853 158.951 167.973 158.661 168.213 158.431C168.463 158.191 168.778 158.071 169.158 158.071C169.528 158.071 169.833 158.191 170.073 158.431C170.313 158.661 170.433 158.951 170.433 159.301C170.433 159.651 170.313 159.946 170.073 160.186C169.833 160.416 169.528 160.531 169.158 160.531ZM171.929 161.026C171.929 159.296 172.239 157.941 172.859 156.961C173.489 155.981 174.529 155.491 175.979 155.491C177.429 155.491 178.464 155.981 179.084 156.961C179.714 157.941 180.029 159.296 180.029 161.026C180.029 162.766 179.714 164.131 179.084 165.121C178.464 166.111 177.429 166.606 175.979 166.606C174.529 166.606 173.489 166.111 172.859 165.121C172.239 164.131 171.929 162.766 171.929 161.026ZM177.959 161.026C177.959 160.286 177.909 159.666 177.809 159.166C177.719 158.656 177.529 158.241 177.239 157.921C176.959 157.601 176.539 157.441 175.979 157.441C175.419 157.441 174.994 157.601 174.704 157.921C174.424 158.241 174.234 158.656 174.134 159.166C174.044 159.666 173.999 160.286 173.999 161.026C173.999 161.786 174.044 162.426 174.134 162.946C174.224 163.456 174.414 163.871 174.704 164.191C174.994 164.501 175.419 164.656 175.979 164.656C176.539 164.656 176.964 164.501 177.254 164.191C177.544 163.871 177.734 163.456 177.824 162.946C177.914 162.426 177.959 161.786 177.959 161.026ZM181.626 161.026C181.626 159.296 181.936 157.941 182.556 156.961C183.186 155.981 184.226 155.491 185.676 155.491C187.126 155.491 188.161 155.981 188.781 156.961C189.411 157.941 189.726 159.296 189.726 161.026C189.726 162.766 189.411 164.131 188.781 165.121C188.161 166.111 187.126 166.606 185.676 166.606C184.226 166.606 183.186 166.111 182.556 165.121C181.936 164.131 181.626 162.766 181.626 161.026ZM187.656 161.026C187.656 160.286 187.606 159.666 187.506 159.166C187.416 158.656 187.226 158.241 186.936 157.921C186.656 157.601 186.236 157.441 185.676 157.441C185.116 157.441 184.691 157.601 184.401 157.921C184.121 158.241 183.931 158.656 183.831 159.166C183.741 159.666 183.696 160.286 183.696 161.026C183.696 161.786 183.741 162.426 183.831 162.946C183.921 163.456 184.111 163.871 184.401 164.191C184.691 164.501 185.116 164.656 185.676 164.656C186.236 164.656 186.661 164.501 186.951 164.191C187.241 163.871 187.431 163.456 187.521 162.946C187.611 162.426 187.656 161.786 187.656 161.026ZM197.238 159.526C197.508 159.146 197.878 158.831 198.348 158.581C198.828 158.321 199.373 158.191 199.983 158.191C200.693 158.191 201.333 158.366 201.903 158.716C202.483 159.066 202.938 159.566 203.268 160.216C203.608 160.856 203.778 161.601 203.778 162.451C203.778 163.301 203.608 164.056 203.268 164.716C202.938 165.366 202.483 165.871 201.903 166.231C201.333 166.591 200.693 166.771 199.983 166.771C199.373 166.771 198.833 166.646 198.363 166.396C197.903 166.146 197.528 165.831 197.238 165.451V170.596H195.138V158.326H197.238V159.526ZM201.633 162.451C201.633 161.951 201.528 161.521 201.318 161.161C201.118 160.791 200.848 160.511 200.508 160.321C200.178 160.131 199.818 160.036 199.428 160.036C199.048 160.036 198.688 160.136 198.348 160.336C198.018 160.526 197.748 160.806 197.538 161.176C197.338 161.546 197.238 161.981 197.238 162.481C197.238 162.981 197.338 163.416 197.538 163.786C197.748 164.156 198.018 164.441 198.348 164.641C198.688 164.831 199.048 164.926 199.428 164.926C199.818 164.926 200.178 164.826 200.508 164.626C200.848 164.426 201.118 164.141 201.318 163.771C201.528 163.401 201.633 162.961 201.633 162.451ZM215.624 158.206C216.644 158.206 217.464 158.521 218.084 159.151C218.714 159.771 219.029 160.641 219.029 161.761V166.636H216.929V162.046C216.929 161.396 216.764 160.901 216.434 160.561C216.104 160.211 215.654 160.036 215.084 160.036C214.514 160.036 214.059 160.211 213.719 160.561C213.389 160.901 213.224 161.396 213.224 162.046V166.636H211.124V162.046C211.124 161.396 210.959 160.901 210.629 160.561C210.299 160.211 209.849 160.036 209.279 160.036C208.699 160.036 208.239 160.211 207.899 160.561C207.569 160.901 207.404 161.396 207.404 162.046V166.636H205.304V158.326H207.404V159.331C207.674 158.981 208.019 158.706 208.439 158.506C208.869 158.306 209.339 158.206 209.849 158.206C210.499 158.206 211.079 158.346 211.589 158.626C212.099 158.896 212.494 159.286 212.774 159.796C213.044 159.316 213.434 158.931 213.944 158.641C214.464 158.351 215.024 158.206 215.624 158.206Z" fill="white"/>
<path d="M102.44 406.474V426.018H98.5202V413.306L93.2842 426.018H90.3162L85.0522 413.306V426.018H81.1322V406.474H85.5842L91.8002 421.006L98.0162 406.474H102.44ZM120.96 410.506V426.018H117.012V424.058C116.508 424.73 115.845 425.262 115.024 425.654C114.221 426.028 113.344 426.214 112.392 426.214C111.178 426.214 110.105 425.962 109.172 425.458C108.238 424.936 107.501 424.18 106.96 423.19C106.437 422.182 106.176 420.988 106.176 419.606V410.506H110.096V419.046C110.096 420.278 110.404 421.23 111.02 421.902C111.636 422.556 112.476 422.882 113.54 422.882C114.622 422.882 115.472 422.556 116.088 421.902C116.704 421.23 117.012 420.278 117.012 419.046V410.506H120.96ZM130.764 426.27C129.494 426.27 128.356 426.046 127.348 425.598C126.34 425.132 125.537 424.506 124.94 423.722C124.361 422.938 124.044 422.07 123.988 421.118H127.936C128.01 421.716 128.3 422.21 128.804 422.602C129.326 422.994 129.97 423.19 130.736 423.19C131.482 423.19 132.061 423.041 132.472 422.742C132.901 422.444 133.116 422.061 133.116 421.594C133.116 421.09 132.854 420.717 132.332 420.474C131.828 420.213 131.016 419.933 129.896 419.634C128.738 419.354 127.786 419.065 127.04 418.766C126.312 418.468 125.677 418.01 125.136 417.394C124.613 416.778 124.352 415.948 124.352 414.902C124.352 414.044 124.594 413.26 125.08 412.55C125.584 411.841 126.293 411.281 127.208 410.87C128.141 410.46 129.233 410.254 130.484 410.254C132.332 410.254 133.806 410.721 134.908 411.654C136.009 412.569 136.616 413.81 136.728 415.378H132.976C132.92 414.762 132.658 414.277 132.192 413.922C131.744 413.549 131.137 413.362 130.372 413.362C129.662 413.362 129.112 413.493 128.72 413.754C128.346 414.016 128.16 414.38 128.16 414.846C128.16 415.369 128.421 415.77 128.944 416.05C129.466 416.312 130.278 416.582 131.38 416.862C132.5 417.142 133.424 417.432 134.152 417.73C134.88 418.029 135.505 418.496 136.028 419.13C136.569 419.746 136.849 420.568 136.868 421.594C136.868 422.49 136.616 423.293 136.112 424.002C135.626 424.712 134.917 425.272 133.984 425.682C133.069 426.074 131.996 426.27 130.764 426.27ZM142.073 408.658C141.383 408.658 140.804 408.444 140.337 408.014C139.889 407.566 139.665 407.016 139.665 406.362C139.665 405.709 139.889 405.168 140.337 404.738C140.804 404.29 141.383 404.066 142.073 404.066C142.764 404.066 143.333 404.29 143.781 404.738C144.248 405.168 144.481 405.709 144.481 406.362C144.481 407.016 144.248 407.566 143.781 408.014C143.333 408.444 142.764 408.658 142.073 408.658ZM144.005 410.506V426.018H140.085V410.506H144.005ZM146.87 418.262C146.87 416.657 147.197 415.257 147.85 414.062C148.504 412.849 149.409 411.916 150.566 411.262C151.724 410.59 153.049 410.254 154.542 410.254C156.465 410.254 158.052 410.74 159.302 411.71C160.572 412.662 161.421 414.006 161.85 415.742H157.622C157.398 415.07 157.016 414.548 156.474 414.174C155.952 413.782 155.298 413.586 154.514 413.586C153.394 413.586 152.508 413.997 151.854 414.818C151.201 415.621 150.874 416.769 150.874 418.262C150.874 419.737 151.201 420.885 151.854 421.706C152.508 422.509 153.394 422.91 154.514 422.91C156.101 422.91 157.137 422.201 157.622 420.782H161.85C161.421 422.462 160.572 423.797 159.302 424.786C158.033 425.776 156.446 426.27 154.542 426.27C153.049 426.27 151.724 425.944 150.566 425.29C149.409 424.618 148.504 423.685 147.85 422.49C147.197 421.277 146.87 419.868 146.87 418.262ZM179.99 410.282C181.838 410.282 183.331 410.87 184.47 412.046C185.609 413.204 186.178 414.828 186.178 416.918V426.018H182.258V417.45C182.258 416.218 181.95 415.276 181.334 414.622C180.718 413.95 179.878 413.614 178.814 413.614C177.731 413.614 176.873 413.95 176.238 414.622C175.622 415.276 175.314 416.218 175.314 417.45V426.018H171.394V410.506H175.314V412.438C175.837 411.766 176.499 411.244 177.302 410.87C178.123 410.478 179.019 410.282 179.99 410.282ZM191.894 408.658C191.203 408.658 190.624 408.444 190.158 408.014C189.71 407.566 189.486 407.016 189.486 406.362C189.486 405.709 189.71 405.168 190.158 404.738C190.624 404.29 191.203 404.066 191.894 404.066C192.584 404.066 193.154 404.29 193.602 404.738C194.068 405.168 194.302 405.709 194.302 406.362C194.302 407.016 194.068 407.566 193.602 408.014C193.154 408.444 192.584 408.658 191.894 408.658ZM193.826 410.506V426.018H189.906V410.506H193.826ZM203.775 410.254C204.932 410.254 205.949 410.488 206.827 410.954C207.704 411.402 208.395 411.99 208.899 412.718V410.506H212.847V426.13C212.847 427.568 212.557 428.846 211.979 429.966C211.4 431.105 210.532 432.001 209.375 432.654C208.217 433.326 206.817 433.662 205.175 433.662C202.972 433.662 201.161 433.149 199.743 432.122C198.343 431.096 197.549 429.696 197.363 427.922H201.255C201.46 428.632 201.899 429.192 202.571 429.602C203.261 430.032 204.092 430.246 205.063 430.246C206.201 430.246 207.125 429.901 207.835 429.21C208.544 428.538 208.899 427.512 208.899 426.13V423.722C208.395 424.45 207.695 425.057 206.799 425.542C205.921 426.028 204.913 426.27 203.775 426.27C202.468 426.27 201.273 425.934 200.191 425.262C199.108 424.59 198.249 423.648 197.615 422.434C196.999 421.202 196.691 419.793 196.691 418.206C196.691 416.638 196.999 415.248 197.615 414.034C198.249 412.821 199.099 411.888 200.163 411.234C201.245 410.581 202.449 410.254 203.775 410.254ZM208.899 418.262C208.899 417.31 208.712 416.498 208.339 415.826C207.965 415.136 207.461 414.613 206.827 414.258C206.192 413.885 205.511 413.698 204.783 413.698C204.055 413.698 203.383 413.876 202.767 414.23C202.151 414.585 201.647 415.108 201.255 415.798C200.881 416.47 200.695 417.273 200.695 418.206C200.695 419.14 200.881 419.961 201.255 420.67C201.647 421.361 202.151 421.893 202.767 422.266C203.401 422.64 204.073 422.826 204.783 422.826C205.511 422.826 206.192 422.649 206.827 422.294C207.461 421.921 207.965 421.398 208.339 420.726C208.712 420.036 208.899 419.214 208.899 418.262ZM225.411 410.282C226.587 410.282 227.632 410.544 228.547 411.066C229.462 411.57 230.171 412.326 230.675 413.334C231.198 414.324 231.459 415.518 231.459 416.918V426.018H227.539V417.45C227.539 416.218 227.231 415.276 226.615 414.622C225.999 413.95 225.159 413.614 224.095 413.614C223.012 413.614 222.154 413.95 221.519 414.622C220.903 415.276 220.595 416.218 220.595 417.45V426.018H216.675V405.298H220.595V412.438C221.099 411.766 221.771 411.244 222.611 410.87C223.451 410.478 224.384 410.282 225.411 410.282ZM239.751 413.726V421.23C239.751 421.753 239.872 422.136 240.115 422.378C240.376 422.602 240.806 422.714 241.403 422.714H243.223V426.018H240.759C237.455 426.018 235.803 424.413 235.803 421.202V413.726H233.955V410.506H235.803V406.67H239.751V410.506H243.223V413.726H239.751Z" fill="white"/>
<path d="M81.8252 442.883C80.8252 442.363 80.3252 441.558 80.3252 440.468C80.3252 439.928 80.4602 439.438 80.7302 438.998C81.0102 438.548 81.4252 438.193 81.9752 437.933C82.5352 437.663 83.2152 437.528 84.0152 437.528C84.8152 437.528 85.4902 437.663 86.0402 437.933C86.6002 438.193 87.0152 438.548 87.2852 438.998C87.5652 439.438 87.7052 439.928 87.7052 440.468C87.7052 441.018 87.5702 441.503 87.3002 441.923C87.0302 442.333 86.6702 442.653 86.2202 442.883C86.7702 443.123 87.2002 443.473 87.5102 443.933C87.8202 444.393 87.9752 444.938 87.9752 445.568C87.9752 446.248 87.8002 446.843 87.4502 447.353C87.1102 447.853 86.6402 448.238 86.0402 448.508C85.4402 448.778 84.7652 448.913 84.0152 448.913C83.2652 448.913 82.5902 448.778 81.9902 448.508C81.4002 448.238 80.9302 447.853 80.5802 447.353C80.2402 446.843 80.0702 446.248 80.0702 445.568C80.0702 444.938 80.2252 444.393 80.5352 443.933C80.8452 443.463 81.2752 443.113 81.8252 442.883ZM85.6652 440.768C85.6652 440.278 85.5152 439.898 85.2152 439.628C84.9252 439.358 84.5252 439.223 84.0152 439.223C83.5152 439.223 83.1152 439.358 82.8152 439.628C82.5252 439.898 82.3802 440.283 82.3802 440.783C82.3802 441.233 82.5302 441.593 82.8302 441.863C83.1402 442.133 83.5352 442.268 84.0152 442.268C84.4952 442.268 84.8902 442.133 85.2002 441.863C85.5102 441.583 85.6652 441.218 85.6652 440.768ZM84.0152 443.798C83.4452 443.798 82.9802 443.943 82.6202 444.233C82.2702 444.523 82.0952 444.938 82.0952 445.478C82.0952 445.978 82.2652 446.388 82.6052 446.708C82.9552 447.018 83.4252 447.173 84.0152 447.173C84.6052 447.173 85.0702 447.013 85.4102 446.693C85.7502 446.373 85.9202 445.968 85.9202 445.478C85.9202 444.948 85.7452 444.538 85.3952 444.248C85.0452 443.948 84.5852 443.798 84.0152 443.798ZM90.8039 448.778C90.4239 448.778 90.1089 448.663 89.8589 448.433C89.6189 448.193 89.4989 447.898 89.4989 447.548C89.4989 447.198 89.6189 446.908 89.8589 446.678C90.1089 446.438 90.4239 446.318 90.8039 446.318C91.1739 446.318 91.4789 446.438 91.7189 446.678C91.9589 446.908 92.0789 447.198 92.0789 447.548C92.0789 447.898 91.9589 448.193 91.7189 448.433C91.4789 448.663 91.1739 448.778 90.8039 448.778ZM90.8039 442.568C90.4239 442.568 90.1089 442.453 89.8589 442.223C89.6189 441.983 89.4989 441.688 89.4989 441.338C89.4989 440.988 89.6189 440.698 89.8589 440.468C90.1089 440.228 90.4239 440.108 90.8039 440.108C91.1739 440.108 91.4789 440.228 91.7189 440.468C91.9589 440.698 92.0789 440.988 92.0789 441.338C92.0789 441.688 91.9589 441.983 91.7189 442.223C91.4789 442.453 91.1739 442.568 90.8039 442.568ZM93.6043 440.618C93.6543 439.618 94.0043 438.848 94.6543 438.308C95.3143 437.758 96.1793 437.483 97.2493 437.483C97.9793 437.483 98.6043 437.613 99.1243 437.873C99.6443 438.123 100.034 438.468 100.294 438.908C100.564 439.338 100.699 439.828 100.699 440.378C100.699 441.008 100.534 441.543 100.204 441.983C99.8843 442.413 99.4993 442.703 99.0493 442.853V442.913C99.6293 443.093 100.079 443.413 100.399 443.873C100.729 444.333 100.894 444.923 100.894 445.643C100.894 446.243 100.754 446.778 100.474 447.248C100.204 447.718 99.7993 448.088 99.2593 448.358C98.7293 448.618 98.0893 448.748 97.3393 448.748C96.2093 448.748 95.2893 448.463 94.5793 447.893C93.8693 447.323 93.4943 446.483 93.4543 445.373H95.4943C95.5143 445.863 95.6793 446.258 95.9893 446.558C96.3093 446.848 96.7443 446.993 97.2943 446.993C97.8043 446.993 98.1943 446.853 98.4643 446.573C98.7443 446.283 98.8843 445.913 98.8843 445.463C98.8843 444.863 98.6943 444.433 98.3143 444.173C97.9343 443.913 97.3443 443.783 96.5443 443.783H96.1093V442.058H96.5443C97.9643 442.058 98.6743 441.583 98.6743 440.633C98.6743 440.203 98.5443 439.868 98.2843 439.628C98.0343 439.388 97.6693 439.268 97.1893 439.268C96.7193 439.268 96.3543 439.398 96.0943 439.658C95.8443 439.908 95.6993 440.228 95.6593 440.618H93.6043ZM102.554 443.063C102.554 441.333 102.864 439.978 103.484 438.998C104.114 438.018 105.154 437.528 106.604 437.528C108.054 437.528 109.089 438.018 109.709 438.998C110.339 439.978 110.654 441.333 110.654 443.063C110.654 444.803 110.339 446.168 109.709 447.158C109.089 448.148 108.054 448.643 106.604 448.643C105.154 448.643 104.114 448.148 103.484 447.158C102.864 446.168 102.554 444.803 102.554 443.063ZM108.584 443.063C108.584 442.323 108.534 441.703 108.434 441.203C108.344 440.693 108.154 440.278 107.864 439.958C107.584 439.638 107.164 439.478 106.604 439.478C106.044 439.478 105.619 439.638 105.329 439.958C105.049 440.278 104.859 440.693 104.759 441.203C104.669 441.703 104.624 442.323 104.624 443.063C104.624 443.823 104.669 444.463 104.759 444.983C104.849 445.493 105.039 445.908 105.329 446.228C105.619 446.538 106.044 446.693 106.604 446.693C107.164 446.693 107.589 446.538 107.879 446.228C108.169 445.908 108.359 445.493 108.449 444.983C108.539 444.463 108.584 443.823 108.584 443.063ZM118.165 441.563C118.435 441.183 118.805 440.868 119.275 440.618C119.755 440.358 120.3 440.228 120.91 440.228C121.62 440.228 122.26 440.403 122.83 440.753C123.41 441.103 123.865 441.603 124.195 442.253C124.535 442.893 124.705 443.638 124.705 444.488C124.705 445.338 124.535 446.093 124.195 446.753C123.865 447.403 123.41 447.908 122.83 448.268C122.26 448.628 121.62 448.808 120.91 448.808C120.3 448.808 119.76 448.683 119.29 448.433C118.83 448.183 118.455 447.868 118.165 447.488V452.633H116.065V440.363H118.165V441.563ZM122.56 444.488C122.56 443.988 122.455 443.558 122.245 443.198C122.045 442.828 121.775 442.548 121.435 442.358C121.105 442.168 120.745 442.073 120.355 442.073C119.975 442.073 119.615 442.173 119.275 442.373C118.945 442.563 118.675 442.843 118.465 443.213C118.265 443.583 118.165 444.018 118.165 444.518C118.165 445.018 118.265 445.453 118.465 445.823C118.675 446.193 118.945 446.478 119.275 446.678C119.615 446.868 119.975 446.963 120.355 446.963C120.745 446.963 121.105 446.863 121.435 446.663C121.775 446.463 122.045 446.178 122.245 445.808C122.455 445.438 122.56 444.998 122.56 444.488ZM136.551 440.243C137.571 440.243 138.391 440.558 139.011 441.188C139.641 441.808 139.956 442.678 139.956 443.798V448.673H137.856V444.083C137.856 443.433 137.691 442.938 137.361 442.598C137.031 442.248 136.581 442.073 136.011 442.073C135.441 442.073 134.986 442.248 134.646 442.598C134.316 442.938 134.151 443.433 134.151 444.083V448.673H132.051V444.083C132.051 443.433 131.886 442.938 131.556 442.598C131.226 442.248 130.776 442.073 130.206 442.073C129.626 442.073 129.166 442.248 128.826 442.598C128.496 442.938 128.331 443.433 128.331 444.083V448.673H126.231V440.363H128.331V441.368C128.601 441.018 128.946 440.743 129.366 440.543C129.796 440.343 130.266 440.243 130.776 440.243C131.426 440.243 132.006 440.383 132.516 440.663C133.026 440.933 133.421 441.323 133.701 441.833C133.971 441.353 134.361 440.968 134.871 440.678C135.391 440.388 135.951 440.243 136.551 440.243ZM151.913 442.433V444.203H145.553V442.433H151.913ZM157.348 439.673V437.738H160.963V448.673H158.803V439.673H157.348ZM163.037 443.063C163.037 441.333 163.347 439.978 163.967 438.998C164.597 438.018 165.637 437.528 167.087 437.528C168.537 437.528 169.572 438.018 170.192 438.998C170.822 439.978 171.137 441.333 171.137 443.063C171.137 444.803 170.822 446.168 170.192 447.158C169.572 448.148 168.537 448.643 167.087 448.643C165.637 448.643 164.597 448.148 163.967 447.158C163.347 446.168 163.037 444.803 163.037 443.063ZM169.067 443.063C169.067 442.323 169.017 441.703 168.917 441.203C168.827 440.693 168.637 440.278 168.347 439.958C168.067 439.638 167.647 439.478 167.087 439.478C166.527 439.478 166.102 439.638 165.812 439.958C165.532 440.278 165.342 440.693 165.242 441.203C165.152 441.703 165.107 442.323 165.107 443.063C165.107 443.823 165.152 444.463 165.242 444.983C165.332 445.493 165.522 445.908 165.812 446.228C166.102 446.538 166.527 446.693 167.087 446.693C167.647 446.693 168.072 446.538 168.362 446.228C168.652 445.908 168.842 445.493 168.932 444.983C169.022 444.463 169.067 443.823 169.067 443.063ZM173.904 448.778C173.524 448.778 173.209 448.663 172.959 448.433C172.719 448.193 172.599 447.898 172.599 447.548C172.599 447.198 172.719 446.908 172.959 446.678C173.209 446.438 173.524 446.318 173.904 446.318C174.274 446.318 174.579 446.438 174.819 446.678C175.059 446.908 175.179 447.198 175.179 447.548C175.179 447.898 175.059 448.193 174.819 448.433C174.579 448.663 174.274 448.778 173.904 448.778ZM173.904 442.568C173.524 442.568 173.209 442.453 172.959 442.223C172.719 441.983 172.599 441.688 172.599 441.338C172.599 440.988 172.719 440.698 172.959 440.468C173.209 440.228 173.524 440.108 173.904 440.108C174.274 440.108 174.579 440.228 174.819 440.468C175.059 440.698 175.179 440.988 175.179 441.338C175.179 441.688 175.059 441.983 174.819 442.223C174.579 442.453 174.274 442.568 173.904 442.568ZM176.675 443.063C176.675 441.333 176.985 439.978 177.605 438.998C178.235 438.018 179.275 437.528 180.725 437.528C182.175 437.528 183.21 438.018 183.83 438.998C184.46 439.978 184.775 441.333 184.775 443.063C184.775 444.803 184.46 446.168 183.83 447.158C183.21 448.148 182.175 448.643 180.725 448.643C179.275 448.643 178.235 448.148 177.605 447.158C176.985 446.168 176.675 444.803 176.675 443.063ZM182.705 443.063C182.705 442.323 182.655 441.703 182.555 441.203C182.465 440.693 182.275 440.278 181.985 439.958C181.705 439.638 181.285 439.478 180.725 439.478C180.165 439.478 179.74 439.638 179.45 439.958C179.17 440.278 178.98 440.693 178.88 441.203C178.79 441.703 178.745 442.323 178.745 443.063C178.745 443.823 178.79 444.463 178.88 444.983C178.97 445.493 179.16 445.908 179.45 446.228C179.74 446.538 180.165 446.693 180.725 446.693C181.285 446.693 181.71 446.538 182 446.228C182.29 445.908 182.48 445.493 182.57 444.983C182.66 444.463 182.705 443.823 182.705 443.063ZM186.372 443.063C186.372 441.333 186.682 439.978 187.302 438.998C187.932 438.018 188.972 437.528 190.422 437.528C191.872 437.528 192.907 438.018 193.527 438.998C194.157 439.978 194.472 441.333 194.472 443.063C194.472 444.803 194.157 446.168 193.527 447.158C192.907 448.148 191.872 448.643 190.422 448.643C188.972 448.643 187.932 448.148 187.302 447.158C186.682 446.168 186.372 444.803 186.372 443.063ZM192.402 443.063C192.402 442.323 192.352 441.703 192.252 441.203C192.162 440.693 191.972 440.278 191.682 439.958C191.402 439.638 190.982 439.478 190.422 439.478C189.862 439.478 189.437 439.638 189.147 439.958C188.867 440.278 188.677 440.693 188.577 441.203C188.487 441.703 188.442 442.323 188.442 443.063C188.442 443.823 188.487 444.463 188.577 444.983C188.667 445.493 188.857 445.908 189.147 446.228C189.437 446.538 189.862 446.693 190.422 446.693C190.982 446.693 191.407 446.538 191.697 446.228C191.987 445.908 192.177 445.493 192.267 444.983C192.357 444.463 192.402 443.823 192.402 443.063ZM201.984 441.563C202.254 441.183 202.624 440.868 203.094 440.618C203.574 440.358 204.119 440.228 204.729 440.228C205.439 440.228 206.079 440.403 206.649 440.753C207.229 441.103 207.684 441.603 208.014 442.253C208.354 442.893 208.524 443.638 208.524 444.488C208.524 445.338 208.354 446.093 208.014 446.753C207.684 447.403 207.229 447.908 206.649 448.268C206.079 448.628 205.439 448.808 204.729 448.808C204.119 448.808 203.579 448.683 203.109 448.433C202.649 448.183 202.274 447.868 201.984 447.488V452.633H199.884V440.363H201.984V441.563ZM206.379 444.488C206.379 443.988 206.274 443.558 206.064 443.198C205.864 442.828 205.594 442.548 205.254 442.358C204.924 442.168 204.564 442.073 204.174 442.073C203.794 442.073 203.434 442.173 203.094 442.373C202.764 442.563 202.494 442.843 202.284 443.213C202.084 443.583 201.984 444.018 201.984 444.518C201.984 445.018 202.084 445.453 202.284 445.823C202.494 446.193 202.764 446.478 203.094 446.678C203.434 446.868 203.794 446.963 204.174 446.963C204.564 446.963 204.924 446.863 205.254 446.663C205.594 446.463 205.864 446.178 206.064 445.808C206.274 445.438 206.379 444.998 206.379 444.488ZM220.37 440.243C221.39 440.243 222.21 440.558 222.83 441.188C223.46 441.808 223.775 442.678 223.775 443.798V448.673H221.675V444.083C221.675 443.433 221.51 442.938 221.18 442.598C220.85 442.248 220.4 442.073 219.83 442.073C219.26 442.073 218.805 442.248 218.465 442.598C218.135 442.938 217.97 443.433 217.97 444.083V448.673H215.87V444.083C215.87 443.433 215.705 442.938 215.375 442.598C215.045 442.248 214.595 442.073 214.025 442.073C213.445 442.073 212.985 442.248 212.645 442.598C212.315 442.938 212.15 443.433 212.15 444.083V448.673H210.05V440.363H212.15V441.368C212.42 441.018 212.765 440.743 213.185 440.543C213.615 440.343 214.085 440.243 214.595 440.243C215.245 440.243 215.825 440.383 216.335 440.663C216.845 440.933 217.24 441.323 217.52 441.833C217.79 441.353 218.18 440.968 218.69 440.678C219.21 440.388 219.77 440.243 220.37 440.243Z" fill="white"/>
<path d="M96.6722 318.911L90.0642 331.651V338.455H86.1442V331.651L79.5082 318.911H83.9322L88.1322 327.843L92.3042 318.911H96.6722ZM113.185 324.959C113.185 326.004 112.933 326.984 112.429 327.899C111.944 328.813 111.169 329.551 110.105 330.111C109.06 330.671 107.734 330.951 106.129 330.951H102.853V338.455H98.933V318.911H106.129C107.641 318.911 108.929 319.172 109.993 319.695C111.057 320.217 111.85 320.936 112.373 321.851C112.914 322.765 113.185 323.801 113.185 324.959ZM105.961 327.787C107.044 327.787 107.846 327.544 108.369 327.059C108.892 326.555 109.153 325.855 109.153 324.959C109.153 323.055 108.089 322.103 105.961 322.103H102.853V327.787H105.961ZM135.94 318.911V322.075H130.732V338.455H126.812V322.075H121.604V318.911H135.94ZM137.792 330.643C137.792 329.075 138.1 327.684 138.716 326.471C139.351 325.257 140.2 324.324 141.264 323.671C142.347 323.017 143.551 322.691 144.876 322.691C146.033 322.691 147.041 322.924 147.9 323.391C148.777 323.857 149.477 324.445 150 325.155V322.943H153.948V338.455H150V336.187C149.496 336.915 148.796 337.521 147.9 338.007C147.023 338.473 146.005 338.707 144.848 338.707C143.541 338.707 142.347 338.371 141.264 337.699C140.2 337.027 139.351 336.084 138.716 334.871C138.1 333.639 137.792 332.229 137.792 330.643ZM150 330.699C150 329.747 149.813 328.935 149.44 328.263C149.067 327.572 148.563 327.049 147.928 326.695C147.293 326.321 146.612 326.135 145.884 326.135C145.156 326.135 144.484 326.312 143.868 326.667C143.252 327.021 142.748 327.544 142.356 328.235C141.983 328.907 141.796 329.709 141.796 330.643C141.796 331.576 141.983 332.397 142.356 333.107C142.748 333.797 143.252 334.329 143.868 334.703C144.503 335.076 145.175 335.263 145.884 335.263C146.612 335.263 147.293 335.085 147.928 334.731C148.563 334.357 149.067 333.835 149.44 333.163C149.813 332.472 150 331.651 150 330.699ZM161.697 317.735V338.455H157.777V317.735H161.697ZM174.754 338.455L169.49 331.847V338.455H165.57V317.735H169.49V329.523L174.698 322.943H179.794L172.962 330.727L179.85 338.455H174.754ZM187.857 338.707C186.588 338.707 185.449 338.483 184.441 338.035C183.433 337.568 182.631 336.943 182.033 336.159C181.455 335.375 181.137 334.507 181.081 333.555H185.029C185.104 334.152 185.393 334.647 185.897 335.039C186.42 335.431 187.064 335.627 187.829 335.627C188.576 335.627 189.155 335.477 189.565 335.179C189.995 334.88 190.209 334.497 190.209 334.031C190.209 333.527 189.948 333.153 189.425 332.911C188.921 332.649 188.109 332.369 186.989 332.071C185.832 331.791 184.88 331.501 184.133 331.203C183.405 330.904 182.771 330.447 182.229 329.831C181.707 329.215 181.445 328.384 181.445 327.339C181.445 326.48 181.688 325.696 182.173 324.987C182.677 324.277 183.387 323.717 184.301 323.307C185.235 322.896 186.327 322.691 187.577 322.691C189.425 322.691 190.9 323.157 192.001 324.091C193.103 325.005 193.709 326.247 193.821 327.815H190.069C190.013 327.199 189.752 326.713 189.285 326.359C188.837 325.985 188.231 325.799 187.465 325.799C186.756 325.799 186.205 325.929 185.813 326.191C185.44 326.452 185.253 326.816 185.253 327.283C185.253 327.805 185.515 328.207 186.037 328.487C186.56 328.748 187.372 329.019 188.473 329.299C189.593 329.579 190.517 329.868 191.245 330.167C191.973 330.465 192.599 330.932 193.121 331.567C193.663 332.183 193.943 333.004 193.961 334.031C193.961 334.927 193.709 335.729 193.205 336.439C192.72 337.148 192.011 337.708 191.077 338.119C190.163 338.511 189.089 338.707 187.857 338.707Z" fill="white"/>
<path d="M86.9552 349.728L82.9652 359.073H80.8352L84.8552 349.968H79.7252V348.168H86.9552V349.728ZM89.383 359.178C89.003 359.178 88.688 359.063 88.438 358.833C88.198 358.593 88.078 358.298 88.078 357.948C88.078 357.598 88.198 357.308 88.438 357.078C88.688 356.838 89.003 356.718 89.383 356.718C89.753 356.718 90.058 356.838 90.298 357.078C90.538 357.308 90.658 357.598 90.658 357.948C90.658 358.298 90.538 358.593 90.298 358.833C90.058 359.063 89.753 359.178 89.383 359.178ZM89.383 352.968C89.003 352.968 88.688 352.853 88.438 352.623C88.198 352.383 88.078 352.088 88.078 351.738C88.078 351.388 88.198 351.098 88.438 350.868C88.688 350.628 89.003 350.508 89.383 350.508C89.753 350.508 90.058 350.628 90.298 350.868C90.538 351.098 90.658 351.388 90.658 351.738C90.658 352.088 90.538 352.383 90.298 352.623C90.058 352.853 89.753 352.968 89.383 352.968ZM92.1834 351.018C92.2334 350.018 92.5834 349.248 93.2334 348.708C93.8934 348.158 94.7584 347.883 95.8284 347.883C96.5584 347.883 97.1834 348.013 97.7034 348.273C98.2234 348.523 98.6134 348.868 98.8734 349.308C99.1434 349.738 99.2784 350.228 99.2784 350.778C99.2784 351.408 99.1134 351.943 98.7834 352.383C98.4634 352.813 98.0784 353.103 97.6284 353.253V353.313C98.2084 353.493 98.6584 353.813 98.9784 354.273C99.3084 354.733 99.4734 355.323 99.4734 356.043C99.4734 356.643 99.3334 357.178 99.0534 357.648C98.7834 358.118 98.3784 358.488 97.8384 358.758C97.3084 359.018 96.6684 359.148 95.9184 359.148C94.7884 359.148 93.8684 358.863 93.1584 358.293C92.4484 357.723 92.0734 356.883 92.0334 355.773H94.0734C94.0934 356.263 94.2584 356.658 94.5684 356.958C94.8884 357.248 95.3234 357.393 95.8734 357.393C96.3834 357.393 96.7734 357.253 97.0434 356.973C97.3234 356.683 97.4634 356.313 97.4634 355.863C97.4634 355.263 97.2734 354.833 96.8934 354.573C96.5134 354.313 95.9234 354.183 95.1234 354.183H94.6884V352.458H95.1234C96.5434 352.458 97.2534 351.983 97.2534 351.033C97.2534 350.603 97.1234 350.268 96.8634 350.028C96.6134 349.788 96.2484 349.668 95.7684 349.668C95.2984 349.668 94.9334 349.798 94.6734 350.058C94.4234 350.308 94.2784 350.628 94.2384 351.018H92.1834ZM101.133 353.463C101.133 351.733 101.443 350.378 102.063 349.398C102.693 348.418 103.733 347.928 105.183 347.928C106.633 347.928 107.668 348.418 108.288 349.398C108.918 350.378 109.233 351.733 109.233 353.463C109.233 355.203 108.918 356.568 108.288 357.558C107.668 358.548 106.633 359.043 105.183 359.043C103.733 359.043 102.693 358.548 102.063 357.558C101.443 356.568 101.133 355.203 101.133 353.463ZM107.163 353.463C107.163 352.723 107.113 352.103 107.013 351.603C106.923 351.093 106.733 350.678 106.443 350.358C106.163 350.038 105.743 349.878 105.183 349.878C104.623 349.878 104.198 350.038 103.908 350.358C103.628 350.678 103.438 351.093 103.338 351.603C103.248 352.103 103.203 352.723 103.203 353.463C103.203 354.223 103.248 354.863 103.338 355.383C103.428 355.893 103.618 356.308 103.908 356.628C104.198 356.938 104.623 357.093 105.183 357.093C105.743 357.093 106.168 356.938 106.458 356.628C106.748 356.308 106.938 355.893 107.028 355.383C107.118 354.863 107.163 354.223 107.163 353.463ZM116.744 351.963C117.014 351.583 117.384 351.268 117.854 351.018C118.334 350.758 118.879 350.628 119.489 350.628C120.199 350.628 120.839 350.803 121.409 351.153C121.989 351.503 122.444 352.003 122.774 352.653C123.114 353.293 123.284 354.038 123.284 354.888C123.284 355.738 123.114 356.493 122.774 357.153C122.444 357.803 121.989 358.308 121.409 358.668C120.839 359.028 120.199 359.208 119.489 359.208C118.879 359.208 118.339 359.083 117.869 358.833C117.409 358.583 117.034 358.268 116.744 357.888V363.033H114.644V350.763H116.744V351.963ZM121.139 354.888C121.139 354.388 121.034 353.958 120.824 353.598C120.624 353.228 120.354 352.948 120.014 352.758C119.684 352.568 119.324 352.473 118.934 352.473C118.554 352.473 118.194 352.573 117.854 352.773C117.524 352.963 117.254 353.243 117.044 353.613C116.844 353.983 116.744 354.418 116.744 354.918C116.744 355.418 116.844 355.853 117.044 356.223C117.254 356.593 117.524 356.878 117.854 357.078C118.194 357.268 118.554 357.363 118.934 357.363C119.324 357.363 119.684 357.263 120.014 357.063C120.354 356.863 120.624 356.578 120.824 356.208C121.034 355.838 121.139 355.398 121.139 354.888ZM135.13 350.643C136.15 350.643 136.97 350.958 137.59 351.588C138.22 352.208 138.535 353.078 138.535 354.198V359.073H136.435V354.483C136.435 353.833 136.27 353.338 135.94 352.998C135.61 352.648 135.16 352.473 134.59 352.473C134.02 352.473 133.565 352.648 133.225 352.998C132.895 353.338 132.73 353.833 132.73 354.483V359.073H130.63V354.483C130.63 353.833 130.465 353.338 130.135 352.998C129.805 352.648 129.355 352.473 128.785 352.473C128.205 352.473 127.745 352.648 127.405 352.998C127.075 353.338 126.91 353.833 126.91 354.483V359.073H124.81V350.763H126.91V351.768C127.18 351.418 127.525 351.143 127.945 350.943C128.375 350.743 128.845 350.643 129.355 350.643C130.005 350.643 130.585 350.783 131.095 351.063C131.605 351.333 132 351.723 132.28 352.233C132.55 351.753 132.94 351.368 133.45 351.078C133.97 350.788 134.53 350.643 135.13 350.643ZM150.492 352.833V354.603H144.132V352.833H150.492ZM158.012 353.283C157.012 352.763 156.512 351.958 156.512 350.868C156.512 350.328 156.647 349.838 156.917 349.398C157.197 348.948 157.612 348.593 158.162 348.333C158.722 348.063 159.402 347.928 160.202 347.928C161.002 347.928 161.677 348.063 162.227 348.333C162.787 348.593 163.202 348.948 163.472 349.398C163.752 349.838 163.892 350.328 163.892 350.868C163.892 351.418 163.757 351.903 163.487 352.323C163.217 352.733 162.857 353.053 162.407 353.283C162.957 353.523 163.387 353.873 163.697 354.333C164.007 354.793 164.162 355.338 164.162 355.968C164.162 356.648 163.987 357.243 163.637 357.753C163.297 358.253 162.827 358.638 162.227 358.908C161.627 359.178 160.952 359.313 160.202 359.313C159.452 359.313 158.777 359.178 158.177 358.908C157.587 358.638 157.117 358.253 156.767 357.753C156.427 357.243 156.257 356.648 156.257 355.968C156.257 355.338 156.412 354.793 156.722 354.333C157.032 353.863 157.462 353.513 158.012 353.283ZM161.852 351.168C161.852 350.678 161.702 350.298 161.402 350.028C161.112 349.758 160.712 349.623 160.202 349.623C159.702 349.623 159.302 349.758 159.002 350.028C158.712 350.298 158.567 350.683 158.567 351.183C158.567 351.633 158.717 351.993 159.017 352.263C159.327 352.533 159.722 352.668 160.202 352.668C160.682 352.668 161.077 352.533 161.387 352.263C161.697 351.983 161.852 351.618 161.852 351.168ZM160.202 354.198C159.632 354.198 159.167 354.343 158.807 354.633C158.457 354.923 158.282 355.338 158.282 355.878C158.282 356.378 158.452 356.788 158.792 357.108C159.142 357.418 159.612 357.573 160.202 357.573C160.792 357.573 161.257 357.413 161.597 357.093C161.937 356.773 162.107 356.368 162.107 355.878C162.107 355.348 161.932 354.938 161.582 354.648C161.232 354.348 160.772 354.198 160.202 354.198ZM166.99 359.178C166.61 359.178 166.295 359.063 166.045 358.833C165.805 358.593 165.685 358.298 165.685 357.948C165.685 357.598 165.805 357.308 166.045 357.078C166.295 356.838 166.61 356.718 166.99 356.718C167.36 356.718 167.665 356.838 167.905 357.078C168.145 357.308 168.265 357.598 168.265 357.948C168.265 358.298 168.145 358.593 167.905 358.833C167.665 359.063 167.36 359.178 166.99 359.178ZM166.99 352.968C166.61 352.968 166.295 352.853 166.045 352.623C165.805 352.383 165.685 352.088 165.685 351.738C165.685 351.388 165.805 351.098 166.045 350.868C166.295 350.628 166.61 350.508 166.99 350.508C167.36 350.508 167.665 350.628 167.905 350.868C168.145 351.098 168.265 351.388 168.265 351.738C168.265 352.088 168.145 352.383 167.905 352.623C167.665 352.853 167.36 352.968 166.99 352.968ZM169.791 351.018C169.841 350.018 170.191 349.248 170.841 348.708C171.501 348.158 172.366 347.883 173.436 347.883C174.166 347.883 174.791 348.013 175.311 348.273C175.831 348.523 176.221 348.868 176.481 349.308C176.751 349.738 176.886 350.228 176.886 350.778C176.886 351.408 176.721 351.943 176.391 352.383C176.071 352.813 175.686 353.103 175.236 353.253V353.313C175.816 353.493 176.266 353.813 176.586 354.273C176.916 354.733 177.081 355.323 177.081 356.043C177.081 356.643 176.941 357.178 176.661 357.648C176.391 358.118 175.986 358.488 175.446 358.758C174.916 359.018 174.276 359.148 173.526 359.148C172.396 359.148 171.476 358.863 170.766 358.293C170.056 357.723 169.681 356.883 169.641 355.773H171.681C171.701 356.263 171.866 356.658 172.176 356.958C172.496 357.248 172.931 357.393 173.481 357.393C173.991 357.393 174.381 357.253 174.651 356.973C174.931 356.683 175.071 356.313 175.071 355.863C175.071 355.263 174.881 354.833 174.501 354.573C174.121 354.313 173.531 354.183 172.731 354.183H172.296V352.458H172.731C174.151 352.458 174.861 351.983 174.861 351.033C174.861 350.603 174.731 350.268 174.471 350.028C174.221 349.788 173.856 349.668 173.376 349.668C172.906 349.668 172.541 349.798 172.281 350.058C172.031 350.308 171.886 350.628 171.846 351.018H169.791ZM178.74 353.463C178.74 351.733 179.05 350.378 179.67 349.398C180.3 348.418 181.34 347.928 182.79 347.928C184.24 347.928 185.275 348.418 185.895 349.398C186.525 350.378 186.84 351.733 186.84 353.463C186.84 355.203 186.525 356.568 185.895 357.558C185.275 358.548 184.24 359.043 182.79 359.043C181.34 359.043 180.3 358.548 179.67 357.558C179.05 356.568 178.74 355.203 178.74 353.463ZM184.77 353.463C184.77 352.723 184.72 352.103 184.62 351.603C184.53 351.093 184.34 350.678 184.05 350.358C183.77 350.038 183.35 349.878 182.79 349.878C182.23 349.878 181.805 350.038 181.515 350.358C181.235 350.678 181.045 351.093 180.945 351.603C180.855 352.103 180.81 352.723 180.81 353.463C180.81 354.223 180.855 354.863 180.945 355.383C181.035 355.893 181.225 356.308 181.515 356.628C181.805 356.938 182.23 357.093 182.79 357.093C183.35 357.093 183.775 356.938 184.065 356.628C184.355 356.308 184.545 355.893 184.635 355.383C184.725 354.863 184.77 354.223 184.77 353.463ZM194.352 351.963C194.622 351.583 194.992 351.268 195.462 351.018C195.942 350.758 196.487 350.628 197.097 350.628C197.807 350.628 198.447 350.803 199.017 351.153C199.597 351.503 200.052 352.003 200.382 352.653C200.722 353.293 200.892 354.038 200.892 354.888C200.892 355.738 200.722 356.493 200.382 357.153C200.052 357.803 199.597 358.308 199.017 358.668C198.447 359.028 197.807 359.208 197.097 359.208C196.487 359.208 195.947 359.083 195.477 358.833C195.017 358.583 194.642 358.268 194.352 357.888V363.033H192.252V350.763H194.352V351.963ZM198.747 354.888C198.747 354.388 198.642 353.958 198.432 353.598C198.232 353.228 197.962 352.948 197.622 352.758C197.292 352.568 196.932 352.473 196.542 352.473C196.162 352.473 195.802 352.573 195.462 352.773C195.132 352.963 194.862 353.243 194.652 353.613C194.452 353.983 194.352 354.418 194.352 354.918C194.352 355.418 194.452 355.853 194.652 356.223C194.862 356.593 195.132 356.878 195.462 357.078C195.802 357.268 196.162 357.363 196.542 357.363C196.932 357.363 197.292 357.263 197.622 357.063C197.962 356.863 198.232 356.578 198.432 356.208C198.642 355.838 198.747 355.398 198.747 354.888ZM212.738 350.643C213.758 350.643 214.578 350.958 215.198 351.588C215.828 352.208 216.143 353.078 216.143 354.198V359.073H214.043V354.483C214.043 353.833 213.878 353.338 213.548 352.998C213.218 352.648 212.768 352.473 212.198 352.473C211.628 352.473 211.173 352.648 210.833 352.998C210.503 353.338 210.338 353.833 210.338 354.483V359.073H208.238V354.483C208.238 353.833 208.073 353.338 207.743 352.998C207.413 352.648 206.963 352.473 206.393 352.473C205.813 352.473 205.353 352.648 205.013 352.998C204.683 353.338 204.518 353.833 204.518 354.483V359.073H202.418V350.763H204.518V351.768C204.788 351.418 205.133 351.143 205.553 350.943C205.983 350.743 206.453 350.643 206.963 350.643C207.613 350.643 208.193 350.783 208.703 351.063C209.213 351.333 209.608 351.723 209.888 352.233C210.158 351.753 210.548 351.368 211.058 351.078C211.578 350.788 212.138 350.643 212.738 350.643Z" fill="white"/>
<path d="M81.9172 299.126V308.2H80.0972V299.126H81.9172ZM87.7064 300.894C88.5644 300.894 89.2577 301.167 89.7864 301.713C90.315 302.25 90.5794 303.004 90.5794 303.975V308.2H88.7594V304.222C88.7594 303.65 88.6164 303.212 88.3304 302.909C88.0444 302.597 87.6544 302.441 87.1604 302.441C86.6577 302.441 86.259 302.597 85.9644 302.909C85.6784 303.212 85.5354 303.65 85.5354 304.222V308.2H83.7154V300.998H85.5354V301.895C85.778 301.583 86.0857 301.34 86.4584 301.167C86.8397 300.985 87.2557 300.894 87.7064 300.894ZM94.4291 302.493V305.977C94.4291 306.22 94.4854 306.397 94.5981 306.51C94.7194 306.614 94.9188 306.666 95.1961 306.666H96.0411V308.2H94.8971C93.3631 308.2 92.5961 307.455 92.5961 305.964V302.493H91.7381V300.998H92.5961V299.217H94.4291V300.998H96.0411V302.493H94.4291ZM104.045 304.443C104.045 304.703 104.028 304.937 103.993 305.145H98.7281C98.7715 305.665 98.9535 306.072 99.2741 306.367C99.5948 306.662 99.9891 306.809 100.457 306.809C101.133 306.809 101.614 306.519 101.9 305.938H103.863C103.655 306.631 103.256 307.203 102.667 307.654C102.078 308.096 101.354 308.317 100.496 308.317C99.8028 308.317 99.1788 308.165 98.6241 307.862C98.0781 307.55 97.6491 307.112 97.3371 306.549C97.0338 305.986 96.8821 305.336 96.8821 304.599C96.8821 303.854 97.0338 303.199 97.3371 302.636C97.6405 302.073 98.0651 301.639 98.6111 301.336C99.1571 301.033 99.7855 300.881 100.496 300.881C101.181 300.881 101.792 301.028 102.329 301.323C102.875 301.618 103.295 302.038 103.59 302.584C103.893 303.121 104.045 303.741 104.045 304.443ZM102.16 303.923C102.151 303.455 101.982 303.082 101.653 302.805C101.324 302.519 100.921 302.376 100.444 302.376C99.9935 302.376 99.6121 302.515 99.3001 302.792C98.9968 303.061 98.8105 303.438 98.7411 303.923H102.16ZM107.194 302.116C107.428 301.735 107.731 301.436 108.104 301.219C108.485 301.002 108.918 300.894 109.404 300.894V302.805H108.923C108.351 302.805 107.917 302.939 107.623 303.208C107.337 303.477 107.194 303.945 107.194 304.612V308.2H105.374V300.998H107.194V302.116ZM110.161 304.573C110.161 303.845 110.304 303.199 110.59 302.636C110.885 302.073 111.279 301.639 111.773 301.336C112.276 301.033 112.835 300.881 113.45 300.881C113.988 300.881 114.456 300.989 114.854 301.206C115.262 301.423 115.587 301.696 115.829 302.025V300.998H117.662V308.2H115.829V307.147C115.595 307.485 115.27 307.767 114.854 307.992C114.447 308.209 113.975 308.317 113.437 308.317C112.831 308.317 112.276 308.161 111.773 307.849C111.279 307.537 110.885 307.099 110.59 306.536C110.304 305.964 110.161 305.31 110.161 304.573ZM115.829 304.599C115.829 304.157 115.743 303.78 115.569 303.468C115.396 303.147 115.162 302.905 114.867 302.74C114.573 302.567 114.256 302.48 113.918 302.48C113.58 302.48 113.268 302.562 112.982 302.727C112.696 302.892 112.462 303.134 112.28 303.455C112.107 303.767 112.02 304.14 112.02 304.573C112.02 305.006 112.107 305.388 112.28 305.717C112.462 306.038 112.696 306.285 112.982 306.458C113.277 306.631 113.589 306.718 113.918 306.718C114.256 306.718 114.573 306.636 114.867 306.471C115.162 306.298 115.396 306.055 115.569 305.743C115.743 305.422 115.829 305.041 115.829 304.599ZM118.972 304.599C118.972 303.854 119.124 303.204 119.427 302.649C119.73 302.086 120.151 301.652 120.688 301.349C121.225 301.037 121.841 300.881 122.534 300.881C123.427 300.881 124.163 301.106 124.744 301.557C125.333 301.999 125.728 302.623 125.927 303.429H123.964C123.86 303.117 123.682 302.874 123.431 302.701C123.188 302.519 122.885 302.428 122.521 302.428C122.001 302.428 121.589 302.619 121.286 303C120.983 303.373 120.831 303.906 120.831 304.599C120.831 305.284 120.983 305.817 121.286 306.198C121.589 306.571 122.001 306.757 122.521 306.757C123.258 306.757 123.739 306.428 123.964 305.769H125.927C125.728 306.549 125.333 307.169 124.744 307.628C124.155 308.087 123.418 308.317 122.534 308.317C121.841 308.317 121.225 308.165 120.688 307.862C120.151 307.55 119.73 307.117 119.427 306.562C119.124 305.999 118.972 305.344 118.972 304.599ZM129.379 302.493V305.977C129.379 306.22 129.436 306.397 129.548 306.51C129.67 306.614 129.869 306.666 130.146 306.666H130.991V308.2H129.847C128.313 308.2 127.546 307.455 127.546 305.964V302.493H126.688V300.998H127.546V299.217H129.379V300.998H130.991V302.493H129.379ZM133.223 300.14C132.903 300.14 132.634 300.04 132.417 299.841C132.209 299.633 132.105 299.377 132.105 299.074C132.105 298.771 132.209 298.519 132.417 298.32C132.634 298.112 132.903 298.008 133.223 298.008C133.544 298.008 133.808 298.112 134.016 298.32C134.233 298.519 134.341 298.771 134.341 299.074C134.341 299.377 134.233 299.633 134.016 299.841C133.808 300.04 133.544 300.14 133.223 300.14ZM134.12 300.998V308.2H132.3V300.998H134.12ZM139.116 308.317C138.423 308.317 137.799 308.165 137.244 307.862C136.69 307.55 136.252 307.112 135.931 306.549C135.619 305.986 135.463 305.336 135.463 304.599C135.463 303.862 135.624 303.212 135.944 302.649C136.274 302.086 136.72 301.652 137.283 301.349C137.847 301.037 138.475 300.881 139.168 300.881C139.862 300.881 140.49 301.037 141.053 301.349C141.617 301.652 142.059 302.086 142.379 302.649C142.709 303.212 142.873 303.862 142.873 304.599C142.873 305.336 142.704 305.986 142.366 306.549C142.037 307.112 141.586 307.55 141.014 307.862C140.451 308.165 139.818 308.317 139.116 308.317ZM139.116 306.731C139.446 306.731 139.753 306.653 140.039 306.497C140.334 306.332 140.568 306.09 140.741 305.769C140.915 305.448 141.001 305.058 141.001 304.599C141.001 303.914 140.819 303.39 140.455 303.026C140.1 302.653 139.662 302.467 139.142 302.467C138.622 302.467 138.185 302.653 137.829 303.026C137.483 303.39 137.309 303.914 137.309 304.599C137.309 305.284 137.478 305.812 137.816 306.185C138.163 306.549 138.596 306.731 139.116 306.731ZM148.2 300.894C149.058 300.894 149.751 301.167 150.28 301.713C150.808 302.25 151.073 303.004 151.073 303.975V308.2H149.253V304.222C149.253 303.65 149.11 303.212 148.824 302.909C148.538 302.597 148.148 302.441 147.654 302.441C147.151 302.441 146.752 302.597 146.458 302.909C146.172 303.212 146.029 303.65 146.029 304.222V308.2H144.209V300.998H146.029V301.895C146.271 301.583 146.579 301.34 146.952 301.167C147.333 300.985 147.749 300.894 148.2 300.894Z" fill="white"/>
<path d="M97.8482 245.8H93.9282L85.0522 232.388V245.8H81.1322V226.228H85.0522L93.9282 239.668V226.228H97.8482V245.8ZM100.714 237.988C100.714 236.42 101.022 235.029 101.638 233.816C102.273 232.603 103.122 231.669 104.186 231.016C105.269 230.363 106.473 230.036 107.798 230.036C108.955 230.036 109.963 230.269 110.822 230.736C111.699 231.203 112.399 231.791 112.922 232.5V230.288H116.87V245.8H112.922V243.532C112.418 244.26 111.718 244.867 110.822 245.352C109.945 245.819 108.927 246.052 107.77 246.052C106.463 246.052 105.269 245.716 104.186 245.044C103.122 244.372 102.273 243.429 101.638 242.216C101.022 240.984 100.714 239.575 100.714 237.988ZM112.922 238.044C112.922 237.092 112.735 236.28 112.362 235.608C111.989 234.917 111.485 234.395 110.85 234.04C110.215 233.667 109.534 233.48 108.806 233.48C108.078 233.48 107.406 233.657 106.79 234.012C106.174 234.367 105.67 234.889 105.278 235.58C104.905 236.252 104.718 237.055 104.718 237.988C104.718 238.921 104.905 239.743 105.278 240.452C105.67 241.143 106.174 241.675 106.79 242.048C107.425 242.421 108.097 242.608 108.806 242.608C109.534 242.608 110.215 242.431 110.85 242.076C111.485 241.703 111.989 241.18 112.362 240.508C112.735 239.817 112.922 238.996 112.922 238.044ZM139.963 230.064C141.867 230.064 143.397 230.652 144.555 231.828C145.731 232.985 146.319 234.609 146.319 236.7V245.8H142.399V237.232C142.399 236.019 142.091 235.095 141.475 234.46C140.859 233.807 140.019 233.48 138.955 233.48C137.891 233.48 137.041 233.807 136.407 234.46C135.791 235.095 135.483 236.019 135.483 237.232V245.8H131.563V237.232C131.563 236.019 131.255 235.095 130.639 234.46C130.023 233.807 129.183 233.48 128.119 233.48C127.036 233.48 126.177 233.807 125.543 234.46C124.927 235.095 124.619 236.019 124.619 237.232V245.8H120.699V230.288H124.619V232.164C125.123 231.511 125.767 230.997 126.551 230.624C127.353 230.251 128.231 230.064 129.183 230.064C130.396 230.064 131.479 230.325 132.431 230.848C133.383 231.352 134.12 232.08 134.643 233.032C135.147 232.136 135.875 231.417 136.827 230.876C137.797 230.335 138.843 230.064 139.963 230.064ZM164.458 237.708C164.458 238.268 164.421 238.772 164.346 239.22H153.006C153.1 240.34 153.492 241.217 154.182 241.852C154.873 242.487 155.722 242.804 156.73 242.804C158.186 242.804 159.222 242.179 159.838 240.928H164.066C163.618 242.421 162.76 243.653 161.49 244.624C160.221 245.576 158.662 246.052 156.814 246.052C155.321 246.052 153.977 245.725 152.782 245.072C151.606 244.4 150.682 243.457 150.01 242.244C149.357 241.031 149.03 239.631 149.03 238.044C149.03 236.439 149.357 235.029 150.01 233.816C150.664 232.603 151.578 231.669 152.754 231.016C153.93 230.363 155.284 230.036 156.814 230.036C158.289 230.036 159.605 230.353 160.762 230.988C161.938 231.623 162.844 232.528 163.478 233.704C164.132 234.861 164.458 236.196 164.458 237.708ZM160.398 236.588C160.38 235.58 160.016 234.777 159.306 234.18C158.597 233.564 157.729 233.256 156.702 233.256C155.732 233.256 154.91 233.555 154.238 234.152C153.585 234.731 153.184 235.543 153.034 236.588H160.398Z" fill="white"/>
<path d="M87.3452 259.335H82.4852V261.9C82.6952 261.64 82.9952 261.43 83.3852 261.27C83.7752 261.1 84.1902 261.015 84.6302 261.015C85.4302 261.015 86.0852 261.19 86.5952 261.54C87.1052 261.89 87.4752 262.34 87.7052 262.89C87.9352 263.43 88.0502 264.01 88.0502 264.63C88.0502 265.78 87.7202 266.705 87.0602 267.405C86.4102 268.105 85.4802 268.455 84.2702 268.455C83.1302 268.455 82.2202 268.17 81.5402 267.6C80.8602 267.03 80.4752 266.285 80.3852 265.365H82.4252C82.5152 265.765 82.7152 266.085 83.0252 266.325C83.3452 266.565 83.7502 266.685 84.2402 266.685C84.8302 266.685 85.2752 266.5 85.5752 266.13C85.8752 265.76 86.0252 265.27 86.0252 264.66C86.0252 264.04 85.8702 263.57 85.5602 263.25C85.2602 262.92 84.8152 262.755 84.2252 262.755C83.8052 262.755 83.4552 262.86 83.1752 263.07C82.8952 263.28 82.6952 263.56 82.5752 263.91H80.5652V257.49H87.3452V259.335ZM90.8185 268.56C90.4385 268.56 90.1235 268.445 89.8735 268.215C89.6335 267.975 89.5135 267.68 89.5135 267.33C89.5135 266.98 89.6335 266.69 89.8735 266.46C90.1235 266.22 90.4385 266.1 90.8185 266.1C91.1885 266.1 91.4935 266.22 91.7335 266.46C91.9735 266.69 92.0935 266.98 92.0935 267.33C92.0935 267.68 91.9735 267.975 91.7335 268.215C91.4935 268.445 91.1885 268.56 90.8185 268.56ZM90.8185 262.35C90.4385 262.35 90.1235 262.235 89.8735 262.005C89.6335 261.765 89.5135 261.47 89.5135 261.12C89.5135 260.77 89.6335 260.48 89.8735 260.25C90.1235 260.01 90.4385 259.89 90.8185 259.89C91.1885 259.89 91.4935 260.01 91.7335 260.25C91.9735 260.48 92.0935 260.77 92.0935 261.12C92.0935 261.47 91.9735 261.765 91.7335 262.005C91.4935 262.235 91.1885 262.35 90.8185 262.35ZM93.6189 260.4C93.6689 259.4 94.0189 258.63 94.6689 258.09C95.3289 257.54 96.1939 257.265 97.2639 257.265C97.9939 257.265 98.6189 257.395 99.1389 257.655C99.6589 257.905 100.049 258.25 100.309 258.69C100.579 259.12 100.714 259.61 100.714 260.16C100.714 260.79 100.549 261.325 100.219 261.765C99.8989 262.195 99.5139 262.485 99.0639 262.635V262.695C99.6439 262.875 100.094 263.195 100.414 263.655C100.744 264.115 100.909 264.705 100.909 265.425C100.909 266.025 100.769 266.56 100.489 267.03C100.219 267.5 99.8139 267.87 99.2739 268.14C98.7439 268.4 98.1039 268.53 97.3539 268.53C96.2239 268.53 95.3039 268.245 94.5939 267.675C93.8839 267.105 93.5089 266.265 93.4689 265.155H95.5089C95.5289 265.645 95.6939 266.04 96.0039 266.34C96.3239 266.63 96.7589 266.775 97.3089 266.775C97.8189 266.775 98.2089 266.635 98.4789 266.355C98.7589 266.065 98.8989 265.695 98.8989 265.245C98.8989 264.645 98.7089 264.215 98.3289 263.955C97.9489 263.695 97.3589 263.565 96.5589 263.565H96.1239V261.84H96.5589C97.9789 261.84 98.6889 261.365 98.6889 260.415C98.6889 259.985 98.5589 259.65 98.2989 259.41C98.0489 259.17 97.6839 259.05 97.2039 259.05C96.7339 259.05 96.3689 259.18 96.1089 259.44C95.8589 259.69 95.7139 260.01 95.6739 260.4H93.6189ZM102.568 262.845C102.568 261.115 102.878 259.76 103.498 258.78C104.128 257.8 105.168 257.31 106.618 257.31C108.068 257.31 109.103 257.8 109.723 258.78C110.353 259.76 110.668 261.115 110.668 262.845C110.668 264.585 110.353 265.95 109.723 266.94C109.103 267.93 108.068 268.425 106.618 268.425C105.168 268.425 104.128 267.93 103.498 266.94C102.878 265.95 102.568 264.585 102.568 262.845ZM108.598 262.845C108.598 262.105 108.548 261.485 108.448 260.985C108.358 260.475 108.168 260.06 107.878 259.74C107.598 259.42 107.178 259.26 106.618 259.26C106.058 259.26 105.633 259.42 105.343 259.74C105.063 260.06 104.873 260.475 104.773 260.985C104.683 261.485 104.638 262.105 104.638 262.845C104.638 263.605 104.683 264.245 104.773 264.765C104.863 265.275 105.053 265.69 105.343 266.01C105.633 266.32 106.058 266.475 106.618 266.475C107.178 266.475 107.603 266.32 107.893 266.01C108.183 265.69 108.373 265.275 108.463 264.765C108.553 264.245 108.598 263.605 108.598 262.845ZM118.18 261.345C118.45 260.965 118.82 260.65 119.29 260.4C119.77 260.14 120.315 260.01 120.925 260.01C121.635 260.01 122.275 260.185 122.845 260.535C123.425 260.885 123.88 261.385 124.21 262.035C124.55 262.675 124.72 263.42 124.72 264.27C124.72 265.12 124.55 265.875 124.21 266.535C123.88 267.185 123.425 267.69 122.845 268.05C122.275 268.41 121.635 268.59 120.925 268.59C120.315 268.59 119.775 268.465 119.305 268.215C118.845 267.965 118.47 267.65 118.18 267.27V272.415H116.08V260.145H118.18V261.345ZM122.575 264.27C122.575 263.77 122.47 263.34 122.26 262.98C122.06 262.61 121.79 262.33 121.45 262.14C121.12 261.95 120.76 261.855 120.37 261.855C119.99 261.855 119.63 261.955 119.29 262.155C118.96 262.345 118.69 262.625 118.48 262.995C118.28 263.365 118.18 263.8 118.18 264.3C118.18 264.8 118.28 265.235 118.48 265.605C118.69 265.975 118.96 266.26 119.29 266.46C119.63 266.65 119.99 266.745 120.37 266.745C120.76 266.745 121.12 266.645 121.45 266.445C121.79 266.245 122.06 265.96 122.26 265.59C122.47 265.22 122.575 264.78 122.575 264.27ZM136.566 260.025C137.586 260.025 138.406 260.34 139.026 260.97C139.656 261.59 139.971 262.46 139.971 263.58V268.455H137.871V263.865C137.871 263.215 137.706 262.72 137.376 262.38C137.046 262.03 136.596 261.855 136.026 261.855C135.456 261.855 135.001 262.03 134.661 262.38C134.331 262.72 134.166 263.215 134.166 263.865V268.455H132.066V263.865C132.066 263.215 131.901 262.72 131.571 262.38C131.241 262.03 130.791 261.855 130.221 261.855C129.641 261.855 129.181 262.03 128.841 262.38C128.511 262.72 128.346 263.215 128.346 263.865V268.455H126.246V260.145H128.346V261.15C128.616 260.8 128.961 260.525 129.381 260.325C129.811 260.125 130.281 260.025 130.791 260.025C131.441 260.025 132.021 260.165 132.531 260.445C133.041 260.715 133.436 261.105 133.716 261.615C133.986 261.135 134.376 260.75 134.886 260.46C135.406 260.17 135.966 260.025 136.566 260.025ZM151.928 262.215V263.985H145.568V262.215H151.928ZM164.577 259.11L160.587 268.455H158.457L162.477 259.35H157.347V257.55H164.577V259.11ZM167.005 268.56C166.625 268.56 166.31 268.445 166.06 268.215C165.82 267.975 165.7 267.68 165.7 267.33C165.7 266.98 165.82 266.69 166.06 266.46C166.31 266.22 166.625 266.1 167.005 266.1C167.375 266.1 167.68 266.22 167.92 266.46C168.16 266.69 168.28 266.98 168.28 267.33C168.28 267.68 168.16 267.975 167.92 268.215C167.68 268.445 167.375 268.56 167.005 268.56ZM167.005 262.35C166.625 262.35 166.31 262.235 166.06 262.005C165.82 261.765 165.7 261.47 165.7 261.12C165.7 260.77 165.82 260.48 166.06 260.25C166.31 260.01 166.625 259.89 167.005 259.89C167.375 259.89 167.68 260.01 167.92 260.25C168.16 260.48 168.28 260.77 168.28 261.12C168.28 261.47 168.16 261.765 167.92 262.005C167.68 262.235 167.375 262.35 167.005 262.35ZM169.775 262.845C169.775 261.115 170.085 259.76 170.705 258.78C171.335 257.8 172.375 257.31 173.825 257.31C175.275 257.31 176.31 257.8 176.93 258.78C177.56 259.76 177.875 261.115 177.875 262.845C177.875 264.585 177.56 265.95 176.93 266.94C176.31 267.93 175.275 268.425 173.825 268.425C172.375 268.425 171.335 267.93 170.705 266.94C170.085 265.95 169.775 264.585 169.775 262.845ZM175.805 262.845C175.805 262.105 175.755 261.485 175.655 260.985C175.565 260.475 175.375 260.06 175.085 259.74C174.805 259.42 174.385 259.26 173.825 259.26C173.265 259.26 172.84 259.42 172.55 259.74C172.27 260.06 172.08 260.475 171.98 260.985C171.89 261.485 171.845 262.105 171.845 262.845C171.845 263.605 171.89 264.245 171.98 264.765C172.07 265.275 172.26 265.69 172.55 266.01C172.84 266.32 173.265 266.475 173.825 266.475C174.385 266.475 174.81 266.32 175.1 266.01C175.39 265.69 175.58 265.275 175.67 264.765C175.76 264.245 175.805 263.605 175.805 262.845ZM179.473 262.845C179.473 261.115 179.783 259.76 180.403 258.78C181.033 257.8 182.073 257.31 183.523 257.31C184.973 257.31 186.008 257.8 186.628 258.78C187.258 259.76 187.573 261.115 187.573 262.845C187.573 264.585 187.258 265.95 186.628 266.94C186.008 267.93 184.973 268.425 183.523 268.425C182.073 268.425 181.033 267.93 180.403 266.94C179.783 265.95 179.473 264.585 179.473 262.845ZM185.503 262.845C185.503 262.105 185.453 261.485 185.353 260.985C185.263 260.475 185.073 260.06 184.783 259.74C184.503 259.42 184.083 259.26 183.523 259.26C182.963 259.26 182.538 259.42 182.248 259.74C181.968 260.06 181.778 260.475 181.678 260.985C181.588 261.485 181.543 262.105 181.543 262.845C181.543 263.605 181.588 264.245 181.678 264.765C181.768 265.275 181.958 265.69 182.248 266.01C182.538 266.32 182.963 266.475 183.523 266.475C184.083 266.475 184.508 266.32 184.798 266.01C185.088 265.69 185.278 265.275 185.368 264.765C185.458 264.245 185.503 263.605 185.503 262.845ZM195.084 261.345C195.354 260.965 195.724 260.65 196.194 260.4C196.674 260.14 197.219 260.01 197.829 260.01C198.539 260.01 199.179 260.185 199.749 260.535C200.329 260.885 200.784 261.385 201.114 262.035C201.454 262.675 201.624 263.42 201.624 264.27C201.624 265.12 201.454 265.875 201.114 266.535C200.784 267.185 200.329 267.69 199.749 268.05C199.179 268.41 198.539 268.59 197.829 268.59C197.219 268.59 196.679 268.465 196.209 268.215C195.749 267.965 195.374 267.65 195.084 267.27V272.415H192.984V260.145H195.084V261.345ZM199.479 264.27C199.479 263.77 199.374 263.34 199.164 262.98C198.964 262.61 198.694 262.33 198.354 262.14C198.024 261.95 197.664 261.855 197.274 261.855C196.894 261.855 196.534 261.955 196.194 262.155C195.864 262.345 195.594 262.625 195.384 262.995C195.184 263.365 195.084 263.8 195.084 264.3C195.084 264.8 195.184 265.235 195.384 265.605C195.594 265.975 195.864 266.26 196.194 266.46C196.534 266.65 196.894 266.745 197.274 266.745C197.664 266.745 198.024 266.645 198.354 266.445C198.694 266.245 198.964 265.96 199.164 265.59C199.374 265.22 199.479 264.78 199.479 264.27ZM213.47 260.025C214.49 260.025 215.31 260.34 215.93 260.97C216.56 261.59 216.875 262.46 216.875 263.58V268.455H214.775V263.865C214.775 263.215 214.61 262.72 214.28 262.38C213.95 262.03 213.5 261.855 212.93 261.855C212.36 261.855 211.905 262.03 211.565 262.38C211.235 262.72 211.07 263.215 211.07 263.865V268.455H208.97V263.865C208.97 263.215 208.805 262.72 208.475 262.38C208.145 262.03 207.695 261.855 207.125 261.855C206.545 261.855 206.085 262.03 205.745 262.38C205.415 262.72 205.25 263.215 205.25 263.865V268.455H203.15V260.145H205.25V261.15C205.52 260.8 205.865 260.525 206.285 260.325C206.715 260.125 207.185 260.025 207.695 260.025C208.345 260.025 208.925 260.165 209.435 260.445C209.945 260.715 210.34 261.105 210.62 261.615C210.89 261.135 211.28 260.75 211.79 260.46C212.31 260.17 212.87 260.025 213.47 260.025Z" fill="white"/>
<path d="M81.9172 209.526V218.6H80.0972V209.526H81.9172ZM87.7064 211.294C88.5644 211.294 89.2577 211.567 89.7864 212.113C90.315 212.65 90.5794 213.404 90.5794 214.375V218.6H88.7594V214.622C88.7594 214.05 88.6164 213.612 88.3304 213.309C88.0444 212.997 87.6544 212.841 87.1604 212.841C86.6577 212.841 86.259 212.997 85.9644 213.309C85.6784 213.612 85.5354 214.05 85.5354 214.622V218.6H83.7154V211.398H85.5354V212.295C85.778 211.983 86.0857 211.74 86.4584 211.567C86.8397 211.385 87.2557 211.294 87.7064 211.294ZM94.4291 212.893V216.377C94.4291 216.62 94.4854 216.797 94.5981 216.91C94.7194 217.014 94.9188 217.066 95.1961 217.066H96.0411V218.6H94.8971C93.3631 218.6 92.5961 217.855 92.5961 216.364V212.893H91.7381V211.398H92.5961V209.617H94.4291V211.398H96.0411V212.893H94.4291ZM104.045 214.843C104.045 215.103 104.028 215.337 103.993 215.545H98.7281C98.7715 216.065 98.9535 216.472 99.2741 216.767C99.5948 217.062 99.9891 217.209 100.457 217.209C101.133 217.209 101.614 216.919 101.9 216.338H103.863C103.655 217.031 103.256 217.603 102.667 218.054C102.078 218.496 101.354 218.717 100.496 218.717C99.8028 218.717 99.1788 218.565 98.6241 218.262C98.0781 217.95 97.6491 217.512 97.3371 216.949C97.0338 216.386 96.8821 215.736 96.8821 214.999C96.8821 214.254 97.0338 213.599 97.3371 213.036C97.6405 212.473 98.0651 212.039 98.6111 211.736C99.1571 211.433 99.7855 211.281 100.496 211.281C101.181 211.281 101.792 211.428 102.329 211.723C102.875 212.018 103.295 212.438 103.59 212.984C103.893 213.521 104.045 214.141 104.045 214.843ZM102.16 214.323C102.151 213.855 101.982 213.482 101.653 213.205C101.324 212.919 100.921 212.776 100.444 212.776C99.9935 212.776 99.6121 212.915 99.3001 213.192C98.9968 213.461 98.8105 213.838 98.7411 214.323H102.16ZM107.194 212.516C107.428 212.135 107.731 211.836 108.104 211.619C108.485 211.402 108.918 211.294 109.404 211.294V213.205H108.923C108.351 213.205 107.917 213.339 107.623 213.608C107.337 213.877 107.194 214.345 107.194 215.012V218.6H105.374V211.398H107.194V212.516ZM110.161 214.973C110.161 214.245 110.304 213.599 110.59 213.036C110.885 212.473 111.279 212.039 111.773 211.736C112.276 211.433 112.835 211.281 113.45 211.281C113.988 211.281 114.456 211.389 114.854 211.606C115.262 211.823 115.587 212.096 115.829 212.425V211.398H117.662V218.6H115.829V217.547C115.595 217.885 115.27 218.167 114.854 218.392C114.447 218.609 113.975 218.717 113.437 218.717C112.831 218.717 112.276 218.561 111.773 218.249C111.279 217.937 110.885 217.499 110.59 216.936C110.304 216.364 110.161 215.71 110.161 214.973ZM115.829 214.999C115.829 214.557 115.743 214.18 115.569 213.868C115.396 213.547 115.162 213.305 114.867 213.14C114.573 212.967 114.256 212.88 113.918 212.88C113.58 212.88 113.268 212.962 112.982 213.127C112.696 213.292 112.462 213.534 112.28 213.855C112.107 214.167 112.02 214.54 112.02 214.973C112.02 215.406 112.107 215.788 112.28 216.117C112.462 216.438 112.696 216.685 112.982 216.858C113.277 217.031 113.589 217.118 113.918 217.118C114.256 217.118 114.573 217.036 114.867 216.871C115.162 216.698 115.396 216.455 115.569 216.143C115.743 215.822 115.829 215.441 115.829 214.999ZM118.972 214.999C118.972 214.254 119.124 213.604 119.427 213.049C119.73 212.486 120.151 212.052 120.688 211.749C121.225 211.437 121.841 211.281 122.534 211.281C123.427 211.281 124.163 211.506 124.744 211.957C125.333 212.399 125.728 213.023 125.927 213.829H123.964C123.86 213.517 123.682 213.274 123.431 213.101C123.188 212.919 122.885 212.828 122.521 212.828C122.001 212.828 121.589 213.019 121.286 213.4C120.983 213.773 120.831 214.306 120.831 214.999C120.831 215.684 120.983 216.217 121.286 216.598C121.589 216.971 122.001 217.157 122.521 217.157C123.258 217.157 123.739 216.828 123.964 216.169H125.927C125.728 216.949 125.333 217.569 124.744 218.028C124.155 218.487 123.418 218.717 122.534 218.717C121.841 218.717 121.225 218.565 120.688 218.262C120.151 217.95 119.73 217.517 119.427 216.962C119.124 216.399 118.972 215.744 118.972 214.999ZM129.379 212.893V216.377C129.379 216.62 129.436 216.797 129.548 216.91C129.67 217.014 129.869 217.066 130.146 217.066H130.991V218.6H129.847C128.313 218.6 127.546 217.855 127.546 216.364V212.893H126.688V211.398H127.546V209.617H129.379V211.398H130.991V212.893H129.379ZM133.223 210.54C132.903 210.54 132.634 210.44 132.417 210.241C132.209 210.033 132.105 209.777 132.105 209.474C132.105 209.171 132.209 208.919 132.417 208.72C132.634 208.512 132.903 208.408 133.223 208.408C133.544 208.408 133.808 208.512 134.016 208.72C134.233 208.919 134.341 209.171 134.341 209.474C134.341 209.777 134.233 210.033 134.016 210.241C133.808 210.44 133.544 210.54 133.223 210.54ZM134.12 211.398V218.6H132.3V211.398H134.12ZM139.116 218.717C138.423 218.717 137.799 218.565 137.244 218.262C136.69 217.95 136.252 217.512 135.931 216.949C135.619 216.386 135.463 215.736 135.463 214.999C135.463 214.262 135.624 213.612 135.944 213.049C136.274 212.486 136.72 212.052 137.283 211.749C137.847 211.437 138.475 211.281 139.168 211.281C139.862 211.281 140.49 211.437 141.053 211.749C141.617 212.052 142.059 212.486 142.379 213.049C142.709 213.612 142.873 214.262 142.873 214.999C142.873 215.736 142.704 216.386 142.366 216.949C142.037 217.512 141.586 217.95 141.014 218.262C140.451 218.565 139.818 218.717 139.116 218.717ZM139.116 217.131C139.446 217.131 139.753 217.053 140.039 216.897C140.334 216.732 140.568 216.49 140.741 216.169C140.915 215.848 141.001 215.458 141.001 214.999C141.001 214.314 140.819 213.79 140.455 213.426C140.1 213.053 139.662 212.867 139.142 212.867C138.622 212.867 138.185 213.053 137.829 213.426C137.483 213.79 137.309 214.314 137.309 214.999C137.309 215.684 137.478 216.212 137.816 216.585C138.163 216.949 138.596 217.131 139.116 217.131ZM148.2 211.294C149.058 211.294 149.751 211.567 150.28 212.113C150.808 212.65 151.073 213.404 151.073 214.375V218.6H149.253V214.622C149.253 214.05 149.11 213.612 148.824 213.309C148.538 212.997 148.148 212.841 147.654 212.841C147.151 212.841 146.752 212.997 146.458 213.309C146.172 213.612 146.029 214.05 146.029 214.622V218.6H144.209V211.398H146.029V212.295C146.271 211.983 146.579 211.74 146.952 211.567C147.333 211.385 147.749 211.294 148.2 211.294Z" fill="white"/>
</g>
<defs>
<filter id="filter0_d_315_250" x="0" y="0" width="367.127" height="528" filterUnits="userSpaceOnUse" color-interpolation-filters="sRGB">
<feFlood flood-opacity="0" result="BackgroundImageFix"/>
<feColorMatrix in="SourceAlpha" type="matrix" values="0 0 0 0 0 0 0 0 0 0 0 0 0 0 0 0 0 0 127 0" result="hardAlpha"/>
<feOffset dy="10"/>
<feGaussianBlur stdDeviation="6"/>
<feComposite in2="hardAlpha" operator="out"/>
<feColorMatrix type="matrix" values="0 0 0 0 0 0 0 0 0 0 0 0 0 0 0 0 0 0 0.25 0"/>
<feBlend mode="normal" in2="BackgroundImageFix" result="effect1_dropShadow_315_250"/>
<feBlend mode="normal" in="SourceGraphic" in2="effect1_dropShadow_315_250" result="shape"/>
</filter>
</defs>
</svg>
