<svg width="368" height="528" viewBox="0 0 368 528" fill="none" xmlns="http://www.w3.org/2000/svg">
<g filter="url(#filter0_d_315_251)">
<path fill-rule="evenodd" clip-rule="evenodd" d="M27 2C18.7157 2 12 8.71573 12 17V233.127C23.2465 233.127 32.3636 242.244 32.3636 253.491C32.3636 264.737 23.2465 273.855 12 273.855V491C12 499.284 18.7157 506 27 506H340.127C348.412 506 355.127 499.284 355.127 491L355.127 273.855C343.881 273.855 334.764 264.737 334.764 253.491C334.764 242.244 343.881 233.127 355.127 233.127L355.127 17C355.127 8.71573 348.412 2 340.127 2H27ZM90.1891 46.6H76.3891V74.6H90.1891C93.3091 74.6 96.0558 74.04 98.4291 72.92C100.829 71.7733 102.682 70.1467 103.989 68.04C105.322 65.9333 105.989 63.4533 105.989 60.6C105.989 57.7467 105.322 55.2667 103.989 53.16C102.682 51.0533 100.829 49.44 98.4291 48.32C96.0558 47.1733 93.3091 46.6 90.1891 46.6ZM94.6291 65.52C93.4291 66.6667 91.8158 67.24 89.7891 67.24H85.8291V53.96H89.7891C91.8158 53.96 93.4291 54.5467 94.6291 55.72C95.8558 56.8667 96.4691 58.4933 96.4691 60.6C96.4691 62.7067 95.8558 64.3467 94.6291 65.52ZM127.756 54.92C125.729 53.1867 122.796 52.32 118.956 52.32C117.196 52.32 115.423 52.5467 113.636 53C111.876 53.4267 110.369 54.0267 109.116 54.8L111.996 60.76C112.716 60.2267 113.583 59.8133 114.596 59.52C115.609 59.2 116.609 59.04 117.596 59.04C120.049 59.04 121.423 59.8933 121.716 61.6H118.076C114.716 61.6 112.209 62.16 110.556 63.28C108.903 64.4 108.076 66.04 108.076 68.2C108.076 69.48 108.383 70.64 108.996 71.68C109.636 72.6933 110.556 73.5067 111.756 74.12C112.983 74.7067 114.463 75 116.196 75C119.289 75 121.356 73.9067 122.396 71.72V74.6H130.796V62.84C130.796 59.2667 129.783 56.6267 127.756 54.92ZM120.636 69.04C120.129 69.3867 119.556 69.56 118.916 69.56C118.249 69.56 117.716 69.4 117.316 69.08C116.943 68.7333 116.756 68.3067 116.756 67.8C116.756 66.5733 117.676 65.96 119.516 65.96H121.756V67.48C121.516 68.1733 121.143 68.6933 120.636 69.04ZM149.672 75.04L158.672 52.72H150.112L145.512 64.44L140.992 52.72H131.712L140.912 74.88C140.406 75.4667 139.659 75.76 138.672 75.76C138.139 75.76 137.579 75.6533 136.992 75.44C136.432 75.2267 135.926 74.9467 135.472 74.6L132.472 80.8C133.192 81.3867 134.166 81.8533 135.392 82.2C136.646 82.5733 137.886 82.76 139.112 82.76C141.592 82.76 143.686 82.1867 145.392 81.04C147.099 79.8933 148.526 77.8933 149.672 75.04ZM191.887 60.6C190.74 59.1867 189.087 58.2133 186.927 57.68L192.127 52.4V46.6H171.247V53.72H181.247L177.127 57.92V63.72H180.847C183.06 63.72 184.167 64.36 184.167 65.64C184.167 66.3333 183.833 66.8667 183.167 67.24C182.5 67.6133 181.62 67.8 180.527 67.8C179.3 67.8 178.02 67.6267 176.687 67.28C175.38 66.9333 174.153 66.4267 173.007 65.76L169.807 72.72C171.273 73.5467 172.98 74.1733 174.927 74.6C176.9 75.0267 178.873 75.24 180.847 75.24C183.7 75.24 186.087 74.7867 188.007 73.88C189.927 72.9733 191.34 71.8 192.247 70.36C193.18 68.8933 193.647 67.32 193.647 65.64C193.647 63.6667 193.06 61.9867 191.887 60.6ZM63.9273 141.491C63.9273 144.518 61.7257 147.031 58.8364 147.516V230.157C61.7257 230.642 63.9273 233.155 63.9273 236.182C63.9273 236.234 63.9266 236.286 63.9253 236.339C63.9265 236.389 63.9272 236.44 63.9272 236.491C63.9272 239.518 61.7255 242.031 58.8362 242.516V325.157C61.7255 325.642 63.9272 328.155 63.9272 331.182C63.9272 334.556 61.192 337.291 57.8181 337.291C54.4441 337.291 51.709 334.556 51.709 331.182C51.709 328.155 53.9105 325.642 56.7998 325.157V242.516C53.9105 242.031 51.709 239.518 51.709 236.491C51.709 236.439 51.7096 236.386 51.711 236.334C51.7104 236.311 51.71 236.289 51.7097 236.266C51.7093 236.238 51.7091 236.21 51.7091 236.182C51.7091 233.155 53.9107 230.642 56.8 230.157V147.516C53.9107 147.031 51.7091 144.518 51.7091 141.491C51.7091 138.117 54.4442 135.382 57.8182 135.382C61.1921 135.382 63.9273 138.117 63.9273 141.491Z" fill="#3C96D7"/>
<path d="M100.194 130.375L95.5135 147.127H91.5535L88.4095 135.199L85.1215 147.127L81.1855 147.151L76.6735 130.375H80.2735L83.2255 143.383L86.6335 130.375H90.3775L93.5935 143.311L96.5695 130.375H100.194ZM108.291 147.343C107.011 147.343 105.859 147.063 104.835 146.503C103.811 145.927 103.003 145.119 102.411 144.079C101.835 143.039 101.547 141.839 101.547 140.479C101.547 139.119 101.843 137.919 102.435 136.879C103.043 135.839 103.867 135.039 104.907 134.479C105.947 133.903 107.107 133.615 108.387 133.615C109.667 133.615 110.827 133.903 111.867 134.479C112.907 135.039 113.723 135.839 114.315 136.879C114.923 137.919 115.227 139.119 115.227 140.479C115.227 141.839 114.915 143.039 114.291 144.079C113.683 145.119 112.851 145.927 111.795 146.503C110.755 147.063 109.587 147.343 108.291 147.343ZM108.291 144.415C108.899 144.415 109.467 144.271 109.995 143.983C110.539 143.679 110.971 143.231 111.291 142.639C111.611 142.047 111.771 141.327 111.771 140.479C111.771 139.215 111.435 138.247 110.763 137.575C110.107 136.887 109.299 136.543 108.339 136.543C107.379 136.543 106.571 136.887 105.915 137.575C105.275 138.247 104.955 139.215 104.955 140.479C104.955 141.743 105.267 142.719 105.891 143.407C106.531 144.079 107.331 144.415 108.291 144.415ZM121.052 135.895C121.484 135.191 122.044 134.639 122.732 134.239C123.436 133.839 124.236 133.639 125.132 133.639V137.167H124.244C123.188 137.167 122.388 137.415 121.844 137.911C121.316 138.407 121.052 139.271 121.052 140.503V147.127H117.692V133.831H121.052V135.895ZM135.267 147.127L130.755 141.463V147.127H127.395V129.367H130.755V139.471L135.219 133.831H139.587L133.731 140.503L139.635 147.127H135.267ZM146.499 147.343C145.411 147.343 144.435 147.151 143.571 146.767C142.707 146.367 142.019 145.831 141.507 145.159C141.011 144.487 140.739 143.743 140.691 142.927H144.075C144.139 143.439 144.387 143.863 144.819 144.199C145.267 144.535 145.819 144.703 146.475 144.703C147.115 144.703 147.611 144.575 147.963 144.319C148.331 144.063 148.515 143.735 148.515 143.335C148.515 142.903 148.291 142.583 147.843 142.375C147.411 142.151 146.715 141.911 145.755 141.655C144.763 141.415 143.947 141.167 143.307 140.911C142.683 140.655 142.139 140.263 141.675 139.735C141.227 139.207 141.003 138.495 141.003 137.599C141.003 136.863 141.211 136.191 141.627 135.583C142.059 134.975 142.667 134.495 143.451 134.143C144.251 133.791 145.187 133.615 146.259 133.615C147.843 133.615 149.107 134.015 150.051 134.815C150.995 135.599 151.515 136.663 151.611 138.007H148.395C148.347 137.479 148.123 137.063 147.723 136.759C147.339 136.439 146.819 136.279 146.163 136.279C145.555 136.279 145.083 136.391 144.747 136.615C144.427 136.839 144.267 137.151 144.267 137.551C144.267 137.999 144.491 138.343 144.939 138.583C145.387 138.807 146.083 139.039 147.027 139.279C147.987 139.519 148.779 139.767 149.403 140.023C150.027 140.279 150.563 140.679 151.011 141.223C151.475 141.751 151.715 142.455 151.731 143.335C151.731 144.103 151.515 144.791 151.083 145.399C150.667 146.007 150.059 146.487 149.259 146.839C148.475 147.175 147.555 147.343 146.499 147.343ZM161.977 133.639C162.985 133.639 163.881 133.863 164.665 134.311C165.449 134.743 166.057 135.391 166.489 136.255C166.937 137.103 167.161 138.127 167.161 139.327V147.127H163.801V139.783C163.801 138.727 163.537 137.919 163.009 137.359C162.481 136.783 161.761 136.495 160.849 136.495C159.921 136.495 159.185 136.783 158.641 137.359C158.113 137.919 157.849 138.727 157.849 139.783V147.127H154.489V129.367H157.849V135.487C158.281 134.911 158.857 134.463 159.577 134.143C160.297 133.807 161.097 133.639 161.977 133.639ZM176.26 147.343C174.98 147.343 173.828 147.063 172.804 146.503C171.78 145.927 170.972 145.119 170.38 144.079C169.804 143.039 169.516 141.839 169.516 140.479C169.516 139.119 169.812 137.919 170.404 136.879C171.012 135.839 171.836 135.039 172.876 134.479C173.916 133.903 175.076 133.615 176.356 133.615C177.636 133.615 178.796 133.903 179.836 134.479C180.876 135.039 181.692 135.839 182.284 136.879C182.892 137.919 183.196 139.119 183.196 140.479C183.196 141.839 182.884 143.039 182.26 144.079C181.652 145.119 180.82 145.927 179.764 146.503C178.724 147.063 177.556 147.343 176.26 147.343ZM176.26 144.415C176.868 144.415 177.436 144.271 177.964 143.983C178.508 143.679 178.94 143.231 179.26 142.639C179.58 142.047 179.74 141.327 179.74 140.479C179.74 139.215 179.404 138.247 178.732 137.575C178.076 136.887 177.268 136.543 176.308 136.543C175.348 136.543 174.54 136.887 173.884 137.575C173.244 138.247 172.924 139.215 172.924 140.479C172.924 141.743 173.236 142.719 173.86 143.407C174.5 144.079 175.3 144.415 176.26 144.415ZM189.021 135.751C189.453 135.143 190.045 134.639 190.797 134.239C191.565 133.823 192.437 133.615 193.413 133.615C194.549 133.615 195.573 133.895 196.485 134.455C197.413 135.015 198.141 135.815 198.669 136.855C199.213 137.879 199.485 139.071 199.485 140.431C199.485 141.791 199.213 142.999 198.669 144.055C198.141 145.095 197.413 145.903 196.485 146.479C195.573 147.055 194.549 147.343 193.413 147.343C192.437 147.343 191.573 147.143 190.821 146.743C190.085 146.343 189.485 145.839 189.021 145.231V153.463H185.661V133.831H189.021V135.751ZM196.053 140.431C196.053 139.631 195.885 138.943 195.549 138.367C195.229 137.775 194.797 137.327 194.253 137.023C193.725 136.719 193.149 136.567 192.525 136.567C191.917 136.567 191.341 136.727 190.797 137.047C190.269 137.351 189.837 137.799 189.501 138.391C189.181 138.983 189.021 139.679 189.021 140.479C189.021 141.279 189.181 141.975 189.501 142.567C189.837 143.159 190.269 143.615 190.797 143.935C191.341 144.239 191.917 144.391 192.525 144.391C193.149 144.391 193.725 144.231 194.253 143.911C194.797 143.591 195.229 143.135 195.549 142.543C195.885 141.951 196.053 141.247 196.053 140.431ZM207.015 147.343C205.927 147.343 204.951 147.151 204.087 146.767C203.223 146.367 202.535 145.831 202.023 145.159C201.527 144.487 201.255 143.743 201.207 142.927H204.591C204.655 143.439 204.903 143.863 205.335 144.199C205.783 144.535 206.335 144.703 206.991 144.703C207.631 144.703 208.127 144.575 208.479 144.319C208.847 144.063 209.031 143.735 209.031 143.335C209.031 142.903 208.807 142.583 208.359 142.375C207.927 142.151 207.231 141.911 206.271 141.655C205.279 141.415 204.463 141.167 203.823 140.911C203.199 140.655 202.655 140.263 202.191 139.735C201.743 139.207 201.519 138.495 201.519 137.599C201.519 136.863 201.727 136.191 202.143 135.583C202.575 134.975 203.183 134.495 203.967 134.143C204.767 133.791 205.703 133.615 206.775 133.615C208.359 133.615 209.623 134.015 210.567 134.815C211.511 135.599 212.031 136.663 212.127 138.007H208.911C208.863 137.479 208.639 137.063 208.239 136.759C207.855 136.439 207.335 136.279 206.679 136.279C206.071 136.279 205.599 136.391 205.263 136.615C204.943 136.839 204.783 137.151 204.783 137.551C204.783 137.999 205.007 138.343 205.455 138.583C205.903 138.807 206.599 139.039 207.543 139.279C208.503 139.519 209.295 139.767 209.919 140.023C210.543 140.279 211.079 140.679 211.527 141.223C211.991 141.751 212.231 142.455 212.247 143.335C212.247 144.103 212.031 144.791 211.599 145.399C211.183 146.007 210.575 146.487 209.775 146.839C208.991 147.175 208.071 147.343 207.015 147.343ZM226.579 130.375C228.339 130.375 229.883 130.719 231.211 131.407C232.555 132.095 233.587 133.079 234.307 134.359C235.043 135.623 235.411 137.095 235.411 138.775C235.411 140.455 235.043 141.927 234.307 143.191C233.587 144.439 232.555 145.407 231.211 146.095C229.883 146.783 228.339 147.127 226.579 147.127H220.723V130.375H226.579ZM226.459 144.271C228.219 144.271 229.579 143.791 230.539 142.831C231.499 141.871 231.979 140.519 231.979 138.775C231.979 137.031 231.499 135.671 230.539 134.695C229.579 133.703 228.219 133.207 226.459 133.207H224.083V144.271H226.459ZM237.063 140.431C237.063 139.087 237.327 137.895 237.855 136.855C238.399 135.815 239.127 135.015 240.039 134.455C240.967 133.895 241.999 133.615 243.135 133.615C244.127 133.615 244.991 133.815 245.727 134.215C246.479 134.615 247.079 135.119 247.527 135.727V133.831H250.911V147.127H247.527V145.183C247.095 145.807 246.495 146.327 245.727 146.743C244.975 147.143 244.103 147.343 243.111 147.343C241.991 147.343 240.967 147.055 240.039 146.479C239.127 145.903 238.399 145.095 237.855 144.055C237.327 142.999 237.063 141.791 237.063 140.431ZM247.527 140.479C247.527 139.663 247.367 138.967 247.047 138.391C246.727 137.799 246.295 137.351 245.751 137.047C245.207 136.727 244.623 136.567 243.999 136.567C243.375 136.567 242.799 136.719 242.271 137.023C241.743 137.327 241.311 137.775 240.975 138.367C240.655 138.943 240.495 139.631 240.495 140.431C240.495 141.231 240.655 141.935 240.975 142.543C241.311 143.135 241.743 143.591 242.271 143.911C242.815 144.231 243.391 144.391 243.999 144.391C244.623 144.391 245.207 144.239 245.751 143.935C246.295 143.615 246.727 143.167 247.047 142.591C247.367 141.999 247.527 141.295 247.527 140.479ZM266.912 133.831L258.68 153.415H255.104L257.984 146.791L252.656 133.831H256.424L259.856 143.119L263.336 133.831H266.912ZM275.114 143.335C276.65 142.055 277.874 140.991 278.786 140.143C279.698 139.279 280.458 138.383 281.066 137.455C281.674 136.527 281.978 135.615 281.978 134.719C281.978 133.903 281.786 133.263 281.402 132.799C281.018 132.335 280.426 132.103 279.626 132.103C278.826 132.103 278.21 132.375 277.778 132.919C277.346 133.447 277.122 134.175 277.106 135.103H273.842C273.906 133.183 274.474 131.727 275.546 130.735C276.634 129.743 278.01 129.247 279.674 129.247C281.498 129.247 282.898 129.735 283.874 130.711C284.85 131.671 285.338 132.943 285.338 134.527C285.338 135.775 285.002 136.967 284.33 138.103C283.658 139.239 282.89 140.231 282.026 141.079C281.162 141.911 280.034 142.919 278.642 144.103H285.722V146.887H273.866V144.391L275.114 143.335Z" fill="white"/>
<path d="M75.967 236.473C75.967 234.825 76.335 233.353 77.071 232.057C77.823 230.745 78.839 229.729 80.119 229.009C81.415 228.273 82.863 227.905 84.463 227.905C86.335 227.905 87.975 228.385 89.383 229.345C90.791 230.305 91.775 231.633 92.335 233.329H88.471C88.087 232.529 87.543 231.929 86.839 231.529C86.151 231.129 85.351 230.929 84.439 230.929C83.463 230.929 82.591 231.161 81.823 231.625C81.071 232.073 80.479 232.713 80.047 233.545C79.631 234.377 79.423 235.353 79.423 236.473C79.423 237.577 79.631 238.553 80.047 239.401C80.479 240.233 81.071 240.881 81.823 241.345C82.591 241.793 83.463 242.017 84.439 242.017C85.351 242.017 86.151 241.817 86.839 241.417C87.543 241.001 88.087 240.393 88.471 239.593H92.335C91.775 241.305 90.791 242.641 89.383 243.601C87.991 244.545 86.351 245.017 84.463 245.017C82.863 245.017 81.415 244.657 80.119 243.937C78.839 243.201 77.823 242.185 77.071 240.889C76.335 239.593 75.967 238.121 75.967 236.473ZM98.5648 227.113V244.873H95.2048V227.113H98.5648ZM107.789 245.089C106.509 245.089 105.357 244.809 104.333 244.249C103.309 243.673 102.501 242.865 101.909 241.825C101.333 240.785 101.045 239.585 101.045 238.225C101.045 236.865 101.341 235.665 101.933 234.625C102.541 233.585 103.365 232.785 104.405 232.225C105.445 231.649 106.605 231.361 107.885 231.361C109.165 231.361 110.325 231.649 111.365 232.225C112.405 232.785 113.221 233.585 113.813 234.625C114.421 235.665 114.725 236.865 114.725 238.225C114.725 239.585 114.413 240.785 113.789 241.825C113.181 242.865 112.349 243.673 111.293 244.249C110.253 244.809 109.085 245.089 107.789 245.089ZM107.789 242.161C108.397 242.161 108.965 242.017 109.493 241.729C110.037 241.425 110.469 240.977 110.789 240.385C111.109 239.793 111.269 239.073 111.269 238.225C111.269 236.961 110.933 235.993 110.261 235.321C109.605 234.633 108.797 234.289 107.837 234.289C106.877 234.289 106.069 234.633 105.413 235.321C104.773 235.993 104.453 236.961 104.453 238.225C104.453 239.489 104.765 240.465 105.389 241.153C106.029 241.825 106.829 242.161 107.789 242.161ZM122.277 245.089C121.189 245.089 120.213 244.897 119.349 244.513C118.485 244.113 117.797 243.577 117.285 242.905C116.789 242.233 116.517 241.489 116.469 240.673H119.853C119.917 241.185 120.165 241.609 120.597 241.945C121.045 242.281 121.597 242.449 122.253 242.449C122.893 242.449 123.389 242.321 123.741 242.065C124.109 241.809 124.293 241.481 124.293 241.081C124.293 240.649 124.069 240.329 123.621 240.121C123.189 239.897 122.493 239.657 121.533 239.401C120.541 239.161 119.725 238.913 119.085 238.657C118.461 238.401 117.917 238.009 117.453 237.481C117.005 236.953 116.781 236.241 116.781 235.345C116.781 234.609 116.989 233.937 117.405 233.329C117.837 232.721 118.445 232.241 119.229 231.889C120.029 231.537 120.965 231.361 122.037 231.361C123.621 231.361 124.885 231.761 125.829 232.561C126.773 233.345 127.293 234.409 127.389 235.753H124.173C124.125 235.225 123.901 234.809 123.501 234.505C123.117 234.185 122.597 234.025 121.941 234.025C121.333 234.025 120.861 234.137 120.525 234.361C120.205 234.585 120.045 234.897 120.045 235.297C120.045 235.745 120.269 236.089 120.717 236.329C121.165 236.553 121.861 236.785 122.805 237.025C123.765 237.265 124.557 237.513 125.181 237.769C125.805 238.025 126.341 238.425 126.789 238.969C127.253 239.497 127.493 240.201 127.509 241.081C127.509 241.849 127.293 242.537 126.861 243.145C126.445 243.753 125.837 244.233 125.037 244.585C124.253 244.921 123.333 245.089 122.277 245.089ZM131.971 229.993C131.379 229.993 130.883 229.809 130.483 229.441C130.099 229.057 129.907 228.585 129.907 228.025C129.907 227.465 130.099 227.001 130.483 226.633C130.883 226.249 131.379 226.057 131.971 226.057C132.563 226.057 133.051 226.249 133.435 226.633C133.835 227.001 134.035 227.465 134.035 228.025C134.035 228.585 133.835 229.057 133.435 229.441C133.051 229.809 132.563 229.993 131.971 229.993ZM133.627 231.577V244.873H130.267V231.577H133.627ZM144.315 231.385C145.899 231.385 147.179 231.889 148.155 232.897C149.131 233.889 149.619 235.281 149.619 237.073V244.873H146.259V237.529C146.259 236.473 145.995 235.665 145.467 235.105C144.939 234.529 144.219 234.241 143.307 234.241C142.379 234.241 141.643 234.529 141.099 235.105C140.571 235.665 140.307 236.473 140.307 237.529V244.873H136.947V231.577H140.307V233.233C140.755 232.657 141.323 232.209 142.011 231.889C142.715 231.553 143.483 231.385 144.315 231.385ZM158.022 231.361C159.014 231.361 159.886 231.561 160.638 231.961C161.39 232.345 161.982 232.849 162.414 233.473V231.577H165.798V244.969C165.798 246.201 165.55 247.297 165.054 248.257C164.558 249.233 163.814 250.001 162.822 250.561C161.83 251.137 160.63 251.425 159.222 251.425C157.334 251.425 155.782 250.985 154.566 250.105C153.366 249.225 152.686 248.025 152.526 246.505H155.862C156.038 247.113 156.414 247.593 156.99 247.945C157.582 248.313 158.294 248.497 159.126 248.497C160.102 248.497 160.894 248.201 161.502 247.609C162.11 247.033 162.414 246.153 162.414 244.969V242.905C161.982 243.529 161.382 244.049 160.614 244.465C159.862 244.881 158.998 245.089 158.022 245.089C156.902 245.089 155.878 244.801 154.95 244.225C154.022 243.649 153.286 242.841 152.742 241.801C152.214 240.745 151.95 239.537 151.95 238.177C151.95 236.833 152.214 235.641 152.742 234.601C153.286 233.561 154.014 232.761 154.926 232.201C155.854 231.641 156.886 231.361 158.022 231.361ZM162.414 238.225C162.414 237.409 162.254 236.713 161.934 236.137C161.614 235.545 161.182 235.097 160.638 234.793C160.094 234.473 159.51 234.313 158.886 234.313C158.262 234.313 157.686 234.465 157.158 234.769C156.63 235.073 156.198 235.521 155.862 236.113C155.542 236.689 155.382 237.377 155.382 238.177C155.382 238.977 155.542 239.681 155.862 240.289C156.198 240.881 156.63 241.337 157.158 241.657C157.702 241.977 158.278 242.137 158.886 242.137C159.51 242.137 160.094 241.985 160.638 241.681C161.182 241.361 161.614 240.913 161.934 240.337C162.254 239.745 162.414 239.041 162.414 238.225ZM173.935 238.225C173.935 236.849 174.215 235.649 174.775 234.625C175.335 233.585 176.111 232.785 177.103 232.225C178.095 231.649 179.231 231.361 180.511 231.361C182.159 231.361 183.519 231.777 184.591 232.609C185.679 233.425 186.407 234.577 186.775 236.065H183.151C182.959 235.489 182.631 235.041 182.167 234.721C181.719 234.385 181.159 234.217 180.487 234.217C179.527 234.217 178.767 234.569 178.207 235.273C177.647 235.961 177.367 236.945 177.367 238.225C177.367 239.489 177.647 240.473 178.207 241.177C178.767 241.865 179.527 242.209 180.487 242.209C181.847 242.209 182.735 241.601 183.151 240.385H186.775C186.407 241.825 185.679 242.969 184.591 243.817C183.503 244.665 182.143 245.089 180.511 245.089C179.231 245.089 178.095 244.809 177.103 244.249C176.111 243.673 175.335 242.873 174.775 241.849C174.215 240.809 173.935 239.601 173.935 238.225ZM201.596 237.937C201.596 238.417 201.564 238.849 201.5 239.233H191.78C191.86 240.193 192.196 240.945 192.788 241.489C193.38 242.033 194.108 242.305 194.972 242.305C196.22 242.305 197.108 241.769 197.636 240.697H201.26C200.876 241.977 200.14 243.033 199.052 243.865C197.964 244.681 196.628 245.089 195.044 245.089C193.764 245.089 192.612 244.809 191.588 244.249C190.58 243.673 189.788 242.865 189.212 241.825C188.652 240.785 188.372 239.585 188.372 238.225C188.372 236.849 188.652 235.641 189.212 234.601C189.772 233.561 190.556 232.761 191.564 232.201C192.572 231.641 193.732 231.361 195.044 231.361C196.308 231.361 197.436 231.633 198.428 232.177C199.436 232.721 200.212 233.497 200.756 234.505C201.316 235.497 201.596 236.641 201.596 237.937ZM198.116 236.977C198.1 236.113 197.788 235.425 197.18 234.913C196.572 234.385 195.828 234.121 194.948 234.121C194.116 234.121 193.412 234.377 192.836 234.889C192.276 235.385 191.932 236.081 191.804 236.977H198.116ZM207.409 233.641C207.841 232.937 208.401 232.385 209.089 231.985C209.793 231.585 210.593 231.385 211.489 231.385V234.913H210.601C209.545 234.913 208.745 235.161 208.201 235.657C207.673 236.153 207.409 237.017 207.409 238.249V244.873H204.049V231.577H207.409V233.641ZM226.112 237.937C226.112 238.417 226.08 238.849 226.016 239.233H216.296C216.376 240.193 216.712 240.945 217.304 241.489C217.896 242.033 218.624 242.305 219.488 242.305C220.736 242.305 221.624 241.769 222.152 240.697H225.776C225.392 241.977 224.656 243.033 223.568 243.865C222.48 244.681 221.144 245.089 219.56 245.089C218.28 245.089 217.128 244.809 216.104 244.249C215.096 243.673 214.304 242.865 213.728 241.825C213.168 240.785 212.888 239.585 212.888 238.225C212.888 236.849 213.168 235.641 213.728 234.601C214.288 233.561 215.072 232.761 216.08 232.201C217.088 231.641 218.248 231.361 219.56 231.361C220.824 231.361 221.952 231.633 222.944 232.177C223.952 232.721 224.728 233.497 225.272 234.505C225.832 235.497 226.112 236.641 226.112 237.937ZM222.632 236.977C222.616 236.113 222.304 235.425 221.696 234.913C221.088 234.385 220.344 234.121 219.464 234.121C218.632 234.121 217.928 234.377 217.352 234.889C216.792 235.385 216.448 236.081 216.32 236.977H222.632ZM245.076 231.385C246.708 231.385 248.02 231.889 249.012 232.897C250.02 233.889 250.524 235.281 250.524 237.073V244.873H247.164V237.529C247.164 236.489 246.9 235.697 246.372 235.153C245.844 234.593 245.124 234.313 244.212 234.313C243.3 234.313 242.572 234.593 242.028 235.153C241.5 235.697 241.236 236.489 241.236 237.529V244.873H237.876V237.529C237.876 236.489 237.612 235.697 237.084 235.153C236.556 234.593 235.836 234.313 234.924 234.313C233.996 234.313 233.26 234.593 232.716 235.153C232.188 235.697 231.924 236.489 231.924 237.529V244.873H228.564V231.577H231.924V233.185C232.356 232.625 232.908 232.185 233.58 231.865C234.268 231.545 235.02 231.385 235.836 231.385C236.876 231.385 237.804 231.609 238.62 232.057C239.436 232.489 240.068 233.113 240.516 233.929C240.948 233.161 241.572 232.545 242.388 232.081C243.22 231.617 244.116 231.385 245.076 231.385ZM259.617 245.089C258.337 245.089 257.185 244.809 256.161 244.249C255.137 243.673 254.329 242.865 253.737 241.825C253.161 240.785 252.873 239.585 252.873 238.225C252.873 236.865 253.169 235.665 253.761 234.625C254.369 233.585 255.193 232.785 256.233 232.225C257.273 231.649 258.433 231.361 259.713 231.361C260.993 231.361 262.153 231.649 263.193 232.225C264.233 232.785 265.049 233.585 265.641 234.625C266.249 235.665 266.553 236.865 266.553 238.225C266.553 239.585 266.241 240.785 265.617 241.825C265.009 242.865 264.177 243.673 263.121 244.249C262.081 244.809 260.913 245.089 259.617 245.089ZM259.617 242.161C260.225 242.161 260.793 242.017 261.321 241.729C261.865 241.425 262.297 240.977 262.617 240.385C262.937 239.793 263.097 239.073 263.097 238.225C263.097 236.961 262.761 235.993 262.089 235.321C261.433 234.633 260.625 234.289 259.665 234.289C258.705 234.289 257.897 234.633 257.241 235.321C256.601 235.993 256.281 236.961 256.281 238.225C256.281 239.489 256.593 240.465 257.217 241.153C257.857 241.825 258.657 242.161 259.617 242.161ZM276.385 231.385C277.969 231.385 279.249 231.889 280.225 232.897C281.201 233.889 281.689 235.281 281.689 237.073V244.873H278.329V237.529C278.329 236.473 278.065 235.665 277.537 235.105C277.009 234.529 276.289 234.241 275.377 234.241C274.449 234.241 273.713 234.529 273.169 235.105C272.641 235.665 272.377 236.473 272.377 237.529V244.873H269.017V231.577H272.377V233.233C272.825 232.657 273.393 232.209 274.081 231.889C274.785 231.553 275.553 231.385 276.385 231.385ZM297.605 231.577L289.373 251.161H285.797L288.677 244.537L283.349 231.577H287.117L290.549 240.865L294.029 231.577H297.605Z" fill="white"/>
<path d="M88.872 328.432C88.872 329.328 88.656 330.168 88.224 330.952C87.808 331.736 87.144 332.368 86.232 332.848C85.336 333.328 84.2 333.568 82.824 333.568H80.016V340H76.656V323.248H82.824C84.12 323.248 85.224 323.472 86.136 323.92C87.048 324.368 87.728 324.984 88.176 325.768C88.64 326.552 88.872 327.44 88.872 328.432ZM82.68 330.856C83.608 330.856 84.296 330.648 84.744 330.232C85.192 329.8 85.416 329.2 85.416 328.432C85.416 326.8 84.504 325.984 82.68 325.984H80.016V330.856H82.68ZM98.7456 326.512C99.7536 326.512 100.65 326.736 101.434 327.184C102.218 327.616 102.826 328.264 103.258 329.128C103.706 329.976 103.93 331 103.93 332.2V340H100.57V332.656C100.57 331.6 100.306 330.792 99.7776 330.232C99.2496 329.656 98.5296 329.368 97.6176 329.368C96.6896 329.368 95.9536 329.656 95.4096 330.232C94.8816 330.792 94.6176 331.6 94.6176 332.656V340H91.2576V322.24H94.6176V328.36C95.0496 327.784 95.6256 327.336 96.3456 327.016C97.0656 326.68 97.8656 326.512 98.7456 326.512ZM113.029 340.216C111.749 340.216 110.597 339.936 109.573 339.376C108.549 338.8 107.741 337.992 107.149 336.952C106.573 335.912 106.285 334.712 106.285 333.352C106.285 331.992 106.581 330.792 107.173 329.752C107.781 328.712 108.605 327.912 109.645 327.352C110.685 326.776 111.845 326.488 113.125 326.488C114.405 326.488 115.565 326.776 116.605 327.352C117.645 327.912 118.461 328.712 119.053 329.752C119.661 330.792 119.965 331.992 119.965 333.352C119.965 334.712 119.653 335.912 119.029 336.952C118.421 337.992 117.589 338.8 116.533 339.376C115.493 339.936 114.325 340.216 113.029 340.216ZM113.029 337.288C113.637 337.288 114.205 337.144 114.733 336.856C115.277 336.552 115.709 336.104 116.029 335.512C116.349 334.92 116.509 334.2 116.509 333.352C116.509 332.088 116.173 331.12 115.501 330.448C114.845 329.76 114.037 329.416 113.077 329.416C112.117 329.416 111.309 329.76 110.653 330.448C110.013 331.12 109.693 332.088 109.693 333.352C109.693 334.616 110.005 335.592 110.629 336.28C111.269 336.952 112.069 337.288 113.029 337.288ZM126.341 329.464V335.896C126.341 336.344 126.445 336.672 126.653 336.88C126.877 337.072 127.245 337.168 127.757 337.168H129.317V340H127.205C124.373 340 122.957 338.624 122.957 335.872V329.464H121.373V326.704H122.957V323.416H126.341V326.704H129.317V329.464H126.341ZM137.638 340.216C136.358 340.216 135.206 339.936 134.182 339.376C133.158 338.8 132.35 337.992 131.758 336.952C131.182 335.912 130.894 334.712 130.894 333.352C130.894 331.992 131.19 330.792 131.782 329.752C132.39 328.712 133.214 327.912 134.254 327.352C135.294 326.776 136.454 326.488 137.734 326.488C139.014 326.488 140.174 326.776 141.214 327.352C142.254 327.912 143.07 328.712 143.662 329.752C144.27 330.792 144.574 331.992 144.574 333.352C144.574 334.712 144.262 335.912 143.638 336.952C143.03 337.992 142.198 338.8 141.142 339.376C140.102 339.936 138.934 340.216 137.638 340.216ZM137.638 337.288C138.246 337.288 138.814 337.144 139.342 336.856C139.886 336.552 140.318 336.104 140.638 335.512C140.958 334.92 141.118 334.2 141.118 333.352C141.118 332.088 140.782 331.12 140.11 330.448C139.454 329.76 138.646 329.416 137.686 329.416C136.726 329.416 135.918 329.76 135.262 330.448C134.622 331.12 134.302 332.088 134.302 333.352C134.302 334.616 134.614 335.592 135.238 336.28C135.878 336.952 136.678 337.288 137.638 337.288ZM157.846 340.216C156.758 340.216 155.782 340.024 154.918 339.64C154.054 339.24 153.366 338.704 152.854 338.032C152.358 337.36 152.086 336.616 152.038 335.8H155.422C155.486 336.312 155.734 336.736 156.166 337.072C156.614 337.408 157.166 337.576 157.822 337.576C158.462 337.576 158.958 337.448 159.31 337.192C159.678 336.936 159.862 336.608 159.862 336.208C159.862 335.776 159.638 335.456 159.19 335.248C158.758 335.024 158.062 334.784 157.102 334.528C156.11 334.288 155.294 334.04 154.654 333.784C154.03 333.528 153.486 333.136 153.022 332.608C152.574 332.08 152.35 331.368 152.35 330.472C152.35 329.736 152.558 329.064 152.974 328.456C153.406 327.848 154.014 327.368 154.798 327.016C155.598 326.664 156.534 326.488 157.606 326.488C159.19 326.488 160.454 326.888 161.398 327.688C162.342 328.472 162.862 329.536 162.958 330.88H159.742C159.694 330.352 159.47 329.936 159.07 329.632C158.686 329.312 158.166 329.152 157.51 329.152C156.902 329.152 156.43 329.264 156.094 329.488C155.774 329.712 155.614 330.024 155.614 330.424C155.614 330.872 155.838 331.216 156.286 331.456C156.734 331.68 157.43 331.912 158.374 332.152C159.334 332.392 160.126 332.64 160.75 332.896C161.374 333.152 161.91 333.552 162.358 334.096C162.822 334.624 163.062 335.328 163.078 336.208C163.078 336.976 162.862 337.664 162.43 338.272C162.014 338.88 161.406 339.36 160.606 339.712C159.822 340.048 158.902 340.216 157.846 340.216ZM178.196 333.064C178.196 333.544 178.164 333.976 178.1 334.36H168.38C168.46 335.32 168.796 336.072 169.388 336.616C169.98 337.16 170.708 337.432 171.572 337.432C172.82 337.432 173.708 336.896 174.236 335.824H177.86C177.476 337.104 176.74 338.16 175.652 338.992C174.564 339.808 173.228 340.216 171.644 340.216C170.364 340.216 169.212 339.936 168.188 339.376C167.18 338.8 166.388 337.992 165.812 336.952C165.252 335.912 164.972 334.712 164.972 333.352C164.972 331.976 165.252 330.768 165.812 329.728C166.372 328.688 167.156 327.888 168.164 327.328C169.172 326.768 170.332 326.488 171.644 326.488C172.908 326.488 174.036 326.76 175.028 327.304C176.036 327.848 176.812 328.624 177.356 329.632C177.916 330.624 178.196 331.768 178.196 333.064ZM174.716 332.104C174.7 331.24 174.388 330.552 173.78 330.04C173.172 329.512 172.428 329.248 171.548 329.248C170.716 329.248 170.012 329.504 169.436 330.016C168.876 330.512 168.532 331.208 168.404 332.104H174.716ZM185.736 340.216C184.648 340.216 183.672 340.024 182.808 339.64C181.944 339.24 181.256 338.704 180.744 338.032C180.248 337.36 179.976 336.616 179.928 335.8H183.312C183.376 336.312 183.624 336.736 184.056 337.072C184.504 337.408 185.056 337.576 185.712 337.576C186.352 337.576 186.848 337.448 187.2 337.192C187.568 336.936 187.752 336.608 187.752 336.208C187.752 335.776 187.528 335.456 187.08 335.248C186.648 335.024 185.952 334.784 184.992 334.528C184 334.288 183.184 334.04 182.544 333.784C181.92 333.528 181.376 333.136 180.912 332.608C180.464 332.08 180.24 331.368 180.24 330.472C180.24 329.736 180.448 329.064 180.864 328.456C181.296 327.848 181.904 327.368 182.688 327.016C183.488 326.664 184.424 326.488 185.496 326.488C187.08 326.488 188.344 326.888 189.288 327.688C190.232 328.472 190.752 329.536 190.848 330.88H187.632C187.584 330.352 187.36 329.936 186.96 329.632C186.576 329.312 186.056 329.152 185.4 329.152C184.792 329.152 184.32 329.264 183.984 329.488C183.664 329.712 183.504 330.024 183.504 330.424C183.504 330.872 183.728 331.216 184.176 331.456C184.624 331.68 185.32 331.912 186.264 332.152C187.224 332.392 188.016 332.64 188.64 332.896C189.264 333.152 189.8 333.552 190.248 334.096C190.712 334.624 190.952 335.328 190.968 336.208C190.968 336.976 190.752 337.664 190.32 338.272C189.904 338.88 189.296 339.36 188.496 339.712C187.712 340.048 186.792 340.216 185.736 340.216ZM198.814 340.216C197.726 340.216 196.75 340.024 195.886 339.64C195.022 339.24 194.334 338.704 193.822 338.032C193.326 337.36 193.054 336.616 193.006 335.8H196.39C196.454 336.312 196.702 336.736 197.134 337.072C197.582 337.408 198.134 337.576 198.79 337.576C199.43 337.576 199.926 337.448 200.278 337.192C200.646 336.936 200.83 336.608 200.83 336.208C200.83 335.776 200.606 335.456 200.158 335.248C199.726 335.024 199.03 334.784 198.07 334.528C197.078 334.288 196.262 334.04 195.622 333.784C194.998 333.528 194.454 333.136 193.99 332.608C193.542 332.08 193.318 331.368 193.318 330.472C193.318 329.736 193.526 329.064 193.942 328.456C194.374 327.848 194.982 327.368 195.766 327.016C196.566 326.664 197.502 326.488 198.574 326.488C200.158 326.488 201.422 326.888 202.366 327.688C203.31 328.472 203.83 329.536 203.926 330.88H200.71C200.662 330.352 200.438 329.936 200.038 329.632C199.654 329.312 199.134 329.152 198.478 329.152C197.87 329.152 197.398 329.264 197.062 329.488C196.742 329.712 196.582 330.024 196.582 330.424C196.582 330.872 196.806 331.216 197.254 331.456C197.702 331.68 198.398 331.912 199.342 332.152C200.302 332.392 201.094 332.64 201.718 332.896C202.342 333.152 202.878 333.552 203.326 334.096C203.79 334.624 204.03 335.328 204.046 336.208C204.046 336.976 203.83 337.664 203.398 338.272C202.982 338.88 202.374 339.36 201.574 339.712C200.79 340.048 199.87 340.216 198.814 340.216ZM208.508 325.12C207.916 325.12 207.42 324.936 207.02 324.568C206.636 324.184 206.444 323.712 206.444 323.152C206.444 322.592 206.636 322.128 207.02 321.76C207.42 321.376 207.916 321.184 208.508 321.184C209.1 321.184 209.588 321.376 209.972 321.76C210.372 322.128 210.572 322.592 210.572 323.152C210.572 323.712 210.372 324.184 209.972 324.568C209.588 324.936 209.1 325.12 208.508 325.12ZM210.164 326.704V340H206.804V326.704H210.164ZM219.388 340.216C218.108 340.216 216.956 339.936 215.932 339.376C214.908 338.8 214.1 337.992 213.508 336.952C212.932 335.912 212.644 334.712 212.644 333.352C212.644 331.992 212.94 330.792 213.532 329.752C214.14 328.712 214.964 327.912 216.004 327.352C217.044 326.776 218.204 326.488 219.484 326.488C220.764 326.488 221.924 326.776 222.964 327.352C224.004 327.912 224.82 328.712 225.412 329.752C226.02 330.792 226.324 331.992 226.324 333.352C226.324 334.712 226.012 335.912 225.388 336.952C224.78 337.992 223.948 338.8 222.892 339.376C221.852 339.936 220.684 340.216 219.388 340.216ZM219.388 337.288C219.996 337.288 220.564 337.144 221.092 336.856C221.636 336.552 222.068 336.104 222.388 335.512C222.708 334.92 222.868 334.2 222.868 333.352C222.868 332.088 222.532 331.12 221.86 330.448C221.204 329.76 220.396 329.416 219.436 329.416C218.476 329.416 217.668 329.76 217.012 330.448C216.372 331.12 216.052 332.088 216.052 333.352C216.052 334.616 216.364 335.592 216.988 336.28C217.628 336.952 218.428 337.288 219.388 337.288ZM236.157 326.512C237.741 326.512 239.021 327.016 239.997 328.024C240.973 329.016 241.461 330.408 241.461 332.2V340H238.101V332.656C238.101 331.6 237.837 330.792 237.309 330.232C236.781 329.656 236.061 329.368 235.149 329.368C234.221 329.368 233.485 329.656 232.941 330.232C232.413 330.792 232.149 331.6 232.149 332.656V340H228.789V326.704H232.149V328.36C232.597 327.784 233.165 327.336 233.853 327.016C234.557 326.68 235.325 326.512 236.157 326.512Z" fill="white"/>
<path d="M79.3705 163.561C79.4505 164.001 79.6305 164.341 79.9105 164.581C80.2005 164.811 80.5855 164.926 81.0655 164.926C81.6855 164.926 82.1355 164.671 82.4155 164.161C82.6955 163.641 82.8355 162.771 82.8355 161.551C82.6055 161.871 82.2805 162.121 81.8605 162.301C81.4505 162.481 81.0055 162.571 80.5255 162.571C79.8855 162.571 79.3055 162.441 78.7855 162.181C78.2755 161.911 77.8705 161.516 77.5705 160.996C77.2705 160.466 77.1205 159.826 77.1205 159.076C77.1205 157.966 77.4505 157.086 78.1105 156.436C78.7705 155.776 79.6705 155.446 80.8105 155.446C82.2305 155.446 83.2305 155.901 83.8105 156.811C84.4005 157.721 84.6955 159.091 84.6955 160.921C84.6955 162.221 84.5805 163.286 84.3505 164.116C84.1305 164.946 83.7455 165.576 83.1955 166.006C82.6555 166.436 81.9155 166.651 80.9755 166.651C80.2355 166.651 79.6055 166.511 79.0855 166.231C78.5655 165.941 78.1655 165.566 77.8855 165.106C77.6155 164.636 77.4605 164.121 77.4205 163.561H79.3705ZM80.9605 160.861C81.4805 160.861 81.8905 160.701 82.1905 160.381C82.4905 160.061 82.6405 159.631 82.6405 159.091C82.6405 158.501 82.4805 158.046 82.1605 157.726C81.8505 157.396 81.4255 157.231 80.8855 157.231C80.3455 157.231 79.9155 157.401 79.5955 157.741C79.2855 158.071 79.1305 158.511 79.1305 159.061C79.1305 159.591 79.2805 160.026 79.5805 160.366C79.8905 160.696 80.3505 160.861 80.9605 160.861ZM87.5002 166.741C87.1202 166.741 86.8052 166.626 86.5552 166.396C86.3152 166.156 86.1952 165.861 86.1952 165.511C86.1952 165.161 86.3152 164.871 86.5552 164.641C86.8052 164.401 87.1202 164.281 87.5002 164.281C87.8702 164.281 88.1752 164.401 88.4152 164.641C88.6552 164.871 88.7752 165.161 88.7752 165.511C88.7752 165.861 88.6552 166.156 88.4152 166.396C88.1752 166.626 87.8702 166.741 87.5002 166.741ZM87.5002 160.531C87.1202 160.531 86.8052 160.416 86.5552 160.186C86.3152 159.946 86.1952 159.651 86.1952 159.301C86.1952 158.951 86.3152 158.661 86.5552 158.431C86.8052 158.191 87.1202 158.071 87.5002 158.071C87.8702 158.071 88.1752 158.191 88.4152 158.431C88.6552 158.661 88.7752 158.951 88.7752 159.301C88.7752 159.651 88.6552 159.946 88.4152 160.186C88.1752 160.416 87.8702 160.531 87.5002 160.531ZM90.2706 161.026C90.2706 159.296 90.5806 157.941 91.2006 156.961C91.8306 155.981 92.8706 155.491 94.3206 155.491C95.7706 155.491 96.8056 155.981 97.4256 156.961C98.0556 157.941 98.3706 159.296 98.3706 161.026C98.3706 162.766 98.0556 164.131 97.4256 165.121C96.8056 166.111 95.7706 166.606 94.3206 166.606C92.8706 166.606 91.8306 166.111 91.2006 165.121C90.5806 164.131 90.2706 162.766 90.2706 161.026ZM96.3006 161.026C96.3006 160.286 96.2506 159.666 96.1506 159.166C96.0606 158.656 95.8706 158.241 95.5806 157.921C95.3006 157.601 94.8806 157.441 94.3206 157.441C93.7606 157.441 93.3356 157.601 93.0456 157.921C92.7656 158.241 92.5756 158.656 92.4756 159.166C92.3856 159.666 92.3406 160.286 92.3406 161.026C92.3406 161.786 92.3856 162.426 92.4756 162.946C92.5656 163.456 92.7556 163.871 93.0456 164.191C93.3356 164.501 93.7606 164.656 94.3206 164.656C94.8806 164.656 95.3056 164.501 95.5956 164.191C95.8856 163.871 96.0756 163.456 96.1656 162.946C96.2556 162.426 96.3006 161.786 96.3006 161.026ZM99.9679 161.026C99.9679 159.296 100.278 157.941 100.898 156.961C101.528 155.981 102.568 155.491 104.018 155.491C105.468 155.491 106.503 155.981 107.123 156.961C107.753 157.941 108.068 159.296 108.068 161.026C108.068 162.766 107.753 164.131 107.123 165.121C106.503 166.111 105.468 166.606 104.018 166.606C102.568 166.606 101.528 166.111 100.898 165.121C100.278 164.131 99.9679 162.766 99.9679 161.026ZM105.998 161.026C105.998 160.286 105.948 159.666 105.848 159.166C105.758 158.656 105.568 158.241 105.278 157.921C104.998 157.601 104.578 157.441 104.018 157.441C103.458 157.441 103.033 157.601 102.743 157.921C102.463 158.241 102.273 158.656 102.173 159.166C102.083 159.666 102.038 160.286 102.038 161.026C102.038 161.786 102.083 162.426 102.173 162.946C102.263 163.456 102.453 163.871 102.743 164.191C103.033 164.501 103.458 164.656 104.018 164.656C104.578 164.656 105.003 164.501 105.293 164.191C105.583 163.871 105.773 163.456 105.863 162.946C105.953 162.426 105.998 161.786 105.998 161.026ZM112.939 162.451C112.939 161.611 113.104 160.866 113.434 160.216C113.774 159.566 114.229 159.066 114.799 158.716C115.379 158.366 116.024 158.191 116.734 158.191C117.354 158.191 117.894 158.316 118.354 158.566C118.824 158.816 119.199 159.131 119.479 159.511V158.326H121.594V166.636H119.479V165.421C119.209 165.811 118.834 166.136 118.354 166.396C117.884 166.646 117.339 166.771 116.719 166.771C116.019 166.771 115.379 166.591 114.799 166.231C114.229 165.871 113.774 165.366 113.434 164.716C113.104 164.056 112.939 163.301 112.939 162.451ZM119.479 162.481C119.479 161.971 119.379 161.536 119.179 161.176C118.979 160.806 118.709 160.526 118.369 160.336C118.029 160.136 117.664 160.036 117.274 160.036C116.884 160.036 116.524 160.131 116.194 160.321C115.864 160.511 115.594 160.791 115.384 161.161C115.184 161.521 115.084 161.951 115.084 162.451C115.084 162.951 115.184 163.391 115.384 163.771C115.594 164.141 115.864 164.426 116.194 164.626C116.534 164.826 116.894 164.926 117.274 164.926C117.664 164.926 118.029 164.831 118.369 164.641C118.709 164.441 118.979 164.161 119.179 163.801C119.379 163.431 119.479 162.991 119.479 162.481ZM133.965 158.206C134.985 158.206 135.805 158.521 136.425 159.151C137.055 159.771 137.37 160.641 137.37 161.761V166.636H135.27V162.046C135.27 161.396 135.105 160.901 134.775 160.561C134.445 160.211 133.995 160.036 133.425 160.036C132.855 160.036 132.4 160.211 132.06 160.561C131.73 160.901 131.565 161.396 131.565 162.046V166.636H129.465V162.046C129.465 161.396 129.3 160.901 128.97 160.561C128.64 160.211 128.19 160.036 127.62 160.036C127.04 160.036 126.58 160.211 126.24 160.561C125.91 160.901 125.745 161.396 125.745 162.046V166.636H123.645V158.326H125.745V159.331C126.015 158.981 126.36 158.706 126.78 158.506C127.21 158.306 127.68 158.206 128.19 158.206C128.84 158.206 129.42 158.346 129.93 158.626C130.44 158.896 130.835 159.286 131.115 159.796C131.385 159.316 131.775 158.931 132.285 158.641C132.805 158.351 133.365 158.206 133.965 158.206ZM149.327 160.396V162.166H142.967V160.396H149.327ZM154.762 157.636V155.701H158.377V166.636H156.217V157.636H154.762ZM160.196 157.636V155.701H163.811V166.636H161.651V157.636H160.196ZM167.056 166.741C166.676 166.741 166.361 166.626 166.111 166.396C165.871 166.156 165.751 165.861 165.751 165.511C165.751 165.161 165.871 164.871 166.111 164.641C166.361 164.401 166.676 164.281 167.056 164.281C167.426 164.281 167.731 164.401 167.971 164.641C168.211 164.871 168.331 165.161 168.331 165.511C168.331 165.861 168.211 166.156 167.971 166.396C167.731 166.626 167.426 166.741 167.056 166.741ZM167.056 160.531C166.676 160.531 166.361 160.416 166.111 160.186C165.871 159.946 165.751 159.651 165.751 159.301C165.751 158.951 165.871 158.661 166.111 158.431C166.361 158.191 166.676 158.071 167.056 158.071C167.426 158.071 167.731 158.191 167.971 158.431C168.211 158.661 168.331 158.951 168.331 159.301C168.331 159.651 168.211 159.946 167.971 160.186C167.731 160.416 167.426 160.531 167.056 160.531ZM169.826 161.026C169.826 159.296 170.136 157.941 170.756 156.961C171.386 155.981 172.426 155.491 173.876 155.491C175.326 155.491 176.361 155.981 176.981 156.961C177.611 157.941 177.926 159.296 177.926 161.026C177.926 162.766 177.611 164.131 176.981 165.121C176.361 166.111 175.326 166.606 173.876 166.606C172.426 166.606 171.386 166.111 170.756 165.121C170.136 164.131 169.826 162.766 169.826 161.026ZM175.856 161.026C175.856 160.286 175.806 159.666 175.706 159.166C175.616 158.656 175.426 158.241 175.136 157.921C174.856 157.601 174.436 157.441 173.876 157.441C173.316 157.441 172.891 157.601 172.601 157.921C172.321 158.241 172.131 158.656 172.031 159.166C171.941 159.666 171.896 160.286 171.896 161.026C171.896 161.786 171.941 162.426 172.031 162.946C172.121 163.456 172.311 163.871 172.601 164.191C172.891 164.501 173.316 164.656 173.876 164.656C174.436 164.656 174.861 164.501 175.151 164.191C175.441 163.871 175.631 163.456 175.721 162.946C175.811 162.426 175.856 161.786 175.856 161.026ZM179.524 161.026C179.524 159.296 179.834 157.941 180.454 156.961C181.084 155.981 182.124 155.491 183.574 155.491C185.024 155.491 186.059 155.981 186.679 156.961C187.309 157.941 187.624 159.296 187.624 161.026C187.624 162.766 187.309 164.131 186.679 165.121C186.059 166.111 185.024 166.606 183.574 166.606C182.124 166.606 181.084 166.111 180.454 165.121C179.834 164.131 179.524 162.766 179.524 161.026ZM185.554 161.026C185.554 160.286 185.504 159.666 185.404 159.166C185.314 158.656 185.124 158.241 184.834 157.921C184.554 157.601 184.134 157.441 183.574 157.441C183.014 157.441 182.589 157.601 182.299 157.921C182.019 158.241 181.829 158.656 181.729 159.166C181.639 159.666 181.594 160.286 181.594 161.026C181.594 161.786 181.639 162.426 181.729 162.946C181.819 163.456 182.009 163.871 182.299 164.191C182.589 164.501 183.014 164.656 183.574 164.656C184.134 164.656 184.559 164.501 184.849 164.191C185.139 163.871 185.329 163.456 185.419 162.946C185.509 162.426 185.554 161.786 185.554 161.026ZM192.495 162.451C192.495 161.611 192.66 160.866 192.99 160.216C193.33 159.566 193.785 159.066 194.355 158.716C194.935 158.366 195.58 158.191 196.29 158.191C196.91 158.191 197.45 158.316 197.91 158.566C198.38 158.816 198.755 159.131 199.035 159.511V158.326H201.15V166.636H199.035V165.421C198.765 165.811 198.39 166.136 197.91 166.396C197.44 166.646 196.895 166.771 196.275 166.771C195.575 166.771 194.935 166.591 194.355 166.231C193.785 165.871 193.33 165.366 192.99 164.716C192.66 164.056 192.495 163.301 192.495 162.451ZM199.035 162.481C199.035 161.971 198.935 161.536 198.735 161.176C198.535 160.806 198.265 160.526 197.925 160.336C197.585 160.136 197.22 160.036 196.83 160.036C196.44 160.036 196.08 160.131 195.75 160.321C195.42 160.511 195.15 160.791 194.94 161.161C194.74 161.521 194.64 161.951 194.64 162.451C194.64 162.951 194.74 163.391 194.94 163.771C195.15 164.141 195.42 164.426 195.75 164.626C196.09 164.826 196.45 164.926 196.83 164.926C197.22 164.926 197.585 164.831 197.925 164.641C198.265 164.441 198.535 164.161 198.735 163.801C198.935 163.431 199.035 162.991 199.035 162.481ZM213.521 158.206C214.541 158.206 215.361 158.521 215.981 159.151C216.611 159.771 216.926 160.641 216.926 161.761V166.636H214.826V162.046C214.826 161.396 214.661 160.901 214.331 160.561C214.001 160.211 213.551 160.036 212.981 160.036C212.411 160.036 211.956 160.211 211.616 160.561C211.286 160.901 211.121 161.396 211.121 162.046V166.636H209.021V162.046C209.021 161.396 208.856 160.901 208.526 160.561C208.196 160.211 207.746 160.036 207.176 160.036C206.596 160.036 206.136 160.211 205.796 160.561C205.466 160.901 205.301 161.396 205.301 162.046V166.636H203.201V158.326H205.301V159.331C205.571 158.981 205.916 158.706 206.336 158.506C206.766 158.306 207.236 158.206 207.746 158.206C208.396 158.206 208.976 158.346 209.486 158.626C209.996 158.896 210.391 159.286 210.671 159.796C210.941 159.316 211.331 158.931 211.841 158.641C212.361 158.351 212.921 158.206 213.521 158.206Z" fill="white"/>
<path d="M76.6855 259.455V257.52H80.3005V268.455H78.1405V259.455H76.6855ZM82.1201 259.455V257.52H85.7351V268.455H83.5751V259.455H82.1201ZM88.9796 268.56C88.5996 268.56 88.2846 268.445 88.0346 268.215C87.7946 267.975 87.6746 267.68 87.6746 267.33C87.6746 266.98 87.7946 266.69 88.0346 266.46C88.2846 266.22 88.5996 266.1 88.9796 266.1C89.3496 266.1 89.6546 266.22 89.8946 266.46C90.1346 266.69 90.2546 266.98 90.2546 267.33C90.2546 267.68 90.1346 267.975 89.8946 268.215C89.6546 268.445 89.3496 268.56 88.9796 268.56ZM88.9796 262.35C88.5996 262.35 88.2846 262.235 88.0346 262.005C87.7946 261.765 87.6746 261.47 87.6746 261.12C87.6746 260.77 87.7946 260.48 88.0346 260.25C88.2846 260.01 88.5996 259.89 88.9796 259.89C89.3496 259.89 89.6546 260.01 89.8946 260.25C90.1346 260.48 90.2546 260.77 90.2546 261.12C90.2546 261.47 90.1346 261.765 89.8946 262.005C89.6546 262.235 89.3496 262.35 88.9796 262.35ZM91.7801 260.4C91.8301 259.4 92.1801 258.63 92.8301 258.09C93.4901 257.54 94.3551 257.265 95.4251 257.265C96.1551 257.265 96.7801 257.395 97.3001 257.655C97.8201 257.905 98.2101 258.25 98.4701 258.69C98.7401 259.12 98.8751 259.61 98.8751 260.16C98.8751 260.79 98.7101 261.325 98.3801 261.765C98.0601 262.195 97.6751 262.485 97.2251 262.635V262.695C97.8051 262.875 98.2551 263.195 98.5751 263.655C98.9051 264.115 99.0701 264.705 99.0701 265.425C99.0701 266.025 98.9301 266.56 98.6501 267.03C98.3801 267.5 97.9751 267.87 97.4351 268.14C96.9051 268.4 96.2651 268.53 95.5151 268.53C94.3851 268.53 93.4651 268.245 92.7551 267.675C92.0451 267.105 91.6701 266.265 91.6301 265.155H93.6701C93.6901 265.645 93.8551 266.04 94.1651 266.34C94.4851 266.63 94.9201 266.775 95.4701 266.775C95.9801 266.775 96.3701 266.635 96.6401 266.355C96.9201 266.065 97.0601 265.695 97.0601 265.245C97.0601 264.645 96.8701 264.215 96.4901 263.955C96.1101 263.695 95.5201 263.565 94.7201 263.565H94.2851V261.84H94.7201C96.1401 261.84 96.8501 261.365 96.8501 260.415C96.8501 259.985 96.7201 259.65 96.4601 259.41C96.2101 259.17 95.8451 259.05 95.3651 259.05C94.8951 259.05 94.5301 259.18 94.2701 259.44C94.0201 259.69 93.8751 260.01 93.8351 260.4H91.7801ZM100.73 262.845C100.73 261.115 101.04 259.76 101.66 258.78C102.29 257.8 103.33 257.31 104.78 257.31C106.23 257.31 107.265 257.8 107.885 258.78C108.515 259.76 108.83 261.115 108.83 262.845C108.83 264.585 108.515 265.95 107.885 266.94C107.265 267.93 106.23 268.425 104.78 268.425C103.33 268.425 102.29 267.93 101.66 266.94C101.04 265.95 100.73 264.585 100.73 262.845ZM106.76 262.845C106.76 262.105 106.71 261.485 106.61 260.985C106.52 260.475 106.33 260.06 106.04 259.74C105.76 259.42 105.34 259.26 104.78 259.26C104.22 259.26 103.795 259.42 103.505 259.74C103.225 260.06 103.035 260.475 102.935 260.985C102.845 261.485 102.8 262.105 102.8 262.845C102.8 263.605 102.845 264.245 102.935 264.765C103.025 265.275 103.215 265.69 103.505 266.01C103.795 266.32 104.22 266.475 104.78 266.475C105.34 266.475 105.765 266.32 106.055 266.01C106.345 265.69 106.535 265.275 106.625 264.765C106.715 264.245 106.76 263.605 106.76 262.845ZM113.701 264.27C113.701 263.43 113.866 262.685 114.196 262.035C114.536 261.385 114.991 260.885 115.561 260.535C116.141 260.185 116.786 260.01 117.496 260.01C118.116 260.01 118.656 260.135 119.116 260.385C119.586 260.635 119.961 260.95 120.241 261.33V260.145H122.356V268.455H120.241V267.24C119.971 267.63 119.596 267.955 119.116 268.215C118.646 268.465 118.101 268.59 117.481 268.59C116.781 268.59 116.141 268.41 115.561 268.05C114.991 267.69 114.536 267.185 114.196 266.535C113.866 265.875 113.701 265.12 113.701 264.27ZM120.241 264.3C120.241 263.79 120.141 263.355 119.941 262.995C119.741 262.625 119.471 262.345 119.131 262.155C118.791 261.955 118.426 261.855 118.036 261.855C117.646 261.855 117.286 261.95 116.956 262.14C116.626 262.33 116.356 262.61 116.146 262.98C115.946 263.34 115.846 263.77 115.846 264.27C115.846 264.77 115.946 265.21 116.146 265.59C116.356 265.96 116.626 266.245 116.956 266.445C117.296 266.645 117.656 266.745 118.036 266.745C118.426 266.745 118.791 266.65 119.131 266.46C119.471 266.26 119.741 265.98 119.941 265.62C120.141 265.25 120.241 264.81 120.241 264.3ZM134.727 260.025C135.747 260.025 136.567 260.34 137.187 260.97C137.817 261.59 138.132 262.46 138.132 263.58V268.455H136.032V263.865C136.032 263.215 135.867 262.72 135.537 262.38C135.207 262.03 134.757 261.855 134.187 261.855C133.617 261.855 133.162 262.03 132.822 262.38C132.492 262.72 132.327 263.215 132.327 263.865V268.455H130.227V263.865C130.227 263.215 130.062 262.72 129.732 262.38C129.402 262.03 128.952 261.855 128.382 261.855C127.802 261.855 127.342 262.03 127.002 262.38C126.672 262.72 126.507 263.215 126.507 263.865V268.455H124.407V260.145H126.507V261.15C126.777 260.8 127.122 260.525 127.542 260.325C127.972 260.125 128.442 260.025 128.952 260.025C129.602 260.025 130.182 260.165 130.692 260.445C131.202 260.715 131.597 261.105 131.877 261.615C132.147 261.135 132.537 260.75 133.047 260.46C133.567 260.17 134.127 260.025 134.727 260.025ZM150.089 262.215V263.985H143.729V262.215H150.089ZM155.523 259.455V257.52H159.138V268.455H156.978V259.455H155.523ZM161.873 266.085C162.833 265.285 163.598 264.62 164.168 264.09C164.738 263.55 165.213 262.99 165.593 262.41C165.973 261.83 166.163 261.26 166.163 260.7C166.163 260.19 166.043 259.79 165.803 259.5C165.563 259.21 165.193 259.065 164.693 259.065C164.193 259.065 163.808 259.235 163.538 259.575C163.268 259.905 163.128 260.36 163.118 260.94H161.078C161.118 259.74 161.473 258.83 162.143 258.21C162.823 257.59 163.683 257.28 164.723 257.28C165.863 257.28 166.738 257.585 167.348 258.195C167.958 258.795 168.263 259.59 168.263 260.58C168.263 261.36 168.053 262.105 167.633 262.815C167.213 263.525 166.733 264.145 166.193 264.675C165.653 265.195 164.948 265.825 164.078 266.565H168.503V268.305H161.093V266.745L161.873 266.085ZM170.996 268.56C170.616 268.56 170.301 268.445 170.051 268.215C169.811 267.975 169.691 267.68 169.691 267.33C169.691 266.98 169.811 266.69 170.051 266.46C170.301 266.22 170.616 266.1 170.996 266.1C171.366 266.1 171.671 266.22 171.911 266.46C172.151 266.69 172.271 266.98 172.271 267.33C172.271 267.68 172.151 267.975 171.911 268.215C171.671 268.445 171.366 268.56 170.996 268.56ZM170.996 262.35C170.616 262.35 170.301 262.235 170.051 262.005C169.811 261.765 169.691 261.47 169.691 261.12C169.691 260.77 169.811 260.48 170.051 260.25C170.301 260.01 170.616 259.89 170.996 259.89C171.366 259.89 171.671 260.01 171.911 260.25C172.151 260.48 172.271 260.77 172.271 261.12C172.271 261.47 172.151 261.765 171.911 262.005C171.671 262.235 171.366 262.35 170.996 262.35ZM173.797 260.4C173.847 259.4 174.197 258.63 174.847 258.09C175.507 257.54 176.372 257.265 177.442 257.265C178.172 257.265 178.797 257.395 179.317 257.655C179.837 257.905 180.227 258.25 180.487 258.69C180.757 259.12 180.892 259.61 180.892 260.16C180.892 260.79 180.727 261.325 180.397 261.765C180.077 262.195 179.692 262.485 179.242 262.635V262.695C179.822 262.875 180.272 263.195 180.592 263.655C180.922 264.115 181.087 264.705 181.087 265.425C181.087 266.025 180.947 266.56 180.667 267.03C180.397 267.5 179.992 267.87 179.452 268.14C178.922 268.4 178.282 268.53 177.532 268.53C176.402 268.53 175.482 268.245 174.772 267.675C174.062 267.105 173.687 266.265 173.647 265.155H175.687C175.707 265.645 175.872 266.04 176.182 266.34C176.502 266.63 176.937 266.775 177.487 266.775C177.997 266.775 178.387 266.635 178.657 266.355C178.937 266.065 179.077 265.695 179.077 265.245C179.077 264.645 178.887 264.215 178.507 263.955C178.127 263.695 177.537 263.565 176.737 263.565H176.302V261.84H176.737C178.157 261.84 178.867 261.365 178.867 260.415C178.867 259.985 178.737 259.65 178.477 259.41C178.227 259.17 177.862 259.05 177.382 259.05C176.912 259.05 176.547 259.18 176.287 259.44C176.037 259.69 175.892 260.01 175.852 260.4H173.797ZM182.746 262.845C182.746 261.115 183.056 259.76 183.676 258.78C184.306 257.8 185.346 257.31 186.796 257.31C188.246 257.31 189.281 257.8 189.901 258.78C190.531 259.76 190.846 261.115 190.846 262.845C190.846 264.585 190.531 265.95 189.901 266.94C189.281 267.93 188.246 268.425 186.796 268.425C185.346 268.425 184.306 267.93 183.676 266.94C183.056 265.95 182.746 264.585 182.746 262.845ZM188.776 262.845C188.776 262.105 188.726 261.485 188.626 260.985C188.536 260.475 188.346 260.06 188.056 259.74C187.776 259.42 187.356 259.26 186.796 259.26C186.236 259.26 185.811 259.42 185.521 259.74C185.241 260.06 185.051 260.475 184.951 260.985C184.861 261.485 184.816 262.105 184.816 262.845C184.816 263.605 184.861 264.245 184.951 264.765C185.041 265.275 185.231 265.69 185.521 266.01C185.811 266.32 186.236 266.475 186.796 266.475C187.356 266.475 187.781 266.32 188.071 266.01C188.361 265.69 188.551 265.275 188.641 264.765C188.731 264.245 188.776 263.605 188.776 262.845ZM198.358 261.345C198.628 260.965 198.998 260.65 199.468 260.4C199.948 260.14 200.493 260.01 201.103 260.01C201.813 260.01 202.453 260.185 203.023 260.535C203.603 260.885 204.058 261.385 204.388 262.035C204.728 262.675 204.898 263.42 204.898 264.27C204.898 265.12 204.728 265.875 204.388 266.535C204.058 267.185 203.603 267.69 203.023 268.05C202.453 268.41 201.813 268.59 201.103 268.59C200.493 268.59 199.953 268.465 199.483 268.215C199.023 267.965 198.648 267.65 198.358 267.27V272.415H196.258V260.145H198.358V261.345ZM202.753 264.27C202.753 263.77 202.648 263.34 202.438 262.98C202.238 262.61 201.968 262.33 201.628 262.14C201.298 261.95 200.938 261.855 200.548 261.855C200.168 261.855 199.808 261.955 199.468 262.155C199.138 262.345 198.868 262.625 198.658 262.995C198.458 263.365 198.358 263.8 198.358 264.3C198.358 264.8 198.458 265.235 198.658 265.605C198.868 265.975 199.138 266.26 199.468 266.46C199.808 266.65 200.168 266.745 200.548 266.745C200.938 266.745 201.298 266.645 201.628 266.445C201.968 266.245 202.238 265.96 202.438 265.59C202.648 265.22 202.753 264.78 202.753 264.27ZM216.744 260.025C217.764 260.025 218.584 260.34 219.204 260.97C219.834 261.59 220.149 262.46 220.149 263.58V268.455H218.049V263.865C218.049 263.215 217.884 262.72 217.554 262.38C217.224 262.03 216.774 261.855 216.204 261.855C215.634 261.855 215.179 262.03 214.839 262.38C214.509 262.72 214.344 263.215 214.344 263.865V268.455H212.244V263.865C212.244 263.215 212.079 262.72 211.749 262.38C211.419 262.03 210.969 261.855 210.399 261.855C209.819 261.855 209.359 262.03 209.019 262.38C208.689 262.72 208.524 263.215 208.524 263.865V268.455H206.424V260.145H208.524V261.15C208.794 260.8 209.139 260.525 209.559 260.325C209.989 260.125 210.459 260.025 210.969 260.025C211.619 260.025 212.199 260.165 212.709 260.445C213.219 260.715 213.614 261.105 213.894 261.615C214.164 261.135 214.554 260.75 215.064 260.46C215.584 260.17 216.144 260.025 216.744 260.025Z" fill="white"/>
<path d="M76.5586 354.582V352.647H80.1736V363.582H78.0136V354.582H76.5586ZM82.9081 361.212C83.8681 360.412 84.6331 359.747 85.2031 359.217C85.7731 358.677 86.2481 358.117 86.6281 357.537C87.0081 356.957 87.1981 356.387 87.1981 355.827C87.1981 355.317 87.0781 354.917 86.8381 354.627C86.5981 354.337 86.2281 354.192 85.7281 354.192C85.2281 354.192 84.8431 354.362 84.5731 354.702C84.3031 355.032 84.1631 355.487 84.1531 356.067H82.1131C82.1531 354.867 82.5081 353.957 83.1781 353.337C83.8581 352.717 84.7181 352.407 85.7581 352.407C86.8981 352.407 87.7731 352.712 88.3831 353.322C88.9931 353.922 89.2981 354.717 89.2981 355.707C89.2981 356.487 89.0881 357.232 88.6681 357.942C88.2481 358.652 87.7681 359.272 87.2281 359.802C86.6881 360.322 85.9831 360.952 85.1131 361.692H89.5381V363.432H82.1281V361.872L82.9081 361.212ZM92.0314 363.687C91.6514 363.687 91.3364 363.572 91.0864 363.342C90.8464 363.102 90.7264 362.807 90.7264 362.457C90.7264 362.107 90.8464 361.817 91.0864 361.587C91.3364 361.347 91.6514 361.227 92.0314 361.227C92.4014 361.227 92.7064 361.347 92.9464 361.587C93.1864 361.817 93.3064 362.107 93.3064 362.457C93.3064 362.807 93.1864 363.102 92.9464 363.342C92.7064 363.572 92.4014 363.687 92.0314 363.687ZM92.0314 357.477C91.6514 357.477 91.3364 357.362 91.0864 357.132C90.8464 356.892 90.7264 356.597 90.7264 356.247C90.7264 355.897 90.8464 355.607 91.0864 355.377C91.3364 355.137 91.6514 355.017 92.0314 355.017C92.4014 355.017 92.7064 355.137 92.9464 355.377C93.1864 355.607 93.3064 355.897 93.3064 356.247C93.3064 356.597 93.1864 356.892 92.9464 357.132C92.7064 357.362 92.4014 357.477 92.0314 357.477ZM94.7118 361.452V359.802L99.6168 352.782H102.062V359.622H103.382V361.452H102.062V363.582H99.9618V361.452H94.7118ZM100.097 355.032L97.0218 359.622H100.097V355.032ZM112.069 354.462H107.209V357.027C107.419 356.767 107.719 356.557 108.109 356.397C108.499 356.227 108.914 356.142 109.354 356.142C110.154 356.142 110.809 356.317 111.319 356.667C111.829 357.017 112.199 357.467 112.429 358.017C112.659 358.557 112.774 359.137 112.774 359.757C112.774 360.907 112.444 361.832 111.784 362.532C111.134 363.232 110.204 363.582 108.994 363.582C107.854 363.582 106.944 363.297 106.264 362.727C105.584 362.157 105.199 361.412 105.109 360.492H107.149C107.239 360.892 107.439 361.212 107.749 361.452C108.069 361.692 108.474 361.812 108.964 361.812C109.554 361.812 109.999 361.627 110.299 361.257C110.599 360.887 110.749 360.397 110.749 359.787C110.749 359.167 110.594 358.697 110.284 358.377C109.984 358.047 109.539 357.882 108.949 357.882C108.529 357.882 108.179 357.987 107.899 358.197C107.619 358.407 107.419 358.687 107.299 359.037H105.289V352.617H112.069V354.462ZM120.286 356.472C120.556 356.092 120.926 355.777 121.396 355.527C121.876 355.267 122.421 355.137 123.031 355.137C123.741 355.137 124.381 355.312 124.951 355.662C125.531 356.012 125.986 356.512 126.316 357.162C126.656 357.802 126.826 358.547 126.826 359.397C126.826 360.247 126.656 361.002 126.316 361.662C125.986 362.312 125.531 362.817 124.951 363.177C124.381 363.537 123.741 363.717 123.031 363.717C122.421 363.717 121.881 363.592 121.411 363.342C120.951 363.092 120.576 362.777 120.286 362.397V367.542H118.186V355.272H120.286V356.472ZM124.681 359.397C124.681 358.897 124.576 358.467 124.366 358.107C124.166 357.737 123.896 357.457 123.556 357.267C123.226 357.077 122.866 356.982 122.476 356.982C122.096 356.982 121.736 357.082 121.396 357.282C121.066 357.472 120.796 357.752 120.586 358.122C120.386 358.492 120.286 358.927 120.286 359.427C120.286 359.927 120.386 360.362 120.586 360.732C120.796 361.102 121.066 361.387 121.396 361.587C121.736 361.777 122.096 361.872 122.476 361.872C122.866 361.872 123.226 361.772 123.556 361.572C123.896 361.372 124.166 361.087 124.366 360.717C124.576 360.347 124.681 359.907 124.681 359.397ZM138.672 355.152C139.692 355.152 140.512 355.467 141.132 356.097C141.762 356.717 142.077 357.587 142.077 358.707V363.582H139.977V358.992C139.977 358.342 139.812 357.847 139.482 357.507C139.152 357.157 138.702 356.982 138.132 356.982C137.562 356.982 137.107 357.157 136.767 357.507C136.437 357.847 136.272 358.342 136.272 358.992V363.582H134.172V358.992C134.172 358.342 134.007 357.847 133.677 357.507C133.347 357.157 132.897 356.982 132.327 356.982C131.747 356.982 131.287 357.157 130.947 357.507C130.617 357.847 130.452 358.342 130.452 358.992V363.582H128.352V355.272H130.452V356.277C130.722 355.927 131.067 355.652 131.487 355.452C131.917 355.252 132.387 355.152 132.897 355.152C133.547 355.152 134.127 355.292 134.637 355.572C135.147 355.842 135.542 356.232 135.822 356.742C136.092 356.262 136.482 355.877 136.992 355.587C137.512 355.297 138.072 355.152 138.672 355.152Z" fill="white"/>
</g>
<defs>
<filter id="filter0_d_315_251" x="0" y="0" width="367.127" height="528" filterUnits="userSpaceOnUse" color-interpolation-filters="sRGB">
<feFlood flood-opacity="0" result="BackgroundImageFix"/>
<feColorMatrix in="SourceAlpha" type="matrix" values="0 0 0 0 0 0 0 0 0 0 0 0 0 0 0 0 0 0 127 0" result="hardAlpha"/>
<feOffset dy="10"/>
<feGaussianBlur stdDeviation="6"/>
<feComposite in2="hardAlpha" operator="out"/>
<feColorMatrix type="matrix" values="0 0 0 0 0 0 0 0 0 0 0 0 0 0 0 0 0 0 0.25 0"/>
<feBlend mode="normal" in2="BackgroundImageFix" result="effect1_dropShadow_315_251"/>
<feBlend mode="normal" in="SourceGraphic" in2="effect1_dropShadow_315_251" result="shape"/>
</filter>
</defs>
</svg>
