<svg width="328" height="57" viewBox="0 0 328 57" fill="none" xmlns="http://www.w3.org/2000/svg">
<path d="M5.90837 18.2259L0.382133 12.4391L0.0881846 12.2554H25.015L35.8617 22.6579L47.0024 12.2554H55.5269L40.6825 27.1358L55.7033 41.6717H46.7084L36.0087 31.2462L24.8975 41.6717H0L5.90837 35.7701H22.4871L31.0704 27.1358L21.8992 18.2259H5.90837Z" fill="white"/>
<path d="M6.26111 29.9832V23.8749H21.8992L25.015 27.1358L21.8992 29.9832H6.26111Z" fill="white"/>
<path d="M74.5445 43.228C82.6627 43.228 88.9041 37.7722 90.0826 29.7413H81.4843C80.6113 33.1457 77.9489 35.3717 74.5445 35.3717C70.2235 35.3717 67.0374 31.9236 67.0374 27.2098C67.0374 22.4961 70.2235 19.0044 74.5445 19.0044C77.7743 19.0044 80.3931 21.0557 81.4406 24.1546H89.9953C88.7295 16.4292 82.5318 11.148 74.5445 11.148C65.2479 11.148 58.3081 18.0441 58.3081 27.2098C58.3081 36.3319 65.2479 43.228 74.5445 43.228ZM102.486 35.1535V30.5706H112.525V23.6745H102.486V19.1789H113.659V11.89H94.1059V42.4424H114.052V35.1535H102.486ZM127.425 34.7606V11.89H118.87V42.4424H138.293V34.7606H127.425ZM152.498 43.228C159.612 43.228 164.719 39.7363 164.719 33.0584C164.719 26.1187 158.87 24.5911 154.331 23.4563C151.494 22.7143 149.181 22.1469 149.181 20.401C149.181 18.9607 150.621 18.306 152.105 18.306C153.851 18.306 155.291 19.2226 155.291 21.1867H163.758C163.758 14.9453 159.525 11.1917 152.192 11.1917C144.991 11.1917 140.582 14.6397 140.582 20.6629C140.582 27.6027 146.213 28.9557 150.621 30.0469C153.545 30.7452 155.946 31.3126 155.946 33.233C155.946 34.8916 154.244 35.8518 152.498 35.8518C150.577 35.8518 148.875 34.7606 148.875 32.5783H140.189C140.189 39.2562 145.034 43.228 152.498 43.228ZM169.123 42.4424H177.678V11.89H169.123V42.4424ZM198.805 43.228C208.625 43.228 215.608 36.5501 215.608 27.2098C215.608 17.8259 208.625 11.148 198.805 11.148C188.984 11.148 182.001 17.8696 182.001 27.2098C182.001 36.5065 188.984 43.228 198.805 43.228ZM198.805 35.4153C194.178 35.4153 190.73 31.9236 190.73 27.2098C190.73 22.4524 194.178 18.9607 198.805 18.9607C203.475 18.9607 206.836 22.4088 206.836 27.2098C206.836 31.9673 203.475 35.4153 198.805 35.4153ZM236.342 42.4424H245.726L239.659 31.3562C242.67 29.5667 244.504 26.4679 244.504 22.7143C244.504 16.3419 239.703 11.89 233.156 11.89H219.887V42.4424H228.311V33.1021H231.366L236.342 42.4424ZM228.311 19.3972H232.152C234.509 19.3972 235.862 20.7938 235.862 22.7143C235.862 24.5911 234.509 26.0314 232.152 26.0314H228.311V19.3972Z" fill="white"/>
<path d="M258.531 23.8945H257.31V25.227L258.638 25.111L258.531 23.8945ZM266.126 8.74929H267.347V7.52819H266.126V8.74929ZM258.182 8.74929V7.52819H256.961V8.74929H258.182ZM258.182 16.2564H256.961V17.4775H258.182V16.2564ZM261.98 16.2564H263.201V15.0353H261.98V16.2564ZM258.531 19.8791L258.419 18.6632L257.31 18.7658V19.8791H258.531ZM258.638 25.111C261.141 24.8923 263.333 23.91 264.903 22.2441C266.477 20.5738 267.347 18.2989 267.347 15.6454H264.905C264.905 17.7493 264.225 19.4026 263.126 20.5693C262.022 21.7404 260.417 22.504 258.425 22.6781L258.638 25.111ZM267.347 15.6454V8.74929H264.905V15.6454H267.347ZM266.126 7.52819H258.182V9.97039H266.126V7.52819ZM256.961 8.74929V16.2564H259.403V8.74929H256.961ZM258.182 17.4775H261.98V15.0353H258.182V17.4775ZM260.758 16.2564C260.758 16.9603 260.556 17.5045 260.223 17.8823C259.898 18.2519 259.346 18.5774 258.419 18.6632L258.644 21.095C260.074 20.9626 261.246 20.4151 262.055 19.4971C262.857 18.5873 263.201 17.4294 263.201 16.2564H260.758ZM257.31 19.8791V23.8945H259.753V19.8791H257.31ZM291.892 33.1475L290.966 32.351L289.23 34.3686H291.892V33.1475ZM278.841 20.5338H277.62V21.7549H278.841V20.5338ZM286.523 20.5338V21.7549H287.744V20.5338H286.523ZM278.361 38.2542L277.43 37.4643L277.14 37.8061V38.2542H278.361ZM278.361 40H277.14V41.2211H278.361V40ZM299.966 40V41.2211H301.187V40H299.966ZM299.966 33.1475H301.187V31.9264H299.966V33.1475ZM292.817 33.9441C299.017 26.7405 300.663 23.6422 300.663 19.4863H298.221C298.221 22.663 297.162 25.1513 290.966 32.351L292.817 33.9441ZM300.663 19.4863C300.663 16.423 299.466 13.7832 297.366 11.922C295.279 10.071 292.377 9.05581 289.055 9.05581V11.498C291.886 11.498 294.179 12.3596 295.746 13.7494C297.302 15.1289 298.221 17.0938 298.221 19.4863H300.663ZM289.055 9.05581C285.623 9.05581 282.741 10.0942 280.71 12.0556C278.675 14.0207 277.62 16.7922 277.62 20.01H280.062C280.062 17.3356 280.928 15.2405 282.407 13.8122C283.889 12.3801 286.114 11.498 289.055 11.498V9.05581ZM277.62 20.01V20.5338H280.062V20.01H277.62ZM278.841 21.7549H286.523V19.3127H278.841V21.7549ZM287.744 20.5338V19.9664H285.302V20.5338H287.744ZM287.744 19.9664C287.744 19.323 287.927 18.9355 288.124 18.721C288.312 18.5179 288.621 18.3505 289.142 18.3505V15.9083C288.048 15.9083 287.048 16.2864 286.329 17.0653C285.621 17.8329 285.302 18.8639 285.302 19.9664H287.744ZM289.142 18.3505C289.588 18.3505 289.895 18.5022 290.09 18.7025C290.287 18.9043 290.452 19.2393 290.452 19.7481H292.894C292.894 18.6857 292.536 17.7113 291.838 16.9966C291.139 16.2803 290.18 15.9083 289.142 15.9083V18.3505ZM290.452 19.7481C290.452 20.597 290.238 21.5128 288.413 24.0485C286.582 26.5917 283.29 30.5542 277.43 37.4643L279.292 39.044C285.129 32.1619 288.494 28.1153 290.395 25.4755C292.301 22.8282 292.894 21.3871 292.894 19.7481H290.452ZM277.14 38.2542V40H279.582V38.2542H277.14ZM278.361 41.2211H299.966V38.7789H278.361V41.2211ZM301.187 40V33.1475H298.745V40H301.187ZM299.966 31.9264H291.892V34.3686H299.966V31.9264ZM316.57 33.1475L315.645 32.351L313.908 34.3686H316.57V33.1475ZM303.52 20.5338H302.299V21.7549H303.52V20.5338ZM311.202 20.5338V21.7549H312.423V20.5338H311.202ZM303.04 38.2542L302.109 37.4643L301.819 37.8061V38.2542H303.04ZM303.04 40H301.819V41.2211H303.04V40ZM324.645 40V41.2211H325.866V40H324.645ZM324.645 33.1475H325.866V31.9264H324.645V33.1475ZM317.496 33.9441C323.695 26.7405 325.342 23.6422 325.342 19.4863H322.9C322.9 22.663 321.841 25.1513 315.645 32.351L317.496 33.9441ZM325.342 19.4863C325.342 16.423 324.144 13.7832 322.045 11.922C319.957 10.071 317.056 9.05581 313.733 9.05581V11.498C316.565 11.498 318.857 12.3596 320.425 13.7494C321.981 15.1289 322.9 17.0938 322.9 19.4863H325.342ZM313.733 9.05581C310.302 9.05581 307.42 10.0942 305.389 12.0556C303.354 14.0207 302.299 16.7922 302.299 20.01H304.741C304.741 17.3356 305.607 15.2405 307.085 13.8122C308.568 12.3801 310.793 11.498 313.733 11.498V9.05581ZM302.299 20.01V20.5338H304.741V20.01H302.299ZM303.52 21.7549H311.202V19.3127H303.52V21.7549ZM312.423 20.5338V19.9664H309.981V20.5338H312.423ZM312.423 19.9664C312.423 19.323 312.606 18.9355 312.803 18.721C312.991 18.5179 313.3 18.3505 313.821 18.3505V15.9083C312.726 15.9083 311.726 16.2864 311.008 17.0653C310.3 17.8329 309.981 18.8639 309.981 19.9664H312.423ZM313.821 18.3505C314.267 18.3505 314.574 18.5022 314.769 18.7025C314.966 18.9043 315.131 19.2393 315.131 19.7481H317.573C317.573 18.6857 317.214 17.7113 316.517 16.9966C315.818 16.2803 314.859 15.9083 313.821 15.9083V18.3505ZM315.131 19.7481C315.131 20.597 314.917 21.5128 313.092 24.0485C311.261 26.5917 307.969 30.5542 302.109 37.4643L303.971 39.044C309.808 32.1619 313.173 28.1153 315.074 25.4755C316.98 22.8282 317.573 21.3871 317.573 19.7481H315.131ZM301.819 38.2542V40H304.261V38.2542H301.819ZM303.04 41.2211H324.645V38.7789H303.04V41.2211ZM325.866 40V33.1475H323.424V40H325.866ZM324.645 31.9264H316.57V34.3686H324.645V31.9264Z" fill="white"/>
</svg>
