<svg width="446" height="250" viewBox="0 0 446 250" fill="none" xmlns="http://www.w3.org/2000/svg">
<path d="M69.9084 18.2259L64.3821 12.4391L64.0882 12.2554H89.015L99.8617 22.6579L111.002 12.2554H119.527L104.682 27.1358L119.703 41.6717H110.708L100.009 31.2462L88.8975 41.6717H64L69.9084 35.7701H86.4871L95.0704 27.1358L85.8992 18.2259H69.9084Z" fill="white"/>
<path d="M70.2611 29.9832V23.8749H85.8992L89.015 27.1358L85.8992 29.9832H70.2611Z" fill="white"/>
<path d="M138.545 43.228C146.663 43.228 152.904 37.7722 154.083 29.7413H145.484C144.611 33.1457 141.949 35.3717 138.545 35.3717C134.224 35.3717 131.037 31.9236 131.037 27.2098C131.037 22.4961 134.224 19.0044 138.545 19.0044C141.774 19.0044 144.393 21.0557 145.441 24.1546H153.995C152.73 16.4292 146.532 11.148 138.545 11.148C129.248 11.148 122.308 18.0441 122.308 27.2098C122.308 36.3319 129.248 43.228 138.545 43.228ZM166.486 35.1535V30.5706H176.525V23.6745H166.486V19.1789H177.659V11.89H158.106V42.4424H178.052V35.1535H166.486ZM191.425 34.7606V11.89H182.87V42.4424H202.293V34.7606H191.425ZM216.498 43.228C223.612 43.228 228.719 39.7363 228.719 33.0584C228.719 26.1187 222.87 24.5911 218.331 23.4563C215.494 22.7143 213.181 22.1469 213.181 20.401C213.181 18.9607 214.621 18.306 216.105 18.306C217.851 18.306 219.291 19.2226 219.291 21.1867H227.758C227.758 14.9453 223.525 11.1917 216.192 11.1917C208.991 11.1917 204.582 14.6397 204.582 20.6629C204.582 27.6027 210.213 28.9557 214.621 30.0469C217.545 30.7452 219.946 31.3126 219.946 33.233C219.946 34.8916 218.244 35.8518 216.498 35.8518C214.577 35.8518 212.875 34.7606 212.875 32.5783H204.189C204.189 39.2562 209.034 43.228 216.498 43.228ZM233.123 42.4424H241.678V11.89H233.123V42.4424ZM262.805 43.228C272.625 43.228 279.608 36.5501 279.608 27.2098C279.608 17.8259 272.625 11.148 262.805 11.148C252.984 11.148 246.001 17.8696 246.001 27.2098C246.001 36.5065 252.984 43.228 262.805 43.228ZM262.805 35.4153C258.178 35.4153 254.73 31.9236 254.73 27.2098C254.73 22.4524 258.178 18.9607 262.805 18.9607C267.475 18.9607 270.836 22.4088 270.836 27.2098C270.836 31.9673 267.475 35.4153 262.805 35.4153ZM300.342 42.4424H309.726L303.659 31.3562C306.67 29.5667 308.504 26.4679 308.504 22.7143C308.504 16.3419 303.703 11.89 297.156 11.89H283.887V42.4424H292.311V33.1021H295.366L300.342 42.4424ZM292.311 19.3972H296.152C298.509 19.3972 299.862 20.7938 299.862 22.7143C299.862 24.5911 298.509 26.0314 296.152 26.0314H292.311V19.3972Z" fill="white"/>
<path d="M322.531 23.8945H321.31V25.227L322.638 25.111L322.531 23.8945ZM330.126 8.74929H331.347V7.52819H330.126V8.74929ZM322.182 8.74929V7.52819H320.961V8.74929H322.182ZM322.182 16.2564H320.961V17.4775H322.182V16.2564ZM325.98 16.2564H327.201V15.0353H325.98V16.2564ZM322.531 19.8791L322.419 18.6632L321.31 18.7658V19.8791H322.531ZM322.638 25.111C325.141 24.8923 327.333 23.91 328.903 22.2441C330.477 20.5738 331.347 18.2989 331.347 15.6454H328.905C328.905 17.7493 328.225 19.4026 327.126 20.5693C326.022 21.7404 324.417 22.504 322.425 22.6781L322.638 25.111ZM331.347 15.6454V8.74929H328.905V15.6454H331.347ZM330.126 7.52819H322.182V9.97039H330.126V7.52819ZM320.961 8.74929V16.2564H323.403V8.74929H320.961ZM322.182 17.4775H325.98V15.0353H322.182V17.4775ZM324.758 16.2564C324.758 16.9603 324.556 17.5045 324.223 17.8823C323.898 18.2519 323.346 18.5774 322.419 18.6632L322.644 21.095C324.074 20.9626 325.246 20.4151 326.055 19.4971C326.857 18.5873 327.201 17.4294 327.201 16.2564H324.758ZM321.31 19.8791V23.8945H323.753V19.8791H321.31ZM355.892 33.1475L354.966 32.351L353.23 34.3686H355.892V33.1475ZM342.841 20.5338H341.62V21.7549H342.841V20.5338ZM350.523 20.5338V21.7549H351.744V20.5338H350.523ZM342.361 38.2542L341.43 37.4643L341.14 37.8061V38.2542H342.361ZM342.361 40H341.14V41.2211H342.361V40ZM363.966 40V41.2211H365.187V40H363.966ZM363.966 33.1475H365.187V31.9264H363.966V33.1475ZM356.817 33.9441C363.017 26.7405 364.663 23.6422 364.663 19.4863H362.221C362.221 22.663 361.162 25.1513 354.966 32.351L356.817 33.9441ZM364.663 19.4863C364.663 16.423 363.466 13.7832 361.366 11.922C359.279 10.071 356.377 9.05581 353.055 9.05581V11.498C355.886 11.498 358.179 12.3596 359.746 13.7494C361.302 15.1289 362.221 17.0938 362.221 19.4863H364.663ZM353.055 9.05581C349.623 9.05581 346.741 10.0942 344.71 12.0556C342.675 14.0207 341.62 16.7922 341.62 20.01H344.062C344.062 17.3356 344.928 15.2405 346.407 13.8122C347.889 12.3801 350.114 11.498 353.055 11.498V9.05581ZM341.62 20.01V20.5338H344.062V20.01H341.62ZM342.841 21.7549H350.523V19.3127H342.841V21.7549ZM351.744 20.5338V19.9664H349.302V20.5338H351.744ZM351.744 19.9664C351.744 19.323 351.927 18.9355 352.124 18.721C352.312 18.5179 352.621 18.3505 353.142 18.3505V15.9083C352.048 15.9083 351.048 16.2864 350.329 17.0653C349.621 17.8329 349.302 18.8639 349.302 19.9664H351.744ZM353.142 18.3505C353.588 18.3505 353.895 18.5022 354.09 18.7025C354.287 18.9043 354.452 19.2393 354.452 19.7481H356.894C356.894 18.6857 356.536 17.7113 355.838 16.9966C355.139 16.2803 354.18 15.9083 353.142 15.9083V18.3505ZM354.452 19.7481C354.452 20.597 354.238 21.5128 352.413 24.0485C350.582 26.5917 347.29 30.5542 341.43 37.4643L343.292 39.044C349.129 32.1619 352.494 28.1153 354.395 25.4755C356.301 22.8282 356.894 21.3871 356.894 19.7481H354.452ZM341.14 38.2542V40H343.582V38.2542H341.14ZM342.361 41.2211H363.966V38.7789H342.361V41.2211ZM365.187 40V33.1475H362.745V40H365.187ZM363.966 31.9264H355.892V34.3686H363.966V31.9264ZM380.57 33.1475L379.645 32.351L377.908 34.3686H380.57V33.1475ZM367.52 20.5338H366.299V21.7549H367.52V20.5338ZM375.202 20.5338V21.7549H376.423V20.5338H375.202ZM367.04 38.2542L366.109 37.4643L365.819 37.8061V38.2542H367.04ZM367.04 40H365.819V41.2211H367.04V40ZM388.645 40V41.2211H389.866V40H388.645ZM388.645 33.1475H389.866V31.9264H388.645V33.1475ZM381.496 33.9441C387.695 26.7405 389.342 23.6422 389.342 19.4863H386.9C386.9 22.663 385.841 25.1513 379.645 32.351L381.496 33.9441ZM389.342 19.4863C389.342 16.423 388.144 13.7832 386.045 11.922C383.957 10.071 381.056 9.05581 377.733 9.05581V11.498C380.565 11.498 382.857 12.3596 384.425 13.7494C385.981 15.1289 386.9 17.0938 386.9 19.4863H389.342ZM377.733 9.05581C374.302 9.05581 371.42 10.0942 369.389 12.0556C367.354 14.0207 366.299 16.7922 366.299 20.01H368.741C368.741 17.3356 369.607 15.2405 371.085 13.8122C372.568 12.3801 374.793 11.498 377.733 11.498V9.05581ZM366.299 20.01V20.5338H368.741V20.01H366.299ZM367.52 21.7549H375.202V19.3127H367.52V21.7549ZM376.423 20.5338V19.9664H373.981V20.5338H376.423ZM376.423 19.9664C376.423 19.323 376.606 18.9355 376.803 18.721C376.991 18.5179 377.3 18.3505 377.821 18.3505V15.9083C376.726 15.9083 375.726 16.2864 375.008 17.0653C374.3 17.8329 373.981 18.8639 373.981 19.9664H376.423ZM377.821 18.3505C378.267 18.3505 378.574 18.5022 378.769 18.7025C378.966 18.9043 379.131 19.2393 379.131 19.7481H381.573C381.573 18.6857 381.214 17.7113 380.517 16.9966C379.818 16.2803 378.859 15.9083 377.821 15.9083V18.3505ZM379.131 19.7481C379.131 20.597 378.917 21.5128 377.092 24.0485C375.261 26.5917 371.969 30.5542 366.109 37.4643L367.971 39.044C373.808 32.1619 377.173 28.1153 379.074 25.4755C380.98 22.8282 381.573 21.3871 381.573 19.7481H379.131ZM365.819 38.2542V40H368.261V38.2542H365.819ZM367.04 41.2211H388.645V38.7789H367.04V41.2211ZM389.866 40V33.1475H387.424V40H389.866ZM388.645 31.9264H380.57V34.3686H388.645V31.9264Z" fill="white"/>
<g filter="url(#filter0_d_387_55)">
<path d="M225.854 125.311H223.854V127.493L226.028 127.303L225.854 125.311ZM255.414 66.3587H257.414V64.3587H255.414V66.3587ZM224.495 66.3587V64.3587H222.495V66.3587H224.495ZM224.495 95.5798H222.495V97.5798H224.495V95.5798ZM239.275 95.5798H241.275V93.5798H239.275V95.5798ZM225.854 109.681L225.669 107.689L223.854 107.857V109.681H225.854ZM226.028 127.303C235.196 126.502 243.067 122.925 248.652 116.998C254.243 111.065 257.414 102.91 257.414 93.2013H253.414C253.414 102.01 250.555 109.146 245.74 114.255C240.919 119.371 234.01 122.59 225.68 123.318L226.028 127.303ZM257.414 93.2013V66.3587H253.414V93.2013H257.414ZM255.414 64.3587H224.495V68.3587H255.414V64.3587ZM222.495 66.3587V95.5798H226.495V66.3587H222.495ZM224.495 97.5798H239.275V93.5798H224.495V97.5798ZM237.275 95.5798C237.275 98.8483 236.329 101.659 234.504 103.729C232.691 105.786 229.844 107.303 225.669 107.689L226.038 111.672C231.037 111.209 234.901 109.329 237.505 106.374C240.098 103.432 241.275 99.6166 241.275 95.5798H237.275ZM223.854 109.681V125.311H227.854V109.681H223.854ZM318.33 161.327L316.814 160.023L313.97 163.327H318.33V161.327ZM267.532 112.229H265.532V114.229H267.532V112.229ZM297.433 112.229V114.229H299.433V112.229H297.433ZM265.664 181.204L264.138 179.911L263.664 180.47V181.204H265.664ZM265.664 188H263.664V190H265.664V188ZM349.759 188V190H351.759V188H349.759ZM349.759 161.327H351.759V159.327H349.759V161.327ZM319.845 162.632C343.973 134.597 349.721 123.224 349.721 108.152H345.721C345.721 121.621 340.935 131.994 316.814 160.023L319.845 162.632ZM349.721 108.152C349.721 96.9842 345.372 87.4697 337.813 80.7681C330.273 74.0833 319.666 70.3049 307.287 70.3049V74.3049C318.862 74.3049 328.472 77.8317 335.16 83.7612C341.829 89.6739 345.721 98.0829 345.721 108.152H349.721ZM307.287 70.3049C294.482 70.3049 284.005 74.1705 276.719 81.2083C269.425 88.2524 265.532 98.2777 265.532 110.19H269.532C269.532 99.1678 273.115 90.2504 279.498 84.0855C285.887 77.9144 295.287 74.3049 307.287 74.3049V70.3049ZM265.532 110.19V112.229H269.532V110.19H265.532ZM267.532 114.229H297.433V110.229H267.532V114.229ZM299.433 112.229V110.02H295.433V112.229H299.433ZM299.433 110.02C299.433 106.999 300.298 104.765 301.643 103.307C302.971 101.867 304.953 100.978 307.626 100.978V96.9776C304.014 96.9776 300.9 98.212 298.702 100.595C296.522 102.959 295.433 106.247 295.433 110.02H299.433ZM307.626 100.978C310.03 100.978 311.959 101.816 313.288 103.178C314.62 104.542 315.48 106.566 315.48 109.171H319.48C319.48 105.66 318.302 102.588 316.151 100.384C313.997 98.1774 311 96.9776 307.626 96.9776V100.978ZM315.48 109.171C315.48 113.366 314.22 117.523 307.023 127.519C299.817 137.527 286.923 153.045 264.138 179.911L267.189 182.498C289.935 155.678 302.949 140.022 310.269 129.856C317.597 119.677 319.48 114.66 319.48 109.171H315.48ZM263.664 181.204V188H267.664V181.204H263.664ZM265.664 190H349.759V186H265.664V190ZM351.759 188V161.327H347.759V188H351.759ZM349.759 159.327H318.33V163.327H349.759V159.327ZM406.745 161.327L405.229 160.023L402.386 163.327H406.745V161.327ZM355.948 112.229H353.948V114.229H355.948V112.229ZM385.849 112.229V114.229H387.849V112.229H385.849ZM354.079 181.204L352.554 179.911L352.079 180.47V181.204H354.079ZM354.079 188H352.079V190H354.079V188ZM438.175 188V190H440.175V188H438.175ZM438.175 161.327H440.175V159.327H438.175V161.327ZM408.261 162.632C432.388 134.597 438.136 123.224 438.136 108.152H434.136C434.136 121.621 429.351 131.994 405.229 160.023L408.261 162.632ZM438.136 108.152C438.136 96.9842 433.788 87.4697 426.229 80.7681C418.689 74.0833 408.082 70.3049 395.703 70.3049V74.3049C407.278 74.3049 416.887 77.8317 423.576 83.7612C430.245 89.6739 434.136 98.0829 434.136 108.152H438.136ZM395.703 70.3049C382.898 70.3049 372.421 74.1705 365.135 81.2083C357.841 88.2524 353.948 98.2777 353.948 110.19H357.948C357.948 99.1678 361.53 90.2504 367.913 84.0855C374.303 77.9144 383.703 74.3049 395.703 74.3049V70.3049ZM353.948 110.19V112.229H357.948V110.19H353.948ZM355.948 114.229H385.849V110.229H355.948V114.229ZM387.849 112.229V110.02H383.849V112.229H387.849ZM387.849 110.02C387.849 106.999 388.714 104.765 390.059 103.307C391.386 101.867 393.369 100.978 396.042 100.978V96.9776C392.43 96.9776 389.316 98.212 387.118 100.595C384.938 102.959 383.849 106.247 383.849 110.02H387.849ZM396.042 100.978C398.446 100.978 400.375 101.816 401.704 103.178C403.035 104.542 403.896 106.566 403.896 109.171H407.896C407.896 105.66 406.718 102.588 404.566 100.384C402.413 98.1774 399.415 96.9776 396.042 96.9776V100.978ZM403.896 109.171C403.896 113.366 402.636 117.523 395.439 127.519C388.233 137.527 375.339 153.045 352.554 179.911L355.605 182.498C378.351 155.678 391.365 140.022 398.685 129.856C406.013 119.677 407.896 114.66 407.896 109.171H403.896ZM352.079 181.204V188H356.079V181.204H352.079ZM354.079 190H438.175V186H354.079V190ZM440.175 188V161.327H436.175V188H440.175ZM438.175 159.327H406.745V163.327H438.175V159.327Z" fill="url(#paint0_linear_387_55)"/>
</g>
<path d="M22.7683 96.8571L1.47257 74.3701L0.339825 73.6562H96.397L138.195 114.079L181.127 73.6562H213.976L156.773 131.48L214.656 187.965H179.994L138.762 147.453L95.9439 187.965H0L22.7683 165.032H86.6554L119.732 131.48L84.3899 96.8571H22.7683Z" fill="url(#paint1_linear_387_55)"/>
<path d="M24.1276 142.545V118.809H84.3899L96.397 131.48L84.3899 142.545H24.1276Z" fill="url(#paint2_linear_387_55)"/>
<path d="M44.9311 210.95C42.3561 211.2 40.5811 212.975 40.5811 215.7V219.65H45.1311V215.325H42.9561C42.9561 214.275 43.5811 213.375 44.9311 213.25V210.95ZM53.3646 210.95C50.7896 211.2 49.0146 212.975 49.0146 215.7V219.65H53.5646V215.325H51.3896C51.3896 214.275 52.0146 213.375 53.3646 213.25V210.95ZM81.2631 230H86.6381L83.1631 223.65C84.8881 222.625 85.9381 220.85 85.9381 218.7C85.9381 215.05 83.1881 212.5 79.4381 212.5H71.8381V230H76.6631V224.65H78.4131L81.2631 230ZM76.6631 216.8H78.8631C80.2131 216.8 80.9881 217.6 80.9881 218.7C80.9881 219.775 80.2131 220.6 78.8631 220.6H76.6631V216.8ZM90.2326 230H95.1326V212.5H90.2326V230ZM106.209 230.45C110.284 230.45 113.209 228.45 113.209 224.625C113.209 220.65 109.859 219.775 107.259 219.125C105.634 218.7 104.309 218.375 104.309 217.375C104.309 216.55 105.134 216.175 105.984 216.175C106.984 216.175 107.809 216.7 107.809 217.825H112.659C112.659 214.25 110.234 212.1 106.034 212.1C101.909 212.1 99.384 214.075 99.384 217.525C99.384 221.5 102.609 222.275 105.134 222.9C106.809 223.3 108.184 223.625 108.184 224.725C108.184 225.675 107.209 226.225 106.209 226.225C105.109 226.225 104.134 225.6 104.134 224.35H99.159C99.159 228.175 101.934 230.45 106.209 230.45ZM122.032 225.825V223.2H127.782V219.25H122.032V216.675H128.432V212.5H117.232V230H128.657V225.825H122.032ZM150.826 230H156.151L149.126 212.5H144.401L137.526 230H142.701L143.676 227.175H149.876L150.826 230ZM148.701 223.4H144.851L146.751 217.975L148.701 223.4ZM170.404 220.775C171.729 219.95 172.604 218.55 172.604 217C172.604 214.4 170.329 212.525 167.229 212.525H159.329V230.025H167.404C170.629 230.025 173.079 227.875 173.079 225.025C173.079 223.125 172.054 221.55 170.404 220.775ZM168.029 217.8C168.029 218.7 167.404 219.325 166.404 219.325H163.954V216.275H166.404C167.404 216.275 168.029 216.875 168.029 217.8ZM166.579 226.05H163.954V222.875H166.579C167.629 222.875 168.304 223.525 168.304 224.45C168.304 225.4 167.629 226.05 166.579 226.05ZM185.838 230.45C191.463 230.45 195.463 226.625 195.463 221.275C195.463 215.9 191.463 212.075 185.838 212.075C180.213 212.075 176.213 215.925 176.213 221.275C176.213 226.6 180.213 230.45 185.838 230.45ZM185.838 225.975C183.188 225.975 181.213 223.975 181.213 221.275C181.213 218.55 183.188 216.55 185.838 216.55C188.513 216.55 190.438 218.525 190.438 221.275C190.438 224 188.513 225.975 185.838 225.975ZM209.459 212.5L205.984 223.4L202.409 212.5H196.909L203.734 230H208.234L214.934 212.5H209.459ZM222.975 225.825V223.2H228.725V219.25H222.975V216.675H229.375V212.5H218.175V230H229.6V225.825H222.975ZM253.221 212.5H238.871V216.85H243.621V230H248.471V216.85H253.221V212.5ZM267.004 212.5V218.825H261.754V212.5H256.879V230H261.754V223.3H267.004V230H271.854V212.5H267.004ZM281.538 225.825V223.2H287.288V219.25H281.538V216.675H287.938V212.5H276.738V230H288.163V225.825H281.538ZM308.768 230H314.143L310.668 223.65C312.393 222.625 313.443 220.85 313.443 218.7C313.443 215.05 310.693 212.5 306.943 212.5H299.343V230H304.168V224.65H305.918L308.768 230ZM304.168 216.8H306.368C307.718 216.8 308.493 217.6 308.493 218.7C308.493 219.775 307.718 220.6 306.368 220.6H304.168V216.8ZM322.538 225.825V223.2H328.288V219.25H322.538V216.675H328.938V212.5H317.738V230H329.163V225.825H322.538ZM339.622 230.45C343.697 230.45 346.622 228.45 346.622 224.625C346.622 220.65 343.272 219.775 340.672 219.125C339.047 218.7 337.722 218.375 337.722 217.375C337.722 216.55 338.547 216.175 339.397 216.175C340.397 216.175 341.222 216.7 341.222 217.825H346.072C346.072 214.25 343.647 212.1 339.447 212.1C335.322 212.1 332.797 214.075 332.797 217.525C332.797 221.5 336.022 222.275 338.547 222.9C340.222 223.3 341.597 223.625 341.597 224.725C341.597 225.675 340.622 226.225 339.622 226.225C338.522 226.225 337.547 225.6 337.547 224.35H332.572C332.572 228.175 335.347 230.45 339.622 230.45ZM363.428 212.5H349.078V216.85H353.828V230H358.678V216.85H363.428V212.5ZM380.017 220.775C382.592 220.55 384.367 218.775 384.367 216.05V212.1H379.817V216.4H381.992C381.992 217.475 381.367 218.35 380.017 218.475V220.775ZM388.256 220.775C390.831 220.55 392.606 218.775 392.606 216.05V212.1H388.056V216.4H390.231C390.231 217.475 389.606 218.35 388.256 218.475V220.775Z" fill="white"/>
<defs>
<filter id="filter0_d_387_55" x="220.494" y="66.3589" width="221.681" height="129.641" filterUnits="userSpaceOnUse" color-interpolation-filters="sRGB">
<feFlood flood-opacity="0" result="BackgroundImageFix"/>
<feColorMatrix in="SourceAlpha" type="matrix" values="0 0 0 0 0 0 0 0 0 0 0 0 0 0 0 0 0 0 127 0" result="hardAlpha"/>
<feOffset dy="4"/>
<feGaussianBlur stdDeviation="2"/>
<feColorMatrix type="matrix" values="0 0 0 0 0 0 0 0 0 0 0 0 0 0 0 0 0 0 0.25 0"/>
<feBlend mode="normal" in2="BackgroundImageFix" result="effect1_dropShadow_387_55"/>
<feBlend mode="normal" in="SourceGraphic" in2="effect1_dropShadow_387_55" result="shape"/>
</filter>
<linearGradient id="paint0_linear_387_55" x1="243.301" y1="60.7975" x2="420.815" y2="206.909" gradientUnits="userSpaceOnUse">
<stop stop-color="#3C96D7"/>
<stop offset="0.534375" stop-color="#F72B22"/>
<stop offset="1" stop-color="#F8CB15"/>
</linearGradient>
<linearGradient id="paint1_linear_387_55" x1="36.7048" y1="73.3907" x2="194.267" y2="187.981" gradientUnits="userSpaceOnUse">
<stop stop-color="#3C96D7"/>
<stop offset="0.534375" stop-color="#F72B22"/>
<stop offset="1" stop-color="#F8CB15"/>
</linearGradient>
<linearGradient id="paint2_linear_387_55" x1="36.7048" y1="73.3907" x2="194.267" y2="187.981" gradientUnits="userSpaceOnUse">
<stop stop-color="#3C96D7"/>
<stop offset="0.534375" stop-color="#F72B22"/>
<stop offset="1" stop-color="#F8CB15"/>
</linearGradient>
</defs>
</svg>
