<svg width="284" height="44" viewBox="0 0 284 44" fill="none" xmlns="http://www.w3.org/2000/svg">
<path d="M5.19736 14.2771L0.336148 9.16237L0.0775726 9H22.0047L31.5462 18.1944L41.3462 9H48.8449L35.7868 22.1522L49 35H41.0876L31.6755 25.7853L21.9013 35H0L5.19736 29.7838H19.781L27.3314 22.1522L19.2639 14.2771H5.19736Z" fill="white"/>
<path d="M5.50765 24.669V19.2701H19.2639L22.0047 22.1522L19.2639 24.669H5.50765Z" fill="white"/>
<path d="M65.048 35.432C62.48 35.432 60.152 34.88 58.064 33.776C56 32.648 54.368 31.1 53.168 29.132C51.992 27.14 51.404 24.896 51.404 22.4C51.404 19.904 51.992 17.672 53.168 15.704C54.368 13.712 56 12.164 58.064 11.06C60.152 9.932 62.492 9.368 65.084 9.368C67.268 9.368 69.236 9.752 70.988 10.52C72.764 11.288 74.252 12.392 75.452 13.832L71.708 17.288C70.004 15.32 67.892 14.336 65.372 14.336C63.812 14.336 62.42 14.684 61.196 15.38C59.972 16.052 59.012 17 58.316 18.224C57.644 19.448 57.308 20.84 57.308 22.4C57.308 23.96 57.644 25.352 58.316 26.576C59.012 27.8 59.972 28.76 61.196 29.456C62.42 30.128 63.812 30.464 65.372 30.464C67.892 30.464 70.004 29.468 71.708 27.476L75.452 30.932C74.252 32.396 72.764 33.512 70.988 34.28C69.212 35.048 67.232 35.432 65.048 35.432ZM98.9023 30.32V35H79.3903V9.8H98.4343V14.48H85.1863V19.952H96.8863V24.488H85.1863V30.32H98.9023ZM103.543 9.8H109.375V30.248H122.011V35H103.543V9.8ZM133.409 35.432C131.417 35.432 129.485 35.168 127.613 34.64C125.765 34.088 124.277 33.38 123.149 32.516L125.129 28.124C126.209 28.916 127.493 29.552 128.981 30.032C130.469 30.512 131.957 30.752 133.445 30.752C135.101 30.752 136.325 30.512 137.117 30.032C137.909 29.528 138.305 28.868 138.305 28.052C138.305 27.452 138.065 26.96 137.585 26.576C137.129 26.168 136.529 25.844 135.785 25.604C135.065 25.364 134.081 25.1 132.833 24.812C130.913 24.356 129.341 23.9 128.117 23.444C126.893 22.988 125.837 22.256 124.949 21.248C124.085 20.24 123.653 18.896 123.653 17.216C123.653 15.752 124.049 14.432 124.841 13.256C125.633 12.056 126.821 11.108 128.405 10.412C130.013 9.716 131.969 9.368 134.273 9.368C135.881 9.368 137.453 9.56 138.989 9.944C140.525 10.328 141.869 10.88 143.021 11.6L141.221 16.028C138.893 14.708 136.565 14.048 134.237 14.048C132.605 14.048 131.393 14.312 130.601 14.84C129.833 15.368 129.449 16.064 129.449 16.928C129.449 17.792 129.893 18.44 130.781 18.872C131.693 19.28 133.073 19.688 134.921 20.096C136.841 20.552 138.413 21.008 139.637 21.464C140.861 21.92 141.905 22.64 142.769 23.624C143.657 24.608 144.101 25.94 144.101 27.62C144.101 29.06 143.693 30.38 142.877 31.58C142.085 32.756 140.885 33.692 139.277 34.388C137.669 35.084 135.713 35.432 133.409 35.432ZM148.086 9.8H153.918V35H148.086V9.8ZM172.102 35.432C169.486 35.432 167.122 34.868 165.01 33.74C162.922 32.612 161.278 31.064 160.078 29.096C158.902 27.104 158.314 24.872 158.314 22.4C158.314 19.928 158.902 17.708 160.078 15.74C161.278 13.748 162.922 12.188 165.01 11.06C167.122 9.932 169.486 9.368 172.102 9.368C174.718 9.368 177.07 9.932 179.158 11.06C181.246 12.188 182.89 13.748 184.09 15.74C185.29 17.708 185.89 19.928 185.89 22.4C185.89 24.872 185.29 27.104 184.09 29.096C182.89 31.064 181.246 32.612 179.158 33.74C177.07 34.868 174.718 35.432 172.102 35.432ZM172.102 30.464C173.59 30.464 174.934 30.128 176.134 29.456C177.334 28.76 178.27 27.8 178.942 26.576C179.638 25.352 179.986 23.96 179.986 22.4C179.986 20.84 179.638 19.448 178.942 18.224C178.27 17 177.334 16.052 176.134 15.38C174.934 14.684 173.59 14.336 172.102 14.336C170.614 14.336 169.27 14.684 168.07 15.38C166.87 16.052 165.922 17 165.226 18.224C164.554 19.448 164.218 20.84 164.218 22.4C164.218 23.96 164.554 25.352 165.226 26.576C165.922 27.8 166.87 28.76 168.07 29.456C169.27 30.128 170.614 30.464 172.102 30.464ZM206.329 35L201.469 27.98H201.181H196.105V35H190.273V9.8H201.181C203.413 9.8 205.345 10.172 206.977 10.916C208.633 11.66 209.905 12.716 210.793 14.084C211.681 15.452 212.125 17.072 212.125 18.944C212.125 20.816 211.669 22.436 210.757 23.804C209.869 25.148 208.597 26.18 206.941 26.9L212.593 35H206.329ZM206.221 18.944C206.221 17.528 205.765 16.448 204.853 15.704C203.941 14.936 202.609 14.552 200.857 14.552H196.105V23.336H200.857C202.609 23.336 203.941 22.952 204.853 22.184C205.765 21.416 206.221 20.336 206.221 18.944Z" fill="white"/>
<path d="M228.236 8.972L227.529 9.6791L227.536 9.68577L227.542 9.69232L228.236 8.972ZM229.028 12.896L228.058 12.6535H228.058L229.028 12.896ZM228.272 15.056L229.2 15.4296L229.2 15.4274L228.272 15.056ZM226.184 20.24V21.24H226.859L227.112 20.6136L226.184 20.24ZM222.62 20.24L221.655 19.9774L221.311 21.24H222.62V20.24ZM224.168 14.552L225.133 14.8146L225.359 13.9836L224.571 13.6367L224.168 14.552ZM222.764 13.364L221.92 13.9009L221.92 13.9009L222.764 13.364ZM223.232 8.972L223.926 9.69232L223.926 9.69184L223.232 8.972ZM225.752 9C226.524 9 227.088 9.23828 227.529 9.6791L228.943 8.26489C228.088 7.40972 226.996 7 225.752 7V9ZM227.542 9.69232C227.965 10.0995 228.208 10.6521 228.208 11.456H230.208C230.208 10.1959 229.803 9.09247 228.93 8.25168L227.542 9.69232ZM228.208 11.456C228.208 11.8518 228.159 12.2503 228.058 12.6535L229.998 13.1385C230.137 12.5817 230.208 12.0202 230.208 11.456H228.208ZM228.058 12.6535C227.955 13.0641 227.725 13.7316 227.344 14.6846L229.2 15.4274C229.587 14.4604 229.861 13.6879 229.998 13.1385L228.058 12.6535ZM227.344 14.6824L225.256 19.8664L227.112 20.6136L229.2 15.4296L227.344 14.6824ZM226.184 19.24H222.62V21.24H226.184V19.24ZM223.585 20.5026L225.133 14.8146L223.203 14.2894L221.655 19.9774L223.585 20.5026ZM224.571 13.6367C224.143 13.4484 223.832 13.1799 223.608 12.8271L221.92 13.9009C222.368 14.6041 222.993 15.1276 223.765 15.4673L224.571 13.6367ZM223.608 12.8271C223.392 12.4877 223.26 12.0462 223.26 11.456H221.26C221.26 12.3538 221.464 13.1843 221.92 13.9009L223.608 12.8271ZM223.26 11.456C223.26 10.6521 223.503 10.0995 223.926 9.69232L222.538 8.25168C221.665 9.09247 221.26 10.1959 221.26 11.456H223.26ZM223.926 9.69184C224.396 9.23872 224.98 9 225.752 9V7C224.508 7 223.412 7.40928 222.538 8.25215L223.926 9.69184ZM260.849 30.248H261.849V29.248H260.849V30.248ZM260.849 35V36H261.849V35H260.849ZM241.805 35H240.805V36H241.805V35ZM241.805 31.22L241.119 30.493L240.805 30.789V31.22H241.805ZM251.525 22.04L252.212 22.767L252.215 22.7637L251.525 22.04ZM253.613 19.52L254.501 19.9795L254.508 19.9672L253.613 19.52ZM253.109 15.092L252.474 15.8647L252.489 15.877L252.505 15.8887L253.109 15.092ZM247.133 14.912L247.551 15.8207L247.561 15.8161L247.571 15.8112L247.133 14.912ZM244.901 16.784L244.36 17.6247L245.161 18.1408L245.715 17.3652L244.901 16.784ZM240.653 14.048L239.823 13.4902L239.254 14.3365L240.112 14.8887L240.653 14.048ZM244.721 10.628L245.148 11.5323L245.158 11.5274L244.721 10.628ZM255.557 10.304L255.148 11.2165L255.158 11.2207L255.167 11.2247L255.557 10.304ZM258.833 12.896L258.007 13.4588L258.013 13.4689L258.021 13.4789L258.833 12.896ZM259.157 20.672L260.059 21.1047L259.157 20.672ZM255.809 24.776L255.129 24.0428L255.123 24.0489L255.809 24.776ZM250.013 30.248L249.327 29.5209L247.497 31.248H250.013V30.248ZM259.849 30.248V35H261.849V30.248H259.849ZM260.849 34H241.805V36H260.849V34ZM242.805 35V31.22H240.805V35H242.805ZM242.492 31.947L252.212 22.767L250.839 21.313L241.119 30.493L242.492 31.947ZM252.215 22.7637C253.273 21.7552 254.065 20.8238 254.501 19.9794L252.725 19.0606C252.442 19.6082 251.841 20.3568 250.835 21.3163L252.215 22.7637ZM254.508 19.9672C254.926 19.1301 255.153 18.2699 255.153 17.396H253.153C253.153 17.9141 253.02 18.4699 252.719 19.0728L254.508 19.9672ZM255.153 17.396C255.153 16.1298 254.699 15.0431 253.714 14.2953L252.505 15.8887C252.911 16.1969 253.153 16.6462 253.153 17.396H255.153ZM253.744 14.3193C252.821 13.5611 251.558 13.264 250.121 13.264V15.264C251.324 15.264 252.053 15.5189 252.474 15.8647L253.744 14.3193ZM250.121 13.264C248.884 13.264 247.735 13.507 246.696 14.0128L247.571 15.8112C248.307 15.453 249.151 15.264 250.121 15.264V13.264ZM246.716 14.0033C245.66 14.4882 244.783 15.2292 244.087 16.2028L245.715 17.3652C246.22 16.6588 246.83 16.1518 247.551 15.8207L246.716 14.0033ZM245.443 15.9433L241.195 13.2073L240.112 14.8887L244.36 17.6247L245.443 15.9433ZM241.483 14.6058C242.358 13.3039 243.569 12.2779 245.148 11.5322L244.294 9.72375C242.417 10.6101 240.916 11.8641 239.823 13.4902L241.483 14.6058ZM245.158 11.5274C246.73 10.7635 248.556 10.368 250.661 10.368V8.368C248.302 8.368 246.169 8.8125 244.284 9.72863L245.158 11.5274ZM250.661 10.368C252.423 10.368 253.911 10.6617 255.148 11.2165L255.966 9.39149C254.42 8.69827 252.643 8.368 250.661 8.368V10.368ZM255.167 11.2247C256.429 11.7596 257.36 12.5091 258.007 13.4588L259.66 12.3332C258.77 11.0269 257.517 10.0484 255.947 9.38325L255.167 11.2247ZM258.021 13.4789C258.677 14.394 259.021 15.4924 259.021 16.82H261.021C261.021 15.1236 260.573 13.606 259.646 12.3131L258.021 13.4789ZM259.021 16.82C259.021 18.0425 258.765 19.1781 258.256 20.2393L260.059 21.1047C260.701 19.7659 261.021 18.3335 261.021 16.82H259.021ZM258.256 20.2393C257.759 21.2739 256.748 22.5411 255.129 24.0428L256.489 25.5092C258.182 23.9389 259.403 22.4701 260.059 21.1047L258.256 20.2393ZM255.123 24.0489L249.327 29.5209L250.7 30.9751L256.496 25.5031L255.123 24.0489ZM250.013 31.248H260.849V29.248H250.013V31.248ZM282.084 30.248H283.084V29.248H282.084V30.248ZM282.084 35V36H283.084V35H282.084ZM263.04 35H262.04V36H263.04V35ZM263.04 31.22L262.353 30.493L262.04 30.789V31.22H263.04ZM272.76 22.04L273.446 22.767L273.45 22.7637L272.76 22.04ZM274.848 19.52L275.736 19.9795L275.742 19.9672L274.848 19.52ZM274.344 15.092L273.709 15.8647L273.724 15.877L273.739 15.8887L274.344 15.092ZM268.368 14.912L268.785 15.8207L268.795 15.8161L268.805 15.8112L268.368 14.912ZM266.136 16.784L265.594 17.6247L266.395 18.1408L266.949 17.3652L266.136 16.784ZM261.888 14.048L261.058 13.4902L260.489 14.3365L261.346 14.8887L261.888 14.048ZM265.956 10.628L266.383 11.5323L266.393 11.5274L265.956 10.628ZM276.792 10.304L276.383 11.2165L276.392 11.2207L276.401 11.2247L276.792 10.304ZM280.068 12.896L279.241 13.4588L279.248 13.4689L279.255 13.4789L280.068 12.896ZM280.392 20.672L281.293 21.1047L280.392 20.672ZM277.044 24.776L276.363 24.0428L276.357 24.0489L277.044 24.776ZM271.248 30.248L270.561 29.5209L268.732 31.248H271.248V30.248ZM281.084 30.248V35H283.084V30.248H281.084ZM282.084 34H263.04V36H282.084V34ZM264.04 35V31.22H262.04V35H264.04ZM263.726 31.947L273.446 22.767L272.073 21.313L262.353 30.493L263.726 31.947ZM273.45 22.7637C274.507 21.7552 275.299 20.8238 275.736 19.9794L273.959 19.0606C273.676 19.6082 273.076 20.3568 272.069 21.3163L273.45 22.7637ZM275.742 19.9672C276.161 19.1301 276.388 18.2699 276.388 17.396H274.388C274.388 17.9141 274.255 18.4699 273.953 19.0728L275.742 19.9672ZM276.388 17.396C276.388 16.1298 275.934 15.0431 274.948 14.2953L273.739 15.8887C274.145 16.1969 274.388 16.6462 274.388 17.396H276.388ZM274.978 14.3193C274.055 13.5611 272.792 13.264 271.356 13.264V15.264C272.559 15.264 273.288 15.5189 273.709 15.8647L274.978 14.3193ZM271.356 13.264C270.118 13.264 268.97 13.507 267.93 14.0128L268.805 15.8112C269.541 15.453 270.385 15.264 271.356 15.264V13.264ZM267.95 14.0033C266.895 14.4882 266.017 15.2292 265.322 16.2028L266.949 17.3652C267.454 16.6588 268.064 16.1518 268.785 15.8207L267.95 14.0033ZM266.677 15.9433L262.429 13.2073L261.346 14.8887L265.594 17.6247L266.677 15.9433ZM262.718 14.6058C263.593 13.3039 264.804 12.2779 266.383 11.5322L265.529 9.72375C263.652 10.6101 262.151 11.8641 261.058 13.4902L262.718 14.6058ZM266.393 11.5274C267.964 10.7635 269.791 10.368 271.896 10.368V8.368C269.537 8.368 267.403 8.8125 265.518 9.72863L266.393 11.5274ZM271.896 10.368C273.658 10.368 275.145 10.6617 276.383 11.2165L277.201 9.39149C275.654 8.69827 273.877 8.368 271.896 8.368V10.368ZM276.401 11.2247C277.664 11.7596 278.594 12.5091 279.241 13.4588L280.894 12.3332C280.005 11.0269 278.751 10.0484 277.182 9.38325L276.401 11.2247ZM279.255 13.4789C279.911 14.394 280.256 15.4924 280.256 16.82H282.256C282.256 15.1236 281.808 13.606 280.88 12.3131L279.255 13.4789ZM280.256 16.82C280.256 18.0425 279.999 19.1781 279.49 20.2393L281.293 21.1047C281.936 19.7659 282.256 18.3335 282.256 16.82H280.256ZM279.49 20.2393C278.993 21.2739 277.983 22.5411 276.364 24.0428L277.724 25.5092C279.417 23.9389 280.638 22.4701 281.293 21.1047L279.49 20.2393ZM276.357 24.0489L270.561 29.5209L271.934 30.9751L277.73 25.5031L276.357 24.0489ZM271.248 31.248H282.084V29.248H271.248V31.248Z" fill="white"/>
</svg>
