<svg width="1013" height="530" viewBox="0 0 1013 530" fill="none" xmlns="http://www.w3.org/2000/svg">
<path d="M190.837 255.845V257.891H186.767V271.135H184.259V257.891H180.167V255.845H190.837ZM199.647 258.815C200.571 258.815 201.392 259.013 202.111 259.409C202.844 259.805 203.416 260.391 203.827 261.169C204.252 261.946 204.465 262.885 204.465 263.985V271.135H201.979V264.359C201.979 263.273 201.707 262.445 201.165 261.873C200.622 261.286 199.881 260.993 198.943 260.993C198.004 260.993 197.256 261.286 196.699 261.873C196.156 262.445 195.885 263.273 195.885 264.359V271.135H193.377V254.855H195.885V260.421C196.31 259.907 196.845 259.511 197.491 259.233C198.151 258.954 198.869 258.815 199.647 258.815ZM218.774 264.777C218.774 265.231 218.744 265.642 218.686 266.009H209.424C209.497 266.977 209.856 267.754 210.502 268.341C211.147 268.927 211.939 269.221 212.878 269.221C214.227 269.221 215.18 268.656 215.738 267.527H218.444C218.077 268.641 217.41 269.558 216.442 270.277C215.488 270.981 214.3 271.333 212.878 271.333C211.719 271.333 210.678 271.076 209.754 270.563C208.844 270.035 208.126 269.301 207.598 268.363C207.084 267.409 206.828 266.309 206.828 265.063C206.828 263.816 207.077 262.723 207.576 261.785C208.089 260.831 208.8 260.098 209.71 259.585C210.634 259.071 211.69 258.815 212.878 258.815C214.022 258.815 215.041 259.064 215.936 259.563C216.83 260.061 217.527 260.765 218.026 261.675C218.524 262.569 218.774 263.603 218.774 264.777ZM216.156 263.985C216.141 263.061 215.811 262.32 215.166 261.763C214.52 261.205 213.721 260.927 212.768 260.927C211.902 260.927 211.162 261.205 210.546 261.763C209.93 262.305 209.563 263.046 209.446 263.985H216.156ZM229.465 260.795C229.89 260.237 230.469 259.768 231.203 259.387C231.936 259.005 232.765 258.815 233.689 258.815C234.745 258.815 235.705 259.079 236.571 259.607C237.451 260.12 238.14 260.846 238.639 261.785C239.137 262.723 239.387 263.801 239.387 265.019C239.387 266.236 239.137 267.329 238.639 268.297C238.14 269.25 237.451 269.998 236.571 270.541C235.705 271.069 234.745 271.333 233.689 271.333C232.765 271.333 231.943 271.149 231.225 270.783C230.506 270.401 229.919 269.932 229.465 269.375V276.899H226.957V259.013H229.465V260.795ZM236.835 265.019C236.835 264.183 236.659 263.464 236.307 262.863C235.969 262.247 235.515 261.785 234.943 261.477C234.385 261.154 233.784 260.993 233.139 260.993C232.508 260.993 231.907 261.154 231.335 261.477C230.777 261.799 230.323 262.269 229.971 262.885C229.633 263.501 229.465 264.227 229.465 265.063C229.465 265.899 229.633 266.632 229.971 267.263C230.323 267.879 230.777 268.348 231.335 268.671C231.907 268.993 232.508 269.155 233.139 269.155C233.784 269.155 234.385 268.993 234.943 268.671C235.515 268.333 235.969 267.849 236.307 267.219C236.659 266.588 236.835 265.855 236.835 265.019ZM244.375 260.773C244.741 260.157 245.225 259.68 245.827 259.343C246.443 258.991 247.169 258.815 248.005 258.815V261.411H247.367C246.384 261.411 245.636 261.66 245.123 262.159C244.624 262.657 244.375 263.523 244.375 264.755V271.135H241.867V259.013H244.375V260.773ZM261.42 264.777C261.42 265.231 261.391 265.642 261.332 266.009H252.07C252.143 266.977 252.503 267.754 253.148 268.341C253.793 268.927 254.585 269.221 255.524 269.221C256.873 269.221 257.827 268.656 258.384 267.527H261.09C260.723 268.641 260.056 269.558 259.088 270.277C258.135 270.981 256.947 271.333 255.524 271.333C254.365 271.333 253.324 271.076 252.4 270.563C251.491 270.035 250.772 269.301 250.244 268.363C249.731 267.409 249.474 266.309 249.474 265.063C249.474 263.816 249.723 262.723 250.222 261.785C250.735 260.831 251.447 260.098 252.356 259.585C253.28 259.071 254.336 258.815 255.524 258.815C256.668 258.815 257.687 259.064 258.582 259.563C259.477 260.061 260.173 260.765 260.672 261.675C261.171 262.569 261.42 263.603 261.42 264.777ZM258.802 263.985C258.787 263.061 258.457 262.32 257.812 261.763C257.167 261.205 256.367 260.927 255.414 260.927C254.549 260.927 253.808 261.205 253.192 261.763C252.576 262.305 252.209 263.046 252.092 263.985H258.802ZM268.288 271.333C267.335 271.333 266.477 271.164 265.714 270.827C264.966 270.475 264.372 270.005 263.932 269.419C263.492 268.817 263.258 268.15 263.228 267.417H265.824C265.868 267.93 266.11 268.363 266.55 268.715C267.005 269.052 267.57 269.221 268.244 269.221C268.948 269.221 269.491 269.089 269.872 268.825C270.268 268.546 270.466 268.194 270.466 267.769C270.466 267.314 270.246 266.977 269.806 266.757C269.381 266.537 268.699 266.295 267.76 266.031C266.851 265.781 266.11 265.539 265.538 265.305C264.966 265.07 264.468 264.711 264.042 264.227C263.632 263.743 263.426 263.105 263.426 262.313C263.426 261.667 263.617 261.081 263.998 260.553C264.38 260.01 264.922 259.585 265.626 259.277C266.345 258.969 267.166 258.815 268.09 258.815C269.469 258.815 270.576 259.167 271.412 259.871C272.263 260.56 272.718 261.506 272.776 262.709H270.268C270.224 262.166 270.004 261.733 269.608 261.411C269.212 261.088 268.677 260.927 268.002 260.927C267.342 260.927 266.836 261.051 266.484 261.301C266.132 261.55 265.956 261.88 265.956 262.291C265.956 262.613 266.074 262.885 266.308 263.105C266.543 263.325 266.829 263.501 267.166 263.633C267.504 263.75 268.002 263.904 268.662 264.095C269.542 264.329 270.261 264.571 270.818 264.821C271.39 265.055 271.882 265.407 272.292 265.877C272.703 266.346 272.916 266.969 272.93 267.747C272.93 268.436 272.74 269.052 272.358 269.595C271.977 270.137 271.434 270.563 270.73 270.871C270.041 271.179 269.227 271.333 268.288 271.333ZM286.75 264.777C286.75 265.231 286.721 265.642 286.662 266.009H277.4C277.474 266.977 277.833 267.754 278.478 268.341C279.124 268.927 279.916 269.221 280.854 269.221C282.204 269.221 283.157 268.656 283.714 267.527H286.42C286.054 268.641 285.386 269.558 284.418 270.277C283.465 270.981 282.277 271.333 280.854 271.333C279.696 271.333 278.654 271.076 277.73 270.563C276.821 270.035 276.102 269.301 275.574 268.363C275.061 267.409 274.804 266.309 274.804 265.063C274.804 263.816 275.054 262.723 275.552 261.785C276.066 260.831 276.777 260.098 277.686 259.585C278.61 259.071 279.666 258.815 280.854 258.815C281.998 258.815 283.018 259.064 283.912 259.563C284.807 260.061 285.504 260.765 286.002 261.675C286.501 262.569 286.75 263.603 286.75 264.777ZM284.132 263.985C284.118 263.061 283.788 262.32 283.142 261.763C282.497 261.205 281.698 260.927 280.744 260.927C279.879 260.927 279.138 261.205 278.522 261.763C277.906 262.305 277.54 263.046 277.422 263.985H284.132ZM295.334 258.815C296.288 258.815 297.138 259.013 297.886 259.409C298.649 259.805 299.243 260.391 299.668 261.169C300.094 261.946 300.306 262.885 300.306 263.985V271.135H297.82V264.359C297.82 263.273 297.549 262.445 297.006 261.873C296.464 261.286 295.723 260.993 294.784 260.993C293.846 260.993 293.098 261.286 292.54 261.873C291.998 262.445 291.726 263.273 291.726 264.359V271.135H289.218V259.013H291.726V260.399C292.137 259.9 292.658 259.511 293.288 259.233C293.934 258.954 294.616 258.815 295.334 258.815ZM306.431 261.059V267.769C306.431 268.223 306.534 268.553 306.739 268.759C306.959 268.949 307.326 269.045 307.839 269.045H309.379V271.135H307.399C306.27 271.135 305.405 270.871 304.803 270.343C304.202 269.815 303.901 268.957 303.901 267.769V261.059H302.471V259.013H303.901V255.999H306.431V259.013H309.379V261.059H306.431ZM318.682 257.407C318.227 257.407 317.846 257.253 317.538 256.945C317.23 256.637 317.076 256.255 317.076 255.801C317.076 255.346 317.23 254.965 317.538 254.657C317.846 254.349 318.227 254.195 318.682 254.195C319.122 254.195 319.496 254.349 319.804 254.657C320.112 254.965 320.266 255.346 320.266 255.801C320.266 256.255 320.112 256.637 319.804 256.945C319.496 257.253 319.122 257.407 318.682 257.407ZM319.914 259.013V271.135H317.406V259.013H319.914ZM327.607 271.333C326.653 271.333 325.795 271.164 325.033 270.827C324.285 270.475 323.691 270.005 323.251 269.419C322.811 268.817 322.576 268.15 322.547 267.417H325.143C325.187 267.93 325.429 268.363 325.869 268.715C326.323 269.052 326.888 269.221 327.563 269.221C328.267 269.221 328.809 269.089 329.191 268.825C329.587 268.546 329.785 268.194 329.785 267.769C329.785 267.314 329.565 266.977 329.125 266.757C328.699 266.537 328.017 266.295 327.079 266.031C326.169 265.781 325.429 265.539 324.857 265.305C324.285 265.07 323.786 264.711 323.361 264.227C322.95 263.743 322.745 263.105 322.745 262.313C322.745 261.667 322.935 261.081 323.317 260.553C323.698 260.01 324.241 259.585 324.945 259.277C325.663 258.969 326.485 258.815 327.409 258.815C328.787 258.815 329.895 259.167 330.731 259.871C331.581 260.56 332.036 261.506 332.095 262.709H329.587C329.543 262.166 329.323 261.733 328.927 261.411C328.531 261.088 327.995 260.927 327.321 260.927C326.661 260.927 326.155 261.051 325.803 261.301C325.451 261.55 325.275 261.88 325.275 262.291C325.275 262.613 325.392 262.885 325.627 263.105C325.861 263.325 326.147 263.501 326.485 263.633C326.822 263.75 327.321 263.904 327.981 264.095C328.861 264.329 329.579 264.571 330.137 264.821C330.709 265.055 331.2 265.407 331.611 265.877C332.021 266.346 332.234 266.969 332.249 267.747C332.249 268.436 332.058 269.052 331.677 269.595C331.295 270.137 330.753 270.563 330.049 270.871C329.359 271.179 328.545 271.333 327.607 271.333ZM343.599 261.059V267.769C343.599 268.223 343.702 268.553 343.907 268.759C344.127 268.949 344.494 269.045 345.007 269.045H346.547V271.135H344.567C343.438 271.135 342.573 270.871 341.971 270.343C341.37 269.815 341.069 268.957 341.069 267.769V261.059H339.639V259.013H341.069V255.999H343.599V259.013H346.547V261.059H343.599ZM355.129 258.815C356.053 258.815 356.874 259.013 357.593 259.409C358.326 259.805 358.898 260.391 359.309 261.169C359.734 261.946 359.947 262.885 359.947 263.985V271.135H357.461V264.359C357.461 263.273 357.19 262.445 356.647 261.873C356.104 261.286 355.364 260.993 354.425 260.993C353.486 260.993 352.738 261.286 352.181 261.873C351.638 262.445 351.367 263.273 351.367 264.359V271.135H348.859V254.855H351.367V260.421C351.792 259.907 352.328 259.511 352.973 259.233C353.633 258.954 354.352 258.815 355.129 258.815ZM374.256 264.777C374.256 265.231 374.227 265.642 374.168 266.009H364.906C364.979 266.977 365.339 267.754 365.984 268.341C366.629 268.927 367.421 269.221 368.36 269.221C369.709 269.221 370.663 268.656 371.22 267.527H373.926C373.559 268.641 372.892 269.558 371.924 270.277C370.971 270.981 369.783 271.333 368.36 271.333C367.201 271.333 366.16 271.076 365.236 270.563C364.327 270.035 363.608 269.301 363.08 268.363C362.567 267.409 362.31 266.309 362.31 265.063C362.31 263.816 362.559 262.723 363.058 261.785C363.571 260.831 364.283 260.098 365.192 259.585C366.116 259.071 367.172 258.815 368.36 258.815C369.504 258.815 370.523 259.064 371.418 259.563C372.313 260.061 373.009 260.765 373.508 261.675C374.007 262.569 374.256 263.603 374.256 264.777ZM371.638 263.985C371.623 263.061 371.293 262.32 370.648 261.763C370.003 261.205 369.203 260.927 368.25 260.927C367.385 260.927 366.644 261.205 366.028 261.763C365.412 262.305 365.045 263.046 364.928 263.985H371.638ZM378 257.407C377.546 257.407 377.164 257.253 376.856 256.945C376.548 256.637 376.394 256.255 376.394 255.801C376.394 255.346 376.548 254.965 376.856 254.657C377.164 254.349 377.546 254.195 378 254.195C378.44 254.195 378.814 254.349 379.122 254.657C379.43 254.965 379.584 255.346 379.584 255.801C379.584 256.255 379.43 256.637 379.122 256.945C378.814 257.253 378.44 257.407 378 257.407ZM379.232 259.013V271.135H376.724V259.013H379.232ZM385.033 260.773C385.4 260.157 385.884 259.68 386.485 259.343C387.101 258.991 387.827 258.815 388.663 258.815V261.411H388.025C387.042 261.411 386.294 261.66 385.781 262.159C385.282 262.657 385.033 263.523 385.033 264.755V271.135H382.525V259.013H385.033V260.773ZM395.368 271.333C394.415 271.333 393.557 271.164 392.794 270.827C392.046 270.475 391.452 270.005 391.012 269.419C390.572 268.817 390.338 268.15 390.308 267.417H392.904C392.948 267.93 393.19 268.363 393.63 268.715C394.085 269.052 394.65 269.221 395.324 269.221C396.028 269.221 396.571 269.089 396.952 268.825C397.348 268.546 397.546 268.194 397.546 267.769C397.546 267.314 397.326 266.977 396.886 266.757C396.461 266.537 395.779 266.295 394.84 266.031C393.931 265.781 393.19 265.539 392.618 265.305C392.046 265.07 391.548 264.711 391.122 264.227C390.712 263.743 390.506 263.105 390.506 262.313C390.506 261.667 390.697 261.081 391.078 260.553C391.46 260.01 392.002 259.585 392.706 259.277C393.425 258.969 394.246 258.815 395.17 258.815C396.549 258.815 397.656 259.167 398.492 259.871C399.343 260.56 399.798 261.506 399.856 262.709H397.348C397.304 262.166 397.084 261.733 396.688 261.411C396.292 261.088 395.757 260.927 395.082 260.927C394.422 260.927 393.916 261.051 393.564 261.301C393.212 261.55 393.036 261.88 393.036 262.291C393.036 262.613 393.154 262.885 393.388 263.105C393.623 263.325 393.909 263.501 394.246 263.633C394.584 263.75 395.082 263.904 395.742 264.095C396.622 264.329 397.341 264.571 397.898 264.821C398.47 265.055 398.962 265.407 399.372 265.877C399.783 266.346 399.996 266.969 400.01 267.747C400.01 268.436 399.82 269.052 399.438 269.595C399.057 270.137 398.514 270.563 397.81 270.871C397.121 271.179 396.307 271.333 395.368 271.333ZM404.216 262.049C403.762 262.049 403.38 261.895 403.072 261.587C402.764 261.279 402.61 260.897 402.61 260.443C402.61 259.988 402.764 259.607 403.072 259.299C403.38 258.991 403.762 258.837 404.216 258.837C404.656 258.837 405.03 258.991 405.338 259.299C405.646 259.607 405.8 259.988 405.8 260.443C405.8 260.897 405.646 261.279 405.338 261.587C405.03 261.895 404.656 262.049 404.216 262.049ZM406.064 268.121L403.402 274.193H401.774L403.336 268.121H406.064ZM418.043 261.059V267.769C418.043 268.223 418.145 268.553 418.351 268.759C418.571 268.949 418.937 269.045 419.451 269.045H420.991V271.135H419.011C417.881 271.135 417.016 270.871 416.415 270.343C415.813 269.815 415.513 268.957 415.513 267.769V261.059H414.083V259.013H415.513V255.999H418.043V259.013H420.991V261.059H418.043ZM429.572 258.815C430.496 258.815 431.318 259.013 432.036 259.409C432.77 259.805 433.342 260.391 433.752 261.169C434.178 261.946 434.39 262.885 434.39 263.985V271.135H431.904V264.359C431.904 263.273 431.633 262.445 431.09 261.873C430.548 261.286 429.807 260.993 428.868 260.993C427.93 260.993 427.182 261.286 426.624 261.873C426.082 262.445 425.81 263.273 425.81 264.359V271.135H423.302V254.855H425.81V260.421C426.236 259.907 426.771 259.511 427.416 259.233C428.076 258.954 428.795 258.815 429.572 258.815ZM448.699 264.777C448.699 265.231 448.67 265.642 448.611 266.009H439.349C439.423 266.977 439.782 267.754 440.427 268.341C441.073 268.927 441.865 269.221 442.803 269.221C444.153 269.221 445.106 268.656 445.663 267.527H448.369C448.003 268.641 447.335 269.558 446.367 270.277C445.414 270.981 444.226 271.333 442.803 271.333C441.645 271.333 440.603 271.076 439.679 270.563C438.77 270.035 438.051 269.301 437.523 268.363C437.01 267.409 436.753 266.309 436.753 265.063C436.753 263.816 437.003 262.723 437.501 261.785C438.015 260.831 438.726 260.098 439.635 259.585C440.559 259.071 441.615 258.815 442.803 258.815C443.947 258.815 444.967 259.064 445.861 259.563C446.756 260.061 447.453 260.765 447.951 261.675C448.45 262.569 448.699 263.603 448.699 264.777ZM446.081 263.985C446.067 263.061 445.737 262.32 445.091 261.763C444.446 261.205 443.647 260.927 442.693 260.927C441.828 260.927 441.087 261.205 440.471 261.763C439.855 262.305 439.489 263.046 439.371 263.985H446.081ZM461.964 261.059H459.72V271.135H457.19V261.059H455.76V259.013H457.19V258.155C457.19 256.761 457.557 255.749 458.29 255.119C459.038 254.473 460.204 254.151 461.788 254.151V256.241C461.026 256.241 460.49 256.387 460.182 256.681C459.874 256.959 459.72 257.451 459.72 258.155V259.013H461.964V261.059ZM475.165 259.013V271.135H472.657V269.705C472.261 270.203 471.74 270.599 471.095 270.893C470.464 271.171 469.79 271.311 469.071 271.311C468.118 271.311 467.26 271.113 466.497 270.717C465.749 270.321 465.155 269.734 464.715 268.957C464.29 268.179 464.077 267.241 464.077 266.141V259.013H466.563V265.767C466.563 266.852 466.834 267.688 467.377 268.275C467.92 268.847 468.66 269.133 469.599 269.133C470.538 269.133 471.278 268.847 471.821 268.275C472.378 267.688 472.657 266.852 472.657 265.767V259.013H475.165ZM481.4 261.059V267.769C481.4 268.223 481.503 268.553 481.708 268.759C481.928 268.949 482.295 269.045 482.808 269.045H484.348V271.135H482.368C481.239 271.135 480.374 270.871 479.772 270.343C479.171 269.815 478.87 268.957 478.87 267.769V261.059H477.44V259.013H478.87V255.999H481.4V259.013H484.348V261.059H481.4ZM497.638 259.013V271.135H495.13V269.705C494.734 270.203 494.213 270.599 493.568 270.893C492.937 271.171 492.262 271.311 491.544 271.311C490.59 271.311 489.732 271.113 488.97 270.717C488.222 270.321 487.628 269.734 487.188 268.957C486.762 268.179 486.55 267.241 486.55 266.141V259.013H489.036V265.767C489.036 266.852 489.307 267.688 489.85 268.275C490.392 268.847 491.133 269.133 492.072 269.133C493.01 269.133 493.751 268.847 494.294 268.275C494.851 267.688 495.13 266.852 495.13 265.767V259.013H497.638ZM503.455 260.773C503.822 260.157 504.306 259.68 504.907 259.343C505.523 258.991 506.249 258.815 507.085 258.815V261.411H506.447C505.464 261.411 504.716 261.66 504.203 262.159C503.704 262.657 503.455 263.523 503.455 264.755V271.135H500.947V259.013H503.455V260.773ZM520.5 264.777C520.5 265.231 520.471 265.642 520.412 266.009H511.15C511.224 266.977 511.583 267.754 512.228 268.341C512.874 268.927 513.666 269.221 514.604 269.221C515.954 269.221 516.907 268.656 517.464 267.527H520.17C519.804 268.641 519.136 269.558 518.168 270.277C517.215 270.981 516.027 271.333 514.604 271.333C513.446 271.333 512.404 271.076 511.48 270.563C510.571 270.035 509.852 269.301 509.324 268.363C508.811 267.409 508.554 266.309 508.554 265.063C508.554 263.816 508.804 262.723 509.302 261.785C509.816 260.831 510.527 260.098 511.436 259.585C512.36 259.071 513.416 258.815 514.604 258.815C515.748 258.815 516.768 259.064 517.662 259.563C518.557 260.061 519.254 260.765 519.752 261.675C520.251 262.569 520.5 263.603 520.5 264.777ZM517.882 263.985C517.868 263.061 517.538 262.32 516.892 261.763C516.247 261.205 515.448 260.927 514.494 260.927C513.629 260.927 512.888 261.205 512.272 261.763C511.656 262.305 511.29 263.046 511.172 263.985H517.882ZM525.718 268.121L523.056 274.193H521.428L522.99 268.121H525.718ZM538.707 261.059H536.463V271.135H533.933V261.059H532.503V259.013H533.933V258.155C533.933 256.761 534.299 255.749 535.033 255.119C535.781 254.473 536.947 254.151 538.531 254.151V256.241C537.768 256.241 537.233 256.387 536.925 256.681C536.617 256.959 536.463 257.451 536.463 258.155V259.013H538.707V261.059ZM546.187 271.333C545.043 271.333 544.009 271.076 543.085 270.563C542.161 270.035 541.435 269.301 540.907 268.363C540.379 267.409 540.115 266.309 540.115 265.063C540.115 263.831 540.387 262.738 540.929 261.785C541.472 260.831 542.213 260.098 543.151 259.585C544.09 259.071 545.139 258.815 546.297 258.815C547.456 258.815 548.505 259.071 549.443 259.585C550.382 260.098 551.123 260.831 551.665 261.785C552.208 262.738 552.479 263.831 552.479 265.063C552.479 266.295 552.201 267.387 551.643 268.341C551.086 269.294 550.323 270.035 549.355 270.563C548.402 271.076 547.346 271.333 546.187 271.333ZM546.187 269.155C546.833 269.155 547.434 269.001 547.991 268.693C548.563 268.385 549.025 267.923 549.377 267.307C549.729 266.691 549.905 265.943 549.905 265.063C549.905 264.183 549.737 263.442 549.399 262.841C549.062 262.225 548.615 261.763 548.057 261.455C547.5 261.147 546.899 260.993 546.253 260.993C545.608 260.993 545.007 261.147 544.449 261.455C543.907 261.763 543.474 262.225 543.151 262.841C542.829 263.442 542.667 264.183 542.667 265.063C542.667 266.368 542.997 267.38 543.657 268.099C544.332 268.803 545.175 269.155 546.187 269.155ZM557.467 260.773C557.833 260.157 558.317 259.68 558.919 259.343C559.535 258.991 560.261 258.815 561.097 258.815V261.411H560.459C559.476 261.411 558.728 261.66 558.215 262.159C557.716 262.657 557.467 263.523 557.467 264.755V271.135H554.959V259.013H557.467V260.773ZM585.397 259.013L581.635 271.135H578.995L576.553 262.181L574.111 271.135H571.471L567.687 259.013H570.239L572.769 268.759L575.343 259.013H577.961L580.425 268.715L582.933 259.013H585.397ZM593.541 258.815C594.465 258.815 595.286 259.013 596.005 259.409C596.738 259.805 597.31 260.391 597.721 261.169C598.146 261.946 598.359 262.885 598.359 263.985V271.135H595.873V264.359C595.873 263.273 595.602 262.445 595.059 261.873C594.516 261.286 593.776 260.993 592.837 260.993C591.898 260.993 591.15 261.286 590.593 261.873C590.05 262.445 589.779 263.273 589.779 264.359V271.135H587.271V254.855H589.779V260.421C590.204 259.907 590.74 259.511 591.385 259.233C592.045 258.954 592.764 258.815 593.541 258.815ZM602.834 257.407C602.38 257.407 601.998 257.253 601.69 256.945C601.382 256.637 601.228 256.255 601.228 255.801C601.228 255.346 601.382 254.965 601.69 254.657C601.998 254.349 602.38 254.195 602.834 254.195C603.274 254.195 603.648 254.349 603.956 254.657C604.264 254.965 604.418 255.346 604.418 255.801C604.418 256.255 604.264 256.637 603.956 256.945C603.648 257.253 603.274 257.407 602.834 257.407ZM604.066 259.013V271.135H601.558V259.013H604.066ZM606.523 265.063C606.523 263.816 606.772 262.723 607.271 261.785C607.784 260.831 608.488 260.098 609.383 259.585C610.278 259.071 611.304 258.815 612.463 258.815C613.93 258.815 615.14 259.167 616.093 259.871C617.061 260.56 617.714 261.55 618.051 262.841H615.345C615.125 262.239 614.773 261.77 614.289 261.433C613.805 261.095 613.196 260.927 612.463 260.927C611.436 260.927 610.615 261.293 609.999 262.027C609.398 262.745 609.097 263.757 609.097 265.063C609.097 266.368 609.398 267.387 609.999 268.121C610.615 268.854 611.436 269.221 612.463 269.221C613.915 269.221 614.876 268.583 615.345 267.307H618.051C617.699 268.539 617.039 269.521 616.071 270.255C615.103 270.973 613.9 271.333 612.463 271.333C611.304 271.333 610.278 271.076 609.383 270.563C608.488 270.035 607.784 269.301 607.271 268.363C606.772 267.409 606.523 266.309 606.523 265.063ZM626.82 258.815C627.744 258.815 628.566 259.013 629.284 259.409C630.018 259.805 630.59 260.391 631 261.169C631.426 261.946 631.638 262.885 631.638 263.985V271.135H629.152V264.359C629.152 263.273 628.881 262.445 628.338 261.873C627.796 261.286 627.055 260.993 626.116 260.993C625.178 260.993 624.43 261.286 623.872 261.873C623.33 262.445 623.058 263.273 623.058 264.359V271.135H620.55V254.855H623.058V260.421C623.484 259.907 624.019 259.511 624.664 259.233C625.324 258.954 626.043 258.815 626.82 258.815ZM643.06 255.845V271.135H640.552V255.845H643.06ZM654.576 260.773C654.943 260.157 655.427 259.68 656.028 259.343C656.644 258.991 657.37 258.815 658.206 258.815V261.411H657.568C656.585 261.411 655.837 261.66 655.324 262.159C654.825 262.657 654.576 263.523 654.576 264.755V271.135H652.068V259.013H654.576V260.773ZM671.621 264.777C671.621 265.231 671.592 265.642 671.533 266.009H662.271C662.345 266.977 662.704 267.754 663.349 268.341C663.995 268.927 664.787 269.221 665.725 269.221C667.075 269.221 668.028 268.656 668.585 267.527H671.291C670.925 268.641 670.257 269.558 669.289 270.277C668.336 270.981 667.148 271.333 665.725 271.333C664.567 271.333 663.525 271.076 662.601 270.563C661.692 270.035 660.973 269.301 660.445 268.363C659.932 267.409 659.675 266.309 659.675 265.063C659.675 263.816 659.925 262.723 660.423 261.785C660.937 260.831 661.648 260.098 662.557 259.585C663.481 259.071 664.537 258.815 665.725 258.815C666.869 258.815 667.889 259.064 668.783 259.563C669.678 260.061 670.375 260.765 670.873 261.675C671.372 262.569 671.621 263.603 671.621 264.777ZM669.003 263.985C668.989 263.061 668.659 262.32 668.013 261.763C667.368 261.205 666.569 260.927 665.615 260.927C664.75 260.927 664.009 261.205 663.393 261.763C662.777 262.305 662.411 263.046 662.293 263.985H669.003ZM673.253 265.019C673.253 263.801 673.503 262.723 674.001 261.785C674.515 260.846 675.204 260.12 676.069 259.607C676.949 259.079 677.917 258.815 678.973 258.815C679.927 258.815 680.755 259.005 681.459 259.387C682.178 259.753 682.75 260.215 683.175 260.773V259.013H685.705V271.135H683.175V269.331C682.75 269.903 682.171 270.379 681.437 270.761C680.704 271.142 679.868 271.333 678.929 271.333C677.888 271.333 676.935 271.069 676.069 270.541C675.204 269.998 674.515 269.25 674.001 268.297C673.503 267.329 673.253 266.236 673.253 265.019ZM683.175 265.063C683.175 264.227 682.999 263.501 682.647 262.885C682.31 262.269 681.863 261.799 681.305 261.477C680.748 261.154 680.147 260.993 679.501 260.993C678.856 260.993 678.255 261.154 677.697 261.477C677.14 261.785 676.685 262.247 676.333 262.863C675.996 263.464 675.827 264.183 675.827 265.019C675.827 265.855 675.996 266.588 676.333 267.219C676.685 267.849 677.14 268.333 677.697 268.671C678.269 268.993 678.871 269.155 679.501 269.155C680.147 269.155 680.748 268.993 681.305 268.671C681.863 268.348 682.31 267.879 682.647 267.263C682.999 266.632 683.175 265.899 683.175 265.063ZM691.508 254.855V271.135H689V254.855H691.508ZM697.308 254.855V271.135H694.8V254.855H697.308ZM711.513 259.013L704.077 276.833H701.481L703.945 270.937L699.171 259.013H701.965L705.375 268.253L708.917 259.013H711.513ZM735.401 259.013L731.639 271.135H728.999L726.557 262.181L724.115 271.135H721.475L717.691 259.013H720.243L722.773 268.759L725.347 259.013H727.965L730.429 268.715L732.937 259.013H735.401ZM742.533 271.333C741.389 271.333 740.355 271.076 739.431 270.563C738.507 270.035 737.781 269.301 737.253 268.363C736.725 267.409 736.461 266.309 736.461 265.063C736.461 263.831 736.732 262.738 737.275 261.785C737.818 260.831 738.558 260.098 739.497 259.585C740.436 259.071 741.484 258.815 742.643 258.815C743.802 258.815 744.85 259.071 745.789 259.585C746.728 260.098 747.468 260.831 748.011 261.785C748.554 262.738 748.825 263.831 748.825 265.063C748.825 266.295 748.546 267.387 747.989 268.341C747.432 269.294 746.669 270.035 745.701 270.563C744.748 271.076 743.692 271.333 742.533 271.333ZM742.533 269.155C743.178 269.155 743.78 269.001 744.337 268.693C744.909 268.385 745.371 267.923 745.723 267.307C746.075 266.691 746.251 265.943 746.251 265.063C746.251 264.183 746.082 263.442 745.745 262.841C745.408 262.225 744.96 261.763 744.403 261.455C743.846 261.147 743.244 260.993 742.599 260.993C741.954 260.993 741.352 261.147 740.795 261.455C740.252 261.763 739.82 262.225 739.497 262.841C739.174 263.442 739.013 264.183 739.013 265.063C739.013 266.368 739.343 267.38 740.003 268.099C740.678 268.803 741.521 269.155 742.533 269.155ZM753.812 260.773C754.179 260.157 754.663 259.68 755.264 259.343C755.88 258.991 756.606 258.815 757.442 258.815V261.411H756.804C755.822 261.411 755.074 261.66 754.56 262.159C754.062 262.657 753.812 263.523 753.812 264.755V271.135H751.304V259.013H753.812V260.773ZM764.544 265.085L770.132 271.135H766.744L762.256 265.921V271.135H759.748V254.855H762.256V264.315L766.656 259.013H770.132L764.544 265.085ZM783.039 264.777C783.039 265.231 783.01 265.642 782.951 266.009H773.689C773.763 266.977 774.122 267.754 774.767 268.341C775.413 268.927 776.205 269.221 777.143 269.221C778.493 269.221 779.446 268.656 780.003 267.527H782.709C782.343 268.641 781.675 269.558 780.707 270.277C779.754 270.981 778.566 271.333 777.143 271.333C775.985 271.333 774.943 271.076 774.019 270.563C773.11 270.035 772.391 269.301 771.863 268.363C771.35 267.409 771.093 266.309 771.093 265.063C771.093 263.816 771.343 262.723 771.841 261.785C772.355 260.831 773.066 260.098 773.975 259.585C774.899 259.071 775.955 258.815 777.143 258.815C778.287 258.815 779.307 259.064 780.201 259.563C781.096 260.061 781.793 260.765 782.291 261.675C782.79 262.569 783.039 263.603 783.039 264.777ZM780.421 263.985C780.407 263.061 780.077 262.32 779.431 261.763C778.786 261.205 777.987 260.927 777.033 260.927C776.168 260.927 775.427 261.205 774.811 261.763C774.195 262.305 773.829 263.046 773.711 263.985H780.421ZM784.671 265.019C784.671 263.801 784.921 262.723 785.419 261.785C785.933 260.846 786.622 260.12 787.487 259.607C788.367 259.079 789.343 258.815 790.413 258.815C791.205 258.815 791.983 258.991 792.745 259.343C793.523 259.68 794.139 260.135 794.593 260.707V254.855H797.123V271.135H794.593V269.309C794.183 269.895 793.611 270.379 792.877 270.761C792.159 271.142 791.33 271.333 790.391 271.333C789.335 271.333 788.367 271.069 787.487 270.541C786.622 269.998 785.933 269.25 785.419 268.297C784.921 267.329 784.671 266.236 784.671 265.019ZM794.593 265.063C794.593 264.227 794.417 263.501 794.065 262.885C793.728 262.269 793.281 261.799 792.723 261.477C792.166 261.154 791.565 260.993 790.919 260.993C790.274 260.993 789.673 261.154 789.115 261.477C788.558 261.785 788.103 262.247 787.751 262.863C787.414 263.464 787.245 264.183 787.245 265.019C787.245 265.855 787.414 266.588 787.751 267.219C788.103 267.849 788.558 268.333 789.115 268.671C789.687 268.993 790.289 269.155 790.919 269.155C791.565 269.155 792.166 268.993 792.723 268.671C793.281 268.348 793.728 267.879 794.065 267.263C794.417 266.632 794.593 265.899 794.593 265.063ZM803.168 268.121L800.506 274.193H798.878L800.44 268.121H803.168ZM812.35 257.407C811.895 257.407 811.514 257.253 811.206 256.945C810.898 256.637 810.744 256.255 810.744 255.801C810.744 255.346 810.898 254.965 811.206 254.657C811.514 254.349 811.895 254.195 812.35 254.195C812.79 254.195 813.164 254.349 813.472 254.657C813.78 254.965 813.934 255.346 813.934 255.801C813.934 256.255 813.78 256.637 813.472 256.945C813.164 257.253 812.79 257.407 812.35 257.407ZM813.582 259.013V271.135H811.074V259.013H813.582ZM821.275 271.333C820.321 271.333 819.463 271.164 818.701 270.827C817.953 270.475 817.359 270.005 816.919 269.419C816.479 268.817 816.244 268.15 816.215 267.417H818.811C818.855 267.93 819.097 268.363 819.537 268.715C819.991 269.052 820.556 269.221 821.231 269.221C821.935 269.221 822.477 269.089 822.859 268.825C823.255 268.546 823.453 268.194 823.453 267.769C823.453 267.314 823.233 266.977 822.793 266.757C822.367 266.537 821.685 266.295 820.747 266.031C819.837 265.781 819.097 265.539 818.525 265.305C817.953 265.07 817.454 264.711 817.029 264.227C816.618 263.743 816.413 263.105 816.413 262.313C816.413 261.667 816.603 261.081 816.985 260.553C817.366 260.01 817.909 259.585 818.613 259.277C819.331 258.969 820.153 258.815 821.077 258.815C822.455 258.815 823.563 259.167 824.399 259.871C825.249 260.56 825.704 261.506 825.763 262.709H823.255C823.211 262.166 822.991 261.733 822.595 261.411C822.199 261.088 821.663 260.927 820.989 260.927C820.329 260.927 819.823 261.051 819.471 261.301C819.119 261.55 818.943 261.88 818.943 262.291C818.943 262.613 819.06 262.885 819.295 263.105C819.529 263.325 819.815 263.501 820.153 263.633C820.49 263.75 820.989 263.904 821.649 264.095C822.529 264.329 823.247 264.571 823.805 264.821C824.377 265.055 824.868 265.407 825.279 265.877C825.689 266.346 825.902 266.969 825.917 267.747C825.917 268.436 825.726 269.052 825.345 269.595C824.963 270.137 824.421 270.563 823.717 270.871C823.027 271.179 822.213 271.333 821.275 271.333ZM415.536 291.815C416.489 291.815 417.34 292.013 418.088 292.409C418.851 292.805 419.445 293.391 419.87 294.169C420.31 294.946 420.53 295.885 420.53 296.985V304.135H418.044V297.359C418.044 296.273 417.773 295.445 417.23 294.873C416.687 294.286 415.947 293.993 415.008 293.993C414.069 293.993 413.321 294.286 412.764 294.873C412.221 295.445 411.95 296.273 411.95 297.359V304.135H409.464V297.359C409.464 296.273 409.193 295.445 408.65 294.873C408.107 294.286 407.367 293.993 406.428 293.993C405.489 293.993 404.741 294.286 404.184 294.873C403.641 295.445 403.37 296.273 403.37 297.359V304.135H400.862V292.013H403.37V293.399C403.781 292.9 404.301 292.511 404.932 292.233C405.563 291.954 406.237 291.815 406.956 291.815C407.924 291.815 408.789 292.02 409.552 292.431C410.315 292.841 410.901 293.435 411.312 294.213C411.679 293.479 412.251 292.9 413.028 292.475C413.805 292.035 414.641 291.815 415.536 291.815ZM424.997 290.407C424.543 290.407 424.161 290.253 423.853 289.945C423.545 289.637 423.391 289.255 423.391 288.801C423.391 288.346 423.545 287.965 423.853 287.657C424.161 287.349 424.543 287.195 424.997 287.195C425.437 287.195 425.811 287.349 426.119 287.657C426.427 287.965 426.581 288.346 426.581 288.801C426.581 289.255 426.427 289.637 426.119 289.945C425.811 290.253 425.437 290.407 424.997 290.407ZM426.229 292.013V304.135H423.721V292.013H426.229ZM435.638 291.815C436.591 291.815 437.442 292.013 438.19 292.409C438.953 292.805 439.547 293.391 439.972 294.169C440.397 294.946 440.61 295.885 440.61 296.985V304.135H438.124V297.359C438.124 296.273 437.853 295.445 437.31 294.873C436.767 294.286 436.027 293.993 435.088 293.993C434.149 293.993 433.401 294.286 432.844 294.873C432.301 295.445 432.03 296.273 432.03 297.359V304.135H429.522V292.013H432.03V293.399C432.441 292.9 432.961 292.511 433.592 292.233C434.237 291.954 434.919 291.815 435.638 291.815ZM454.919 297.777C454.919 298.231 454.89 298.642 454.831 299.009H445.569C445.643 299.977 446.002 300.754 446.647 301.341C447.293 301.927 448.085 302.221 449.023 302.221C450.373 302.221 451.326 301.656 451.883 300.527H454.589C454.223 301.641 453.555 302.558 452.587 303.277C451.634 303.981 450.446 304.333 449.023 304.333C447.865 304.333 446.823 304.076 445.899 303.563C444.99 303.035 444.271 302.301 443.743 301.363C443.23 300.409 442.973 299.309 442.973 298.063C442.973 296.816 443.223 295.723 443.721 294.785C444.235 293.831 444.946 293.098 445.855 292.585C446.779 292.071 447.835 291.815 449.023 291.815C450.167 291.815 451.187 292.064 452.081 292.563C452.976 293.061 453.673 293.765 454.171 294.675C454.67 295.569 454.919 296.603 454.919 297.777ZM452.301 296.985C452.287 296.061 451.957 295.32 451.311 294.763C450.666 294.205 449.867 293.927 448.913 293.927C448.048 293.927 447.307 294.205 446.691 294.763C446.075 295.305 445.709 296.046 445.591 296.985H452.301ZM472.408 295.115V297.227H463.366V295.115H472.408ZM494.248 304.135H491.74L484.194 292.717V304.135H481.686V288.823H484.194L491.74 300.219V288.823H494.248V304.135ZM498.818 290.407C498.363 290.407 497.982 290.253 497.674 289.945C497.366 289.637 497.212 289.255 497.212 288.801C497.212 288.346 497.366 287.965 497.674 287.657C497.982 287.349 498.363 287.195 498.818 287.195C499.258 287.195 499.632 287.349 499.94 287.657C500.248 287.965 500.402 288.346 500.402 288.801C500.402 289.255 500.248 289.637 499.94 289.945C499.632 290.253 499.258 290.407 498.818 290.407ZM500.05 292.013V304.135H497.542V292.013H500.05ZM508.138 298.085L513.726 304.135H510.338L505.85 298.921V304.135H503.342V287.855H505.85V297.315L510.25 292.013H513.726L508.138 298.085ZM520.782 304.333C519.638 304.333 518.604 304.076 517.68 303.563C516.756 303.035 516.03 302.301 515.502 301.363C514.974 300.409 514.71 299.309 514.71 298.063C514.71 296.831 514.981 295.738 515.524 294.785C516.067 293.831 516.807 293.098 517.746 292.585C518.685 292.071 519.733 291.815 520.892 291.815C522.051 291.815 523.099 292.071 524.038 292.585C524.977 293.098 525.717 293.831 526.26 294.785C526.803 295.738 527.074 296.831 527.074 298.063C527.074 299.295 526.795 300.387 526.238 301.341C525.681 302.294 524.918 303.035 523.95 303.563C522.997 304.076 521.941 304.333 520.782 304.333ZM520.782 302.155C521.427 302.155 522.029 302.001 522.586 301.693C523.158 301.385 523.62 300.923 523.972 300.307C524.324 299.691 524.5 298.943 524.5 298.063C524.5 297.183 524.331 296.442 523.994 295.841C523.657 295.225 523.209 294.763 522.652 294.455C522.095 294.147 521.493 293.993 520.848 293.993C520.203 293.993 519.601 294.147 519.044 294.455C518.501 294.763 518.069 295.225 517.746 295.841C517.423 296.442 517.262 297.183 517.262 298.063C517.262 299.368 517.592 300.38 518.252 301.099C518.927 301.803 519.77 302.155 520.782 302.155ZM532.061 287.855V304.135H529.553V287.855H532.061ZM534.518 298.019C534.518 296.801 534.767 295.723 535.266 294.785C535.779 293.846 536.469 293.12 537.334 292.607C538.214 292.079 539.182 291.815 540.238 291.815C541.191 291.815 542.02 292.005 542.724 292.387C543.443 292.753 544.015 293.215 544.44 293.773V292.013H546.97V304.135H544.44V302.331C544.015 302.903 543.435 303.379 542.702 303.761C541.969 304.142 541.133 304.333 540.194 304.333C539.153 304.333 538.199 304.069 537.334 303.541C536.469 302.998 535.779 302.25 535.266 301.297C534.767 300.329 534.518 299.236 534.518 298.019ZM544.44 298.063C544.44 297.227 544.264 296.501 543.912 295.885C543.575 295.269 543.127 294.799 542.57 294.477C542.013 294.154 541.411 293.993 540.766 293.993C540.121 293.993 539.519 294.154 538.962 294.477C538.405 294.785 537.95 295.247 537.598 295.863C537.261 296.464 537.092 297.183 537.092 298.019C537.092 298.855 537.261 299.588 537.598 300.219C537.95 300.849 538.405 301.333 538.962 301.671C539.534 301.993 540.135 302.155 540.766 302.155C541.411 302.155 542.013 301.993 542.57 301.671C543.127 301.348 543.575 300.879 543.912 300.263C544.264 299.632 544.44 298.899 544.44 298.063ZM565.857 288.845V290.891H561.787V304.135H559.279V290.891H555.187V288.845H565.857ZM579.507 297.777C579.507 298.231 579.478 298.642 579.419 299.009H570.157C570.23 299.977 570.59 300.754 571.235 301.341C571.88 301.927 572.672 302.221 573.611 302.221C574.96 302.221 575.914 301.656 576.471 300.527H579.177C578.81 301.641 578.143 302.558 577.175 303.277C576.222 303.981 575.034 304.333 573.611 304.333C572.452 304.333 571.411 304.076 570.487 303.563C569.578 303.035 568.859 302.301 568.331 301.363C567.818 300.409 567.561 299.309 567.561 298.063C567.561 296.816 567.81 295.723 568.309 294.785C568.822 293.831 569.534 293.098 570.443 292.585C571.367 292.071 572.423 291.815 573.611 291.815C574.755 291.815 575.774 292.064 576.669 292.563C577.564 293.061 578.26 293.765 578.759 294.675C579.258 295.569 579.507 296.603 579.507 297.777ZM576.889 296.985C576.874 296.061 576.544 295.32 575.899 294.763C575.254 294.205 574.454 293.927 573.501 293.927C572.636 293.927 571.895 294.205 571.279 294.763C570.663 295.305 570.296 296.046 570.179 296.985H576.889ZM586.375 304.333C585.422 304.333 584.564 304.164 583.801 303.827C583.053 303.475 582.459 303.005 582.019 302.419C581.579 301.817 581.345 301.15 581.315 300.417H583.911C583.955 300.93 584.197 301.363 584.637 301.715C585.092 302.052 585.657 302.221 586.331 302.221C587.035 302.221 587.578 302.089 587.959 301.825C588.355 301.546 588.553 301.194 588.553 300.769C588.553 300.314 588.333 299.977 587.893 299.757C587.468 299.537 586.786 299.295 585.847 299.031C584.938 298.781 584.197 298.539 583.625 298.305C583.053 298.07 582.555 297.711 582.129 297.227C581.719 296.743 581.513 296.105 581.513 295.313C581.513 294.667 581.704 294.081 582.085 293.553C582.467 293.01 583.009 292.585 583.713 292.277C584.432 291.969 585.253 291.815 586.177 291.815C587.556 291.815 588.663 292.167 589.499 292.871C590.35 293.56 590.805 294.506 590.863 295.709H588.355C588.311 295.166 588.091 294.733 587.695 294.411C587.299 294.088 586.764 293.927 586.089 293.927C585.429 293.927 584.923 294.051 584.571 294.301C584.219 294.55 584.043 294.88 584.043 295.291C584.043 295.613 584.161 295.885 584.395 296.105C584.63 296.325 584.916 296.501 585.253 296.633C585.591 296.75 586.089 296.904 586.749 297.095C587.629 297.329 588.348 297.571 588.905 297.821C589.477 298.055 589.969 298.407 590.379 298.877C590.79 299.346 591.003 299.969 591.017 300.747C591.017 301.436 590.827 302.052 590.445 302.595C590.064 303.137 589.521 303.563 588.817 303.871C588.128 304.179 587.314 304.333 586.375 304.333ZM596.235 287.855V304.135H593.727V287.855H596.235ZM598.692 298.019C598.692 296.801 598.941 295.723 599.44 294.785C599.953 293.846 600.643 293.12 601.508 292.607C602.388 292.079 603.356 291.815 604.412 291.815C605.365 291.815 606.194 292.005 606.898 292.387C607.617 292.753 608.189 293.215 608.614 293.773V292.013H611.144V304.135H608.614V302.331C608.189 302.903 607.609 303.379 606.876 303.761C606.143 304.142 605.307 304.333 604.368 304.333C603.327 304.333 602.373 304.069 601.508 303.541C600.643 302.998 599.953 302.25 599.44 301.297C598.941 300.329 598.692 299.236 598.692 298.019ZM608.614 298.063C608.614 297.227 608.438 296.501 608.086 295.885C607.749 295.269 607.301 294.799 606.744 294.477C606.187 294.154 605.585 293.993 604.94 293.993C604.295 293.993 603.693 294.154 603.136 294.477C602.579 294.785 602.124 295.247 601.772 295.863C601.435 296.464 601.266 297.183 601.266 298.019C601.266 298.855 601.435 299.588 601.772 300.219C602.124 300.849 602.579 301.333 603.136 301.671C603.708 301.993 604.309 302.155 604.94 302.155C605.585 302.155 606.187 301.993 606.744 301.671C607.301 301.348 607.749 300.879 608.086 300.263C608.438 299.632 608.614 298.899 608.614 298.063Z" fill="white"/>
<rect x="649.31" y="303.764" width="10.3093" height="10.9739" transform="rotate(180 649.31 303.764)" fill="#F8CB15"/>
<rect x="679" y="303.764" width="10.3093" height="10.9739" transform="rotate(180 679 303.764)" fill="#3C96D7"/>
<rect x="663.846" y="303.764" width="10.3093" height="10.9739" transform="rotate(180 663.846 303.764)" fill="#F72B22"/>
<path d="M43.6219 308.131C36.1339 308.131 30.2779 305.059 26.0539 298.915C22.4059 293.923 20.5819 287.107 20.5819 278.467C20.5819 266.563 23.5579 255.331 29.5099 244.771C35.4619 234.019 42.6619 225.571 51.1099 219.427L55.1419 224.035C48.0379 229.411 42.1819 235.939 37.5739 243.619C33.1579 251.299 30.9499 258.979 30.9499 266.659C30.9499 268.771 31.3339 270.499 32.1019 271.843C32.8699 272.995 34.2139 274.147 36.1339 275.299C37.4779 276.067 40.7419 276.451 45.9259 276.451C50.1499 276.451 53.6059 277.987 56.2939 281.059C58.9819 283.939 60.3259 287.395 60.3259 291.427C60.3259 296.611 58.5979 300.739 55.1419 303.811C51.6859 306.691 47.8459 308.131 43.6219 308.131ZM97.1899 308.131C89.7019 308.131 83.8459 305.059 79.6219 298.915C75.9739 293.923 74.1499 287.107 74.1499 278.467C74.1499 266.563 77.1259 255.331 83.0779 244.771C89.0299 234.019 96.2299 225.571 104.678 219.427L108.71 224.035C101.606 229.411 95.7499 235.939 91.1419 243.619C86.7259 251.299 84.5179 258.979 84.5179 266.659C84.5179 268.771 84.9019 270.499 85.6699 271.843C86.4379 272.995 87.7819 274.147 89.7019 275.299C91.0459 276.067 94.3099 276.451 99.4939 276.451C103.718 276.451 107.174 277.987 109.862 281.059C112.55 283.939 113.894 287.395 113.894 291.427C113.894 296.611 112.166 300.739 108.71 303.811C105.254 306.691 101.414 308.131 97.1899 308.131Z" fill="white" fill-opacity="0.22"/>
<path d="M969.378 221.869C976.866 221.869 982.722 224.941 986.946 231.085C990.594 236.077 992.418 242.893 992.418 251.533C992.418 263.437 989.442 274.669 983.49 285.229C977.538 295.981 970.338 304.429 961.89 310.573L957.858 305.965C964.962 300.589 970.818 294.061 975.426 286.381C979.842 278.701 982.05 271.021 982.05 263.341C982.05 261.229 981.666 259.501 980.898 258.157C980.13 257.005 978.786 255.853 976.866 254.701C975.522 253.933 972.258 253.549 967.074 253.549C962.85 253.549 959.394 252.013 956.706 248.941C954.018 246.061 952.674 242.605 952.674 238.573C952.674 233.389 954.402 229.261 957.858 226.189C961.314 223.309 965.154 221.869 969.378 221.869ZM915.81 221.869C923.298 221.869 929.154 224.941 933.378 231.085C937.026 236.077 938.85 242.893 938.85 251.533C938.85 263.437 935.874 274.669 929.922 285.229C923.97 295.981 916.77 304.429 908.322 310.573L904.29 305.965C911.394 300.589 917.25 294.061 921.858 286.381C926.274 278.701 928.482 271.021 928.482 263.341C928.482 261.229 928.098 259.501 927.33 258.157C926.562 257.005 925.218 255.853 923.298 254.701C921.954 253.933 918.69 253.549 913.506 253.549C909.282 253.549 905.826 252.013 903.138 248.941C900.45 246.061 899.106 242.605 899.106 238.573C899.106 233.389 900.834 229.261 904.29 226.189C907.746 223.309 911.586 221.869 915.81 221.869Z" fill="white" fill-opacity="0.22"/>
</svg>
